<svg width="400" height="647" viewBox="0 0 400 647" fill="none" xmlns="http://www.w3.org/2000/svg">
<g opacity="0.5">
<g clip-path="url(#clip0_400_13726)">
<rect x="32.7285" y="0.396606" width="443.233" height="627.231" rx="11.6775" transform="rotate(34.11 32.7285 0.396606)" fill="white"/>
<rect x="25.9081" y="43.012" width="43.9509" height="43.9509" rx="5.58697" transform="rotate(34.11 25.9081 43.012)" stroke="black" stroke-opacity="0.09" stroke-width="0.74493"/>
<rect x="20.4972" y="65.8883" width="19.2714" height="19.2714" rx="5.58697" transform="rotate(-10.89 20.4972 65.8883)" stroke="black" stroke-opacity="0.09" stroke-width="0.74493"/>
<rect x="30.7847" y="68.3574" width="7.4493" height="7.4493" rx="2.23479" transform="rotate(34.11 30.7847 68.3574)" fill="black" fill-opacity="0.07"/>
<rect x="26.8037" y="47.6667" width="7.4493" height="7.4493" rx="2.23479" transform="rotate(34.11 26.8037 47.6667)" fill="black" fill-opacity="0.07"/>
<rect x="51.4751" y="64.3764" width="7.4493" height="7.4493" rx="2.23479" transform="rotate(34.11 51.4751 64.3764)" fill="black" fill-opacity="0.07"/>
<rect x="10.0942" y="72.3383" width="7.4493" height="7.4493" rx="2.23479" transform="rotate(34.11 10.0942 72.3383)" fill="black" fill-opacity="0.07"/>
<rect x="34.7651" y="89.0479" width="7.4493" height="7.4493" rx="2.23479" transform="rotate(34.11 34.7651 89.0479)" fill="black" fill-opacity="0.07"/>
<rect x="35.7686" y="205.791" width="208.58" height="20.1131" rx="1.79654" transform="rotate(34.11 35.7686 205.791)" fill="#ECECEC"/>
<rect x="301.484" y="204.02" width="84.1771" height="10.429" rx="1.79654" transform="rotate(34.11 301.484 204.02)" fill="#ECECEC"/>
<rect x="293.547" y="215.738" width="70.7683" height="10.429" rx="1.79654" transform="rotate(34.11 293.547 215.738)" fill="#ECECEC"/>
<rect x="285.61" y="227.457" width="38.7364" height="10.429" rx="1.79654" transform="rotate(34.11 285.61 227.457)" fill="#ECECEC"/>
<rect x="277.255" y="239.793" width="65.5538" height="10.429" rx="1.79654" transform="rotate(34.11 277.255 239.793)" fill="#ECECEC"/>
<rect x="38.1772" y="25.5616" width="152.706" height="10.7793" rx="1.79654" transform="rotate(34.11 38.1772 25.5616)" fill="#ECECEC"/>
<rect x="-68.9199" y="181.942" width="403.324" height="24.2534" rx="1.79654" transform="rotate(34.11 -68.9199 181.942)" fill="#ECECEC"/>
<rect x="-86.0474" y="207.229" width="245.228" height="16.1689" rx="1.79654" transform="rotate(34.11 -86.0474 207.229)" fill="#ECECEC"/>
<rect x="-99.4556" y="227.44" width="130.249" height="16.1689" rx="1.79654" transform="rotate(34.11 -99.4556 227.44)" fill="#ECECEC"/>
<rect x="103.607" y="421.785" width="130.249" height="16.1689" rx="1.79654" transform="rotate(34.11 103.607 421.785)" fill="#ECECEC"/>
<rect x="90.0063" y="441.866" width="130.249" height="16.1689" rx="1.79654" transform="rotate(34.11 90.0063 441.866)" fill="#ECECEC"/>
<rect x="-229.3" y="420.334" width="403.324" height="16.1689" rx="1.79654" transform="rotate(34.11 -229.3 420.334)" fill="#ECECEC"/>
<rect x="-178.266" y="345.1" width="226.459" height="16.3885" rx="1.79654" transform="rotate(34.5344 -178.266 345.1)" fill="#ECECEC"/>
<rect x="-190.384" y="363.018" width="275.624" height="15.6435" rx="1.79654" transform="rotate(34.11 -190.384 363.018)" fill="#ECECEC"/>
<rect x="59.895" y="127.662" width="263.705" height="39.4813" rx="5.95944" transform="rotate(34.11 59.895 127.662)" fill="#ECECEC"/>
</g>
<rect x="32.828" y="0.913865" width="442.488" height="626.486" rx="11.3051" transform="rotate(34.11 32.828 0.913865)" stroke="#3A2210" stroke-opacity="0.15" stroke-width="0.74493"/>
</g>
<defs>
<clipPath id="clip0_400_13726">
<rect x="32.7285" y="0.396606" width="443.233" height="627.231" rx="11.6775" transform="rotate(34.11 32.7285 0.396606)" fill="white"/>
</clipPath>
</defs>
</svg>
