<svg width="411" height="682" viewBox="0 0 411 682" fill="none" xmlns="http://www.w3.org/2000/svg">
<g opacity="0.41">
<g clip-path="url(#clip0_400_9298)">
<rect x="0.286621" y="292.264" width="536.431" height="759.117" rx="14.133" transform="rotate(-32.9076 0.286621 292.264)" fill="white"/>
<rect x="30.8314" y="298.808" width="53.1923" height="53.1923" rx="6.76173" transform="rotate(-32.9076 30.8314 298.808)" stroke="black" stroke-opacity="0.09" stroke-width="0.901564"/>
<rect x="53.7637" y="315.647" width="23.3236" height="23.3236" rx="6.76173" transform="rotate(-77.9076 53.7637 315.647)" stroke="black" stroke-opacity="0.09" stroke-width="0.901564"/>
<rect x="61.376" y="305.352" width="9.01564" height="9.01564" rx="2.70469" transform="rotate(-32.9076 61.376 305.352)" fill="black" fill-opacity="0.07"/>
<rect x="36.4414" y="300.009" width="9.01564" height="9.01564" rx="2.70469" transform="rotate(-32.9076 36.4414 300.009)" fill="black" fill-opacity="0.07"/>
<rect x="66.7178" y="280.417" width="9.01564" height="9.01564" rx="2.70469" transform="rotate(-32.9076 66.7178 280.417)" fill="black" fill-opacity="0.07"/>
<rect x="56.0337" y="330.286" width="9.01564" height="9.01564" rx="2.70469" transform="rotate(-32.9076 56.0337 330.286)" fill="black" fill-opacity="0.07"/>
<rect x="86.3101" y="310.693" width="9.01564" height="9.01564" rx="2.70469" transform="rotate(-32.9076 86.3101 310.693)" fill="black" fill-opacity="0.07"/>
<rect x="283.382" y="352.246" width="127.197" height="23.9173" rx="2.1743" transform="rotate(-32.9076 283.382 352.246)" fill="#ECECEC"/>
<rect x="85.1035" y="364.012" width="102.192" height="23.9173" rx="2.1743" transform="rotate(-32.9076 85.1035 364.012)" fill="#ECECEC"/>
<rect x="399.99" y="160.244" width="102.192" height="23.9173" rx="2.1743" transform="rotate(-32.9076 399.99 160.244)" fill="#ECECEC"/>
<rect x="367.612" y="80.1927" width="85.8848" height="13.0458" rx="2.1743" transform="rotate(-32.9076 367.612 80.1927)" fill="#ECECEC"/>
<rect x="194.196" y="192.413" width="184.816" height="13.0458" rx="2.1743" transform="rotate(-32.9076 194.196 192.413)" fill="#ECECEC"/>
<rect x="154.531" y="491.31" width="488.13" height="29.3531" rx="2.1743" transform="rotate(-32.9076 154.531 491.31)" fill="#ECECEC"/>
<rect x="174.612" y="522.342" width="296.792" height="19.5687" rx="2.1743" transform="rotate(-32.9076 174.612 522.342)" fill="#ECECEC"/>
<rect x="207.901" y="535.763" width="157.637" height="19.5687" rx="2.1743" transform="rotate(-32.9076 207.901 535.763)" fill="#ECECEC"/>
<rect x="223.848" y="560.406" width="157.637" height="19.5687" rx="2.1743" transform="rotate(-32.9076 223.848 560.406)" fill="#ECECEC"/>
<rect x="239.795" y="585.05" width="157.637" height="19.5687" rx="2.1743" transform="rotate(-32.9076 239.795 585.05)" fill="#ECECEC"/>
<rect x="279.476" y="682.389" width="304.402" height="19.5687" rx="2.1743" transform="rotate(-32.9076 279.476 682.389)" fill="#ECECEC"/>
<rect x="252.307" y="640.404" width="488.13" height="19.5687" rx="2.1743" transform="rotate(-32.9076 252.307 640.404)" fill="#ECECEC"/>
<rect x="265.892" y="661.397" width="241.347" height="19.5687" rx="2.1743" transform="rotate(-32.9076 265.892 661.397)" fill="#ECECEC"/>
</g>
<rect x="0.909978" y="292.397" width="535.529" height="758.216" rx="13.6822" transform="rotate(-32.9076 0.909978 292.397)" stroke="#3A2210" stroke-opacity="0.15" stroke-width="0.901564"/>
</g>
<defs>
<clipPath id="clip0_400_9298">
<rect x="0.286621" y="292.264" width="536.431" height="759.117" rx="14.133" transform="rotate(-32.9076 0.286621 292.264)" fill="white"/>
</clipPath>
</defs>
</svg>
