<svg width="18" height="18" viewBox="0 0 18 18" fill="none" xmlns="http://www.w3.org/2000/svg">
<g clip-path="url(#clip0_305_7377)">
<path d="M9 18C13.9706 18 18 13.9706 18 9C18 4.02944 13.9706 0 9 0C4.02944 0 0 4.02944 0 9C0 13.9706 4.02944 18 9 18Z" fill="#FFFBFB"/>
<path d="M8.21711 9C8.21711 9 2.64102 15.3652 2.63574 15.3639C4.26439 16.9926 6.51443 18 8.99973 18C13.9703 18 17.9997 13.9705 17.9997 9H8.21711Z" fill="#D80027"/>
<path d="M2.63603 2.63574C-0.878678 6.15045 -0.878678 11.849 2.63603 15.3637C4.08844 13.9113 5.48531 12.5144 9.00002 8.99973L2.63603 2.63574Z" fill="#0052B4"/>
</g>
<rect x="0.5" y="0.5" width="17" height="17" rx="8.5" stroke="black" stroke-opacity="0.08"/>
<defs>
<clipPath id="clip0_305_7377">
<rect width="18" height="18" rx="9" fill="white"/>
</clipPath>
</defs>
</svg>
