<svg width="18" height="18" viewBox="0 0 18 18" fill="none" xmlns="http://www.w3.org/2000/svg">
<g clip-path="url(#clip0_306_7409)">
<path d="M0.55957 12.1302C1.83121 15.5574 5.13009 17.9998 8.99978 17.9998C12.8695 17.9998 16.1683 15.5574 17.44 12.1302L8.99978 11.3477L0.55957 12.1302Z" fill="#FFDA44"/>
<path d="M8.99978 0C5.13009 0 1.83121 2.44237 0.55957 5.86958L8.99978 6.65216L17.44 5.86955C16.1683 2.44237 12.8695 0 8.99978 0Z" fill="black"/>
<path d="M0.559793 5.86914C0.198035 6.84413 0 7.89868 0 8.99956C0 10.1004 0.198035 11.155 0.559793 12.13H17.4402C17.802 11.155 18 10.1004 18 8.99956C18 7.89868 17.802 6.84413 17.4402 5.86914H0.559793Z" fill="#D80027"/>
</g>
<rect x="0.5" y="0.5" width="17" height="17" rx="8.5" stroke="black" stroke-opacity="0.08"/>
<defs>
<clipPath id="clip0_306_7409">
<rect width="18" height="18" rx="9" fill="white"/>
</clipPath>
</defs>
</svg>
