<svg width="25" height="24" viewBox="0 0 25 24" fill="none" xmlns="http://www.w3.org/2000/svg">
<path d="M12.5001 21.8182C7.07763 21.8182 2.68188 17.4224 2.68188 12C2.68188 6.57757 7.07763 2.18182 12.5001 2.18182C17.9225 2.18182 22.3182 6.57757 22.3182 12M3.24247 15.2727H5.95461C7.1596 15.2727 8.13643 14.2959 8.13643 13.0909V10.9091C8.13643 9.70411 9.11326 8.72728 10.3182 8.72728H12.5001C13.7051 8.72728 14.6819 7.75045 14.6819 6.54546V2.42693M21.65 17.8843L19.7586 18.6792C19.4987 18.7884 19.2919 18.9951 19.1826 19.255L18.3852 21.1503C18.2063 21.5755 17.7793 21.8422 17.3187 21.8164C16.8581 21.7906 16.4635 21.4779 16.3332 21.0353L14.7277 15.5822C14.615 15.1992 14.7205 14.7852 15.0028 14.5029C15.2851 14.2205 15.6991 14.115 16.0821 14.2276L21.5352 15.8321C21.9778 15.9624 22.2906 16.3571 22.3164 16.8177C22.3421 17.2784 22.0753 17.7055 21.65 17.8843Z" stroke="#9F9FB5" stroke-width="1.5" stroke-linecap="round" stroke-linejoin="round"/>
</svg>
