<svg width="18" height="18" viewBox="0 0 18 18" fill="none" xmlns="http://www.w3.org/2000/svg">
<g clip-path="url(#clip0_305_7347)">
<path d="M0.559793 5.86953C0.198035 6.84455 0 7.89906 0 8.99995C0 10.1008 0.198035 11.1554 0.559793 12.1304L9 12.913L17.4402 12.1304C17.802 11.1554 18 10.1008 18 8.99995C18 7.89906 17.802 6.84455 17.4402 5.86953L9 5.08691L0.559793 5.86953Z" fill="#FFFBFB"/>
<path d="M8.99974 0C5.13009 0 1.83117 2.44237 0.55957 5.86958H17.44C16.1683 2.44237 12.8695 0 8.99974 0Z" fill="#D80027"/>
<path d="M8.99974 18.0004C12.8695 18.0004 16.1683 15.5581 17.44 12.1309H0.55957C1.83117 15.5581 5.13009 18.0004 8.99974 18.0004Z" fill="#6DA544"/>
</g>
<rect x="0.5" y="0.5" width="17" height="17" rx="8.5" stroke="black" stroke-opacity="0.08"/>
<defs>
<clipPath id="clip0_305_7347">
<rect width="18" height="18" rx="9" fill="white"/>
</clipPath>
</defs>
</svg>
