<svg width="18" height="18" viewBox="0 0 18 18" fill="none" xmlns="http://www.w3.org/2000/svg">
<g clip-path="url(#clip0_305_7352)">
<path d="M9 18C13.9706 18 18 13.9706 18 9C18 4.02944 13.9706 0 9 0C4.02944 0 0 4.02944 0 9C0 13.9706 4.02944 18 9 18Z" fill="#D80027"/>
<path d="M13.4015 9.00044L11.6031 9.84637L12.5608 11.5883L10.6078 11.2146L10.3604 13.1874L9.00005 11.7365L7.63979 13.1874L7.39232 11.2146L5.43947 11.5882L6.39712 9.8463L4.59863 9.00044L6.39712 8.15455L5.43947 6.41263L7.39225 6.78634L7.63986 4.81348L9.00005 6.26441L10.3605 4.81348L10.6078 6.78634L12.5609 6.41263L11.6032 8.15466L13.4015 9.00044Z" fill="#FFDA44"/>
<path d="M8.99987 11.739C10.5127 11.739 11.739 10.5127 11.739 8.99987C11.739 7.48709 10.5127 6.26074 8.99987 6.26074C7.48709 6.26074 6.26074 7.48709 6.26074 8.99987C6.26074 10.5127 7.48709 11.739 8.99987 11.739Z" fill="#D80027"/>
<path d="M7.63 9C7.56402 9 7.49887 9.00338 7.43457 9.00977C7.43693 9.38915 7.57418 9.73638 7.80086 10.0061C7.9218 9.68069 8.10236 9.38394 8.33007 9.12997C8.11259 9.04634 7.87666 9 7.63 9Z" fill="#FFDA44"/>
<path d="M8.47266 10.4737C8.63719 10.5325 8.81434 10.5647 8.99912 10.5647C9.1839 10.5647 9.36106 10.5325 9.52559 10.4737C9.4359 10.1217 9.25073 9.80748 8.99912 9.56055C8.74751 9.80745 8.56234 10.1217 8.47266 10.4737Z" fill="#FFDA44"/>
<path d="M10.3554 8.21743C10.0848 7.74964 9.57936 7.43457 8.99998 7.43457C8.42061 7.43457 7.91516 7.74961 7.64453 8.21743C8.13791 8.21993 8.60057 8.35408 8.99998 8.58573C9.39939 8.35408 9.86198 8.21993 10.3554 8.21743Z" fill="#FFDA44"/>
<path d="M9.66895 9.12997C9.89665 9.38391 10.0772 9.68066 10.1982 10.0061C10.4248 9.73638 10.5621 9.38914 10.5644 9.00977C10.5001 9.00334 10.435 9 10.369 9C10.1224 8.99996 9.88649 9.0463 9.66895 9.12997Z" fill="#FFDA44"/>
</g>
<rect x="0.5" y="0.5" width="17" height="17" rx="8.5" stroke="black" stroke-opacity="0.08"/>
<defs>
<clipPath id="clip0_305_7352">
<rect width="18" height="18" rx="9" fill="white"/>
</clipPath>
</defs>
</svg>
