<svg width="18" height="18" viewBox="0 0 18 18" fill="none" xmlns="http://www.w3.org/2000/svg">
<g clip-path="url(#clip0_306_7398)">
<path d="M9 18C13.9706 18 18 13.9706 18 9C18 4.02944 13.9706 0 9 0C4.02944 0 0 4.02944 0 9C0 13.9706 4.02944 18 9 18Z" fill="#FFFBFB"/>
<path d="M9 0C4.02947 0 0 4.02947 0 9C0 10.1009 0.198035 11.1555 0.559793 12.1304H17.4402C17.802 11.1555 18 10.1009 18 9C18 4.02947 13.9705 0 9 0Z" fill="#0052B4"/>
<path d="M8.99978 0C5.13009 0 1.83121 2.44237 0.55957 5.86958H17.44C16.1683 2.44237 12.8695 0 8.99978 0Z" fill="#D80027"/>
<path d="M2.32715 5.08691V9.57658C2.32715 12.1305 5.66351 12.913 5.66351 12.913C5.66351 12.913 8.99984 12.1305 8.99984 9.57658V5.08691H2.32715Z" fill="#D80027"/>
<path d="M3.70801 5.86932H7.62107V4.3041L6.83846 4.69539L5.66456 3.52148L4.49062 4.69539L3.70801 4.3041V5.86932Z" fill="#FFDA44"/>
<path d="M8.21783 10.2017L5.67434 7.6582L3.13086 10.2017L3.96093 11.0318L5.67434 9.31835L7.38775 11.0318L8.21783 10.2017Z" fill="#FFDA44"/>
<path d="M8.21783 7.82618H7.03109C7.09782 7.711 7.13663 7.57762 7.13663 7.43496C7.13663 7.00268 6.78623 6.65234 6.35402 6.65234C6.05537 6.65234 5.79602 6.81962 5.66408 7.06554C5.53214 6.81965 5.27279 6.65234 4.97414 6.65234C4.54193 6.65234 4.19152 7.00268 4.19152 7.43496C4.19152 7.57762 4.23034 7.71104 4.29706 7.82618H3.13086C3.13086 8.25842 3.50735 8.60879 3.93952 8.60879H3.91347C3.91347 9.04103 4.26384 9.3914 4.69609 9.3914C4.69609 9.77411 4.97094 10.0921 5.33393 10.1601L4.71729 11.5524C5.01281 11.6725 5.33575 11.7392 5.67438 11.7392C6.013 11.7392 6.33595 11.6725 6.63147 11.5524L6.01483 10.1601C6.37782 10.0921 6.65267 9.77415 6.65267 9.3914C7.08492 9.3914 7.43529 9.04103 7.43529 8.60879H7.40923C7.84137 8.60879 8.21783 8.25839 8.21783 7.82618Z" fill="#F0F0F0"/>
</g>
<rect x="0.5" y="0.5" width="17" height="17" rx="8.5" stroke="black" stroke-opacity="0.08"/>
<defs>
<clipPath id="clip0_306_7398">
<rect width="18" height="18" rx="9" fill="white"/>
</clipPath>
</defs>
</svg>
