<svg width="18" height="18" viewBox="0 0 18 18" fill="none" xmlns="http://www.w3.org/2000/svg">
<g clip-path="url(#clip0_308_8817)">
<path d="M9 18C13.9706 18 18 13.9706 18 9C18 4.02944 13.9706 0 9 0C4.02944 0 0 4.02944 0 9C0 13.9706 4.02944 18 9 18Z" fill="#FFFBFB"/>
<path d="M9 17.9996C13.9705 17.9996 18 13.9701 18 8.99956C18 7.89868 17.802 6.84409 17.4402 5.86914H0.559793C0.198035 6.84409 0 7.89868 0 8.99956C0 13.9701 4.02947 17.9996 9 17.9996Z" fill="#0052B4"/>
<path d="M8.99978 18.0004C12.8695 18.0004 16.1683 15.5581 17.44 12.1309H0.55957C1.83121 15.5581 5.13009 18.0004 8.99978 18.0004Z" fill="#D80027"/>
<path d="M2.32715 5.08691V9.57658C2.32715 12.1305 5.66351 12.913 5.66351 12.913C5.66351 12.913 8.99984 12.1305 8.99984 9.57658V5.08691H2.32715Z" fill="#F0F0F0"/>
<path d="M3.11035 5.08691V9.57658C3.11035 9.87639 3.17694 10.1595 3.30884 10.425H8.01932C8.15123 10.1596 8.21782 9.87639 8.21782 9.57658V5.08691H3.11035Z" fill="#D80027"/>
<path d="M7.22905 8.21695H6.05518V7.43433H6.8378V6.65172H6.05518V5.86914H5.27257V6.65172H4.48999V7.43433H5.27257V8.21695H4.09863V8.99956H5.27257V9.78217H6.05518V8.99956H7.22905V8.21695Z" fill="#F0F0F0"/>
<path d="M4.37604 11.5178C4.88036 11.8347 5.39849 12.0188 5.66375 12.1006C5.929 12.0188 6.44713 11.8347 6.95145 11.5178C7.46002 11.1982 7.81654 10.8326 8.01897 10.4253C7.79569 10.2674 7.52327 10.1742 7.22897 10.1742C7.12182 10.1742 7.01772 10.1869 6.91763 10.2102C6.70553 9.72829 6.22407 9.3916 5.66378 9.3916C5.1035 9.3916 4.622 9.72829 4.40993 10.2102C4.30984 10.1869 4.20571 10.1742 4.09859 10.1742C3.8043 10.1742 3.53187 10.2674 3.30859 10.4253C3.51092 10.8326 3.86744 11.1981 4.37604 11.5178Z" fill="#0052B4"/>
</g>
<rect x="0.5" y="0.5" width="17" height="17" rx="8.5" stroke="black" stroke-opacity="0.08"/>
<defs>
<clipPath id="clip0_308_8817">
<rect width="18" height="18" rx="9" fill="white"/>
</clipPath>
</defs>
</svg>
