<svg width="25" height="24" viewBox="0 0 25 24" fill="none" xmlns="http://www.w3.org/2000/svg">
<g clip-path="url(#clip0_2003_10295)">
<path d="M12.3334 24C5.70596 24 0.333374 18.6274 0.333374 12C0.333374 5.37258 5.70596 -2.89694e-07 12.3334 0C18.9608 2.89694e-07 24.3334 5.37258 24.3334 12C24.3334 18.6274 18.9608 24 12.3334 24Z" fill="#FFDB44"/>
<path d="M23.5778 7.8C21.8754 3.244 17.4832 2.25106e-07 12.3334 0C7.18354 -2.25106e-07 2.79139 3.244 1.0889 7.8L23.5778 7.8Z" fill="#D90026"/>
<path d="M1.0889 16.2C2.79139 20.756 7.18354 24 12.3334 24C17.4832 24 21.8754 20.756 23.5778 16.2L1.0889 16.2Z" fill="#D90026"/>
</g>
<rect x="0.833374" y="0.5" width="23" height="23" rx="11.5" stroke="black" stroke-opacity="0.08"/>
<defs>
<clipPath id="clip0_2003_10295">
<rect x="0.333374" width="24" height="24" rx="12" fill="white"/>
</clipPath>
</defs>
</svg>
