<svg width="18" height="18" viewBox="0 0 18 18" fill="none" xmlns="http://www.w3.org/2000/svg">
<g clip-path="url(#clip0_305_7362)">
<path d="M9 18C13.9706 18 18 13.9706 18 9C18 4.02944 13.9706 0 9 0C4.02944 0 0 4.02944 0 9C0 13.9706 4.02944 18 9 18Z" fill="#D80027"/>
<path d="M8.63227 7.35352L9.37072 8.37111L10.5666 7.98334L9.82702 9.00006L10.5654 10.0176L9.36988 9.62837L8.6303 10.6451L8.63107 9.38787L7.43555 8.99862L8.63149 8.61084L8.63227 7.35352Z" fill="#F0F0F0"/>
<path d="M6.61649 11.5431C5.21179 11.5431 4.073 10.4043 4.073 8.99959C4.073 7.59489 5.21179 6.45611 6.61649 6.45611C7.05446 6.45611 7.46657 6.56689 7.82636 6.76183C7.26192 6.20981 6.49 5.86914 5.63823 5.86914C3.90932 5.86914 2.50781 7.27068 2.50781 8.99956C2.50781 10.7284 3.90935 12.13 5.63823 12.13C6.49007 12.13 7.26196 11.7893 7.82636 11.2373C7.46657 11.4323 7.05446 11.5431 6.61649 11.5431Z" fill="#F0F0F0"/>
</g>
<rect x="0.5" y="0.5" width="17" height="17" rx="8.5" stroke="black" stroke-opacity="0.08"/>
<defs>
<clipPath id="clip0_305_7362">
<rect width="18" height="18" rx="9" fill="white"/>
</clipPath>
</defs>
</svg>
