<svg width="27" height="26" viewBox="0 0 27 26" fill="none" xmlns="http://www.w3.org/2000/svg">
<path fill-rule="evenodd" clip-rule="evenodd" d="M13.6667 17.2741C12.2195 16.32 11.3486 14.7025 11.3486 12.9691C11.3486 11.2357 12.2195 9.61824 13.6667 8.66406C15.1139 9.61824 15.9848 11.2357 15.9848 12.9691C15.9848 14.7025 15.1139 16.32 13.6667 17.2741Z" stroke="#1E9E42" stroke-width="1.5" stroke-linecap="round" stroke-linejoin="round"/>
<path d="M15.8483 11.8516C16.979 11.2207 18.2883 10.9867 19.5675 11.1868C19.9107 12.8503 19.4098 14.5759 18.2292 15.7971C17.0486 17.0182 15.3408 17.5771 13.6667 17.2901C11.9926 17.5771 10.2849 17.0182 9.10428 15.7971C7.92368 14.576 7.42274 12.8503 7.76598 11.1869C9.04515 10.9868 10.3545 11.2208 11.4851 11.8516" stroke="#1E9E42" stroke-width="1.5" stroke-linecap="round" stroke-linejoin="round"/>
<circle cx="13.6667" cy="13.0002" r="9.75406" stroke="#1E9E42" stroke-width="1.5" stroke-linecap="round" stroke-linejoin="round"/>
</svg>
