<svg width="272" height="30" viewBox="0 0 272 30" fill="none" xmlns="http://www.w3.org/2000/svg">
<path d="M15.5 16.8379C12.5892 17.2387 10.5 18.3146 10.5 19.5837C10.5 21.1946 13.8575 22.5004 18 22.5004C22.1425 22.5004 25.5 21.1946 25.5 19.5837C25.5 18.3146 23.4108 17.2387 20.5 16.8379" stroke="#9194A2" stroke-width="1.5" stroke-linecap="round" stroke-linejoin="round"/>
<path d="M18 19.1667V12.5" stroke="#9194A2" stroke-width="1.5" stroke-linecap="round" stroke-linejoin="round"/>
<path d="M19.7678 8.23223C20.7441 9.20854 20.7441 10.7915 19.7678 11.7678C18.7915 12.7441 17.2085 12.7441 16.2322 11.7678C15.2559 10.7915 15.2559 9.20854 16.2322 8.23223C17.2085 7.25592 18.7915 7.25592 19.7678 8.23223" stroke="#9194A2" stroke-width="1.5" stroke-linecap="round" stroke-linejoin="round"/>
<path d="M43.726 21L40.504 8.4H42.061L44.599 18.345L47.128 8.4H48.487L51.025 18.345L53.554 8.4H55.111L51.907 21H50.143L47.812 11.874L45.481 21H43.726ZM62.5283 12H64.0403V21H62.5283L62.4653 19.479C62.1833 20.001 61.7933 20.424 61.2953 20.748C60.8033 21.072 60.2153 21.234 59.5313 21.234C58.8713 21.234 58.2533 21.111 57.6773 20.865C57.1013 20.613 56.5913 20.268 56.1473 19.83C55.7093 19.386 55.3673 18.876 55.1213 18.3C54.8753 17.724 54.7523 17.103 54.7523 16.437C54.7523 15.795 54.8723 15.189 55.1123 14.619C55.3523 14.049 55.6853 13.551 56.1113 13.125C56.5433 12.693 57.0413 12.357 57.6053 12.117C58.1693 11.871 58.7753 11.748 59.4233 11.748C60.1313 11.748 60.7523 11.916 61.2863 12.252C61.8203 12.582 62.2523 13.011 62.5823 13.539L62.5283 12ZM59.5043 19.767C60.0983 19.767 60.6113 19.623 61.0433 19.335C61.4813 19.041 61.8173 18.645 62.0513 18.147C62.2913 17.649 62.4113 17.1 62.4113 16.5C62.4113 15.888 62.2913 15.336 62.0513 14.844C61.8113 14.346 61.4723 13.953 61.0343 13.665C60.6023 13.371 60.0923 13.224 59.5043 13.224C58.9103 13.224 58.3703 13.371 57.8843 13.665C57.3983 13.959 57.0113 14.355 56.7233 14.853C56.4413 15.345 56.3003 15.894 56.3003 16.5C56.3003 17.106 56.4473 17.658 56.7413 18.156C57.0353 18.648 57.4253 19.041 57.9113 19.335C58.3973 19.623 58.9283 19.767 59.5043 19.767ZM65.4791 21V12H66.9911V13.125C67.3091 12.705 67.7111 12.372 68.1971 12.126C68.6831 11.874 69.2111 11.748 69.7811 11.748C70.1291 11.748 70.4651 11.793 70.7891 11.883L70.1771 13.395C69.9311 13.317 69.6911 13.278 69.4571 13.278C69.0071 13.278 68.5931 13.389 68.2151 13.611C67.8431 13.827 67.5461 14.121 67.3241 14.493C67.1021 14.865 66.9911 15.279 66.9911 15.735V21H65.4791ZM74.2802 21.171C73.7942 21.153 73.3202 21.063 72.8582 20.901C72.4022 20.733 72.0002 20.508 71.6522 20.226C71.3102 19.938 71.0612 19.608 70.9052 19.236L72.2012 18.678C72.2912 18.882 72.4532 19.074 72.6872 19.254C72.9212 19.434 73.1912 19.578 73.4972 19.686C73.8032 19.794 74.1122 19.848 74.4242 19.848C74.7542 19.848 75.0632 19.797 75.3512 19.695C75.6392 19.593 75.8732 19.443 76.0532 19.245C76.2392 19.041 76.3322 18.798 76.3322 18.516C76.3322 18.216 76.2302 17.982 76.0262 17.814C75.8282 17.64 75.5762 17.505 75.2702 17.409C74.9702 17.307 74.6642 17.211 74.3522 17.121C73.7342 16.965 73.1822 16.779 72.6962 16.563C72.2102 16.341 71.8262 16.062 71.5442 15.726C71.2682 15.384 71.1302 14.949 71.1302 14.421C71.1302 13.863 71.2832 13.38 71.5892 12.972C71.9012 12.564 72.3092 12.249 72.8132 12.027C73.3172 11.805 73.8572 11.694 74.4332 11.694C75.1592 11.694 75.8222 11.85 76.4222 12.162C77.0222 12.474 77.4692 12.897 77.7632 13.431L76.5482 14.142C76.4462 13.926 76.2902 13.737 76.0802 13.575C75.8702 13.407 75.6302 13.275 75.3602 13.179C75.0902 13.083 74.8142 13.032 74.5322 13.026C74.1842 13.014 73.8572 13.059 73.5512 13.161C73.2512 13.263 73.0082 13.419 72.8222 13.629C72.6422 13.833 72.5522 14.088 72.5522 14.394C72.5522 14.694 72.6482 14.922 72.8402 15.078C73.0382 15.234 73.2932 15.36 73.6052 15.456C73.9232 15.546 74.2682 15.651 74.6402 15.771C75.1862 15.945 75.6962 16.146 76.1702 16.374C76.6442 16.602 77.0252 16.887 77.3132 17.229C77.6072 17.571 77.7512 17.994 77.7452 18.498C77.7452 19.05 77.5802 19.533 77.2502 19.947C76.9202 20.355 76.4912 20.667 75.9632 20.883C75.4412 21.099 74.8802 21.195 74.2802 21.171ZM86.0752 12H87.5872V21H86.0752L86.0122 19.479C85.7302 20.001 85.3402 20.424 84.8422 20.748C84.3502 21.072 83.7622 21.234 83.0782 21.234C82.4182 21.234 81.8002 21.111 81.2242 20.865C80.6482 20.613 80.1382 20.268 79.6942 19.83C79.2562 19.386 78.9142 18.876 78.6682 18.3C78.4222 17.724 78.2992 17.103 78.2992 16.437C78.2992 15.795 78.4192 15.189 78.6592 14.619C78.8992 14.049 79.2322 13.551 79.6582 13.125C80.0902 12.693 80.5882 12.357 81.1522 12.117C81.7162 11.871 82.3222 11.748 82.9702 11.748C83.6782 11.748 84.2992 11.916 84.8332 12.252C85.3672 12.582 85.7992 13.011 86.1292 13.539L86.0752 12ZM83.0512 19.767C83.6452 19.767 84.1582 19.623 84.5902 19.335C85.0282 19.041 85.3642 18.645 85.5982 18.147C85.8382 17.649 85.9582 17.1 85.9582 16.5C85.9582 15.888 85.8382 15.336 85.5982 14.844C85.3582 14.346 85.0192 13.953 84.5812 13.665C84.1492 13.371 83.6392 13.224 83.0512 13.224C82.4572 13.224 81.9172 13.371 81.4312 13.665C80.9452 13.959 80.5582 14.355 80.2702 14.853C79.9882 15.345 79.8472 15.894 79.8472 16.5C79.8472 17.106 79.9942 17.658 80.2882 18.156C80.5822 18.648 80.9722 19.041 81.4582 19.335C81.9442 19.623 82.4752 19.767 83.0512 19.767ZM92.785 21H91.255L88.24 12H89.716L92.038 18.867L94.333 12H95.89L98.194 18.867L100.489 12H101.983L98.968 21H97.429L95.098 14.07L92.785 21Z" fill="#0E0E14"/>
</svg>
