<svg width="26" height="26" viewBox="0 0 26 26" fill="none" xmlns="http://www.w3.org/2000/svg">
<path d="M3.24997 13.0003H7.76964C9.4618 13.0003 10.8333 11.6288 10.8333 9.9366V9.9366C10.8333 9.1241 10.5105 8.3441 9.9363 7.76993L7.27672 5.11035" stroke="#E543FE" stroke-width="1.5" stroke-linecap="round" stroke-linejoin="round"/>
<path d="M19.8163 19.9745L17.8912 17.0874C17.5424 16.5642 16.9563 16.25 16.328 16.25V16.25C15.6162 16.25 14.9662 15.8481 14.6477 15.2111L14.5036 14.9229C14.2393 14.3943 14.2393 13.7713 14.5036 13.2427L15.7311 10.7878C16.0485 10.1519 16.6996 9.75 17.4113 9.75H22.1866" stroke="#E543FE" stroke-width="1.5" stroke-linecap="round" stroke-linejoin="round"/>
<path d="M13 3.25C18.3971 3.25 22.75 7.60283 22.75 13C22.75 18.3972 18.3971 22.75 13 22.75" stroke="#E543FE" stroke-width="1.5" stroke-linecap="round" stroke-linejoin="round"/>
<path d="M13 22.75C7.6028 22.75 3.24997 18.3972 3.24997 13C3.24997 7.60283 7.6028 3.25 13 3.25" stroke="#E543FE" stroke-width="1.5" stroke-linecap="round" stroke-linejoin="round"/>
</svg>
