<svg width="28" height="28" viewBox="0 0 28 28" fill="none" xmlns="http://www.w3.org/2000/svg">
<path d="M4.66278 12.833V24.5045" stroke="#812DFF" stroke-width="1.5" stroke-linecap="round" stroke-linejoin="round"/>
<path fill-rule="evenodd" clip-rule="evenodd" d="M11.6657 3.49585H16.3343C17.6235 3.49585 18.6686 4.54095 18.6686 5.83016V12.8331H9.33139V5.83016C9.33139 4.54095 10.3765 3.49585 11.6657 3.49585Z" stroke="#812DFF" stroke-width="1.5" stroke-linecap="round" stroke-linejoin="round"/>
<path fill-rule="evenodd" clip-rule="evenodd" d="M9.33139 16.3345H18.6686C19.3132 16.3345 19.8358 16.857 19.8358 17.5016V18.0852C19.8358 19.0521 19.0519 19.8359 18.085 19.8359H9.91497C8.94807 19.8359 8.16424 19.0521 8.16424 18.0852V17.5016C8.16424 16.857 8.68679 16.3345 9.33139 16.3345Z" stroke="#812DFF" stroke-width="1.5" stroke-linecap="round" stroke-linejoin="round"/>
<path d="M14 19.8359V24.5045" stroke="#812DFF" stroke-width="1.5" stroke-linecap="round" stroke-linejoin="round"/>
<path d="M17.5015 24.5045H10.4985" stroke="#812DFF" stroke-width="1.5" stroke-linecap="round" stroke-linejoin="round"/>
<path d="M25.6715 12.8328H2.32847" stroke="#812DFF" stroke-width="1.5" stroke-linecap="round" stroke-linejoin="round"/>
<path d="M23.3372 24.5045V12.833" stroke="#812DFF" stroke-width="1.5" stroke-linecap="round" stroke-linejoin="round"/>
</svg>
