<svg width="27" height="26" viewBox="0 0 27 26" fill="none" xmlns="http://www.w3.org/2000/svg">
<circle cx="13.3333" cy="11.3753" r="2.70833" stroke="#FEB200" stroke-width="1.5" stroke-linecap="round" stroke-linejoin="round"/>
<path fill-rule="evenodd" clip-rule="evenodd" d="M22 13.5646C22 17.6539 16.9681 20.6916 14.5685 21.9113C13.7943 22.3071 12.8772 22.3079 12.1023 21.9134C9.70432 20.6949 4.66669 17.6498 4.66669 13.5646V7.65881C4.67465 7.10539 5.09377 6.64466 5.64396 6.58449C7.9427 6.40981 10.1466 5.59478 12.0058 4.23175C12.7937 3.64541 13.8729 3.64541 14.6608 4.23175C16.5201 5.59478 18.724 6.40981 21.0227 6.58449C21.5729 6.64464 21.9921 7.10538 22 7.65881V13.5646Z" stroke="#FEB200" stroke-width="1.5" stroke-linecap="round" stroke-linejoin="round"/>
<path d="M18.6425 19.2852L18.1445 18.2892C17.6857 17.3716 16.7479 16.792 15.722 16.792H10.9447C9.91886 16.792 8.98105 17.3716 8.52229 18.2892L8.02679 19.2801" stroke="#FEB200" stroke-width="1.5" stroke-linecap="round" stroke-linejoin="round"/>
</svg>
