<svg width="29" height="28" viewBox="0 0 29 28" fill="none" xmlns="http://www.w3.org/2000/svg">
<path fill-rule="evenodd" clip-rule="evenodd" d="M23.6662 15.191C23.6662 19.5948 18.2472 22.8662 15.663 24.1797C14.8292 24.606 13.8416 24.6069 13.0071 24.1821C10.4247 22.8698 4.99951 19.5904 4.99951 15.191V8.8309C5.00809 8.23491 5.45945 7.73874 6.05196 7.67394C8.52753 7.48582 10.9009 6.6081 12.9032 5.14022C13.7517 4.50876 14.914 4.50876 15.7624 5.14022C17.7647 6.6081 20.1381 7.48582 22.6137 7.67394C23.2062 7.73872 23.6576 8.2349 23.6662 8.8309V15.191Z" stroke="#3956F7" stroke-width="1.5" stroke-linecap="round" stroke-linejoin="round"/>
<path d="M16.1996 13.4167L13.8675 15.75L12.4663 14.35" stroke="#3956F7" stroke-width="1.5" stroke-linecap="round" stroke-linejoin="round"/>
</svg>
