<svg width="20" height="20" viewBox="0 0 20 20" fill="none" xmlns="http://www.w3.org/2000/svg">
<path d="M9.99933 6.66659C9.88433 6.66659 9.791 6.75992 9.79183 6.87492C9.79183 6.98992 9.88517 7.08325 10.0002 7.08325C10.1152 7.08325 10.2085 6.98992 10.2085 6.87492C10.2085 6.75992 10.1152 6.66659 9.99933 6.66659" stroke="#5757D7" stroke-width="1.5" stroke-linecap="round" stroke-linejoin="round"/>
<path fill-rule="evenodd" clip-rule="evenodd" d="M10 17.5V17.5C5.8575 17.5 2.5 14.1425 2.5 10V10C2.5 5.8575 5.8575 2.5 10 2.5V2.5C14.1425 2.5 17.5 5.8575 17.5 10V10C17.5 14.1425 14.1425 17.5 10 17.5Z" stroke="#5757D7" stroke-width="1.5" stroke-linecap="round" stroke-linejoin="round"/>
<path d="M10.0002 10V14.1667" stroke="#5757D7" stroke-width="1.5" stroke-linecap="round" stroke-linejoin="round"/>
</svg>
