<svg width="29" height="28" viewBox="0 0 29 28" fill="none" xmlns="http://www.w3.org/2000/svg">
<path d="M1.83398 24.5V24.5C1.83398 22.1678 3.72398 20.2778 6.05615 20.2778H10.2783C12.6105 20.2778 14.5005 22.1678 14.5005 24.5V24.5" stroke="#1E9E42" stroke-width="1.5" stroke-linecap="round" stroke-linejoin="round"/>
<path d="M10.7801 10.804C12.223 12.2469 12.223 14.5863 10.7801 16.0293C9.3372 17.4722 6.99777 17.4722 5.55485 16.0293C4.11193 14.5863 4.11193 12.2469 5.55485 10.804C6.99777 9.36107 9.3372 9.36107 10.7801 10.804" stroke="#1E9E42" stroke-width="1.5" stroke-linecap="round" stroke-linejoin="round"/>
<path d="M21.779 16.1094C24.9383 16.1094 27.5003 13.5474 27.5003 10.388C27.5003 7.22869 24.9395 4.66669 21.779 4.66669C18.6185 4.66669 16.0576 7.22869 16.0576 10.388" stroke="#1E9E42" stroke-width="1.5" stroke-linecap="round" stroke-linejoin="round"/>
<path d="M21.7847 16.1152C20.9237 16.1152 20.1082 15.925 19.3755 15.5855L15.8545 16.3333L16.5907 12.8053C16.2488 12.0703 16.0575 11.2513 16.0575 10.388" stroke="#1E9E42" stroke-width="1.5" stroke-linecap="round" stroke-linejoin="round"/>
<path d="M19.1158 10.4588C19.1386 10.4816 19.1386 10.5185 19.1158 10.5413C19.093 10.564 19.0561 10.564 19.0333 10.5413C19.0105 10.5185 19.0105 10.4816 19.0333 10.4588C19.0561 10.436 19.093 10.436 19.1158 10.4588" stroke="#1E9E42" stroke-width="1.5" stroke-linecap="round" stroke-linejoin="round"/>
<path d="M21.7408 10.4588C21.7636 10.4816 21.7636 10.5185 21.7408 10.5413C21.718 10.564 21.6811 10.564 21.6583 10.5413C21.6355 10.5185 21.6355 10.4816 21.6583 10.4588C21.6811 10.436 21.718 10.436 21.7408 10.4588" stroke="#1E9E42" stroke-width="1.5" stroke-linecap="round" stroke-linejoin="round"/>
<path d="M24.3658 10.4588C24.3886 10.4816 24.3886 10.5185 24.3658 10.5413C24.343 10.564 24.3061 10.564 24.2833 10.5413C24.2605 10.5185 24.2605 10.4816 24.2833 10.4588C24.3061 10.436 24.343 10.436 24.3658 10.4588" stroke="#1E9E42" stroke-width="1.5" stroke-linecap="round" stroke-linejoin="round"/>
</svg>
