<svg width="410" height="450" viewBox="0 0 410 450" fill="none" xmlns="http://www.w3.org/2000/svg">
<g clip-path="url(#clip0_4001_29355)">
<rect width="410" height="450" fill="white"/>
<path d="M159.537 -41.7581L161.585 -40.8811L175.327 -40.0037L189.069 -39.1266L211.291 -37.9569L234.389 -36.7871L258.365 -35.6174L284.388 -34.4477L311.873 -33.863L313.628 -34.4477L316.551 -37.3718L320.06 -37.0795L324.153 -35.3251L325.908 -34.1553L326.785 -32.6932L327.37 -30.9388L329.709 -30.6464L333.802 -29.1843L339.357 -26.2601L343.743 -23.336L347.837 -19.242L349.299 -14.5634V-9.29971L349.006 -5.79083L349.299 -4.32874L354.854 20.2345L364.21 43.9204L367.72 55.3248L369.182 61.4655L370.351 70.238L370.644 76.3788V79.888L370.058 84.5666L367.427 87.4908L349.591 95.386L346.375 97.7255L341.112 103.866L336.141 110.3L334.971 112.346L334.679 113.809L335.849 115.855L342.281 119.365L348.714 121.996L350.761 124.043L355.439 126.675L357.193 129.014L358.071 131.061V135.74L356.024 142.173L356.901 147.144L354.854 150.361L353.1 153.87L352.808 160.303L356.024 167.321L358.655 172L359.533 175.801L358.363 178.725L358.655 181.65L360.995 184.866L368.304 194.224L371.813 203.289L374.152 206.798L379.415 211.476L380 213.231L377.953 214.985L376.199 215.278L374.737 215.863L373.86 217.325L375.321 219.079L377.076 221.711L379.415 228.729L379.123 234.578L377.368 236.04L375.03 239.549L373.568 242.765L360.702 244.812L357.778 248.321L350.761 254.754L346.082 258.556L339.065 265.282L327.954 276.686L323.861 281.365L320.937 285.458L311.873 295.986L309.242 300.372L309.826 303.881L312.75 312.361L313.335 316.162L312.75 319.671L311.873 322.888L312.166 324.35L314.797 326.69L318.89 330.198L319.183 331.368L318.598 332.83L317.136 334L311.873 332.83L306.025 330.491L303.978 330.783L300.762 330.198L287.604 325.52L278.833 321.718L277.955 319.379L276.201 315.87L272.4 312.946L263.628 310.314L260.12 308.267L246.085 307.097H239.945L235.559 307.975H232.635L228.834 313.238L226.202 314.7L222.401 314.993L218.893 314.115L215.384 311.484L209.829 310.021L205.735 310.606L202.811 310.021L200.18 309.729L199.303 310.314H197.256L194.332 311.484L191.116 313.238L187.607 314.7L184.976 317.624L182.636 323.473L175.619 320.841L173.28 322.011L170.064 322.888L167.724 322.011L168.309 319.964L169.186 317.624V314.408L168.602 310.899L166.555 309.729L163.338 309.437L161.585 308.852L161.292 307.682L159.537 306.22L156.613 302.419L153.982 297.74L152.227 296.278L149.596 298.617L145.503 301.249L142.871 302.126L137.901 309.437L129.129 309.729L128.544 306.22L127.667 303.003L122.404 302.126L122.112 300.079L120.942 295.108L110.708 285.458L109.539 281.365L109.831 279.903L109.246 277.271L106.907 275.809L98.7206 274.054L96.6733 275.224L94.9194 274.054L91.9955 271.715L86.7323 269.96L86.1477 269.083L84.393 267.328L83.2237 267.036L82.6391 267.913L81.1772 269.375L75.914 271.13L73.8674 270.253L71.8201 268.79L69.4815 265.574L66.265 262.65L63.6337 261.48L62.1718 260.018L61.8791 258.848L67.7269 256.509L68.8962 253.877L68.0196 249.199L67.1423 248.613L64.803 250.076L59.8325 251.538L55.4467 252.123H53.1074L40.2425 243.935L31.7628 241.303L26.7923 240.426L26.2076 241.303L28.5469 245.982L32.3474 251.83L32.0554 253.292L27.3769 255.632L24.7457 256.509L21.5291 258.556L18.8979 261.188L16.5586 262.357L14.512 262.065L12.4654 260.895L7.20224 252.415L0.477122 245.982L-0.400192 244.52L-2.44678 244.227L-5.37069 242.765L-6.248 240.718L-4.78605 238.671L-2.73946 236.917L0.769798 235.747L1.93907 234.578L2.52371 232.823L3.98566 230.776L3.6937 229.899L1.06176 227.559L-2.73946 225.22L-13.2651 226.974L-16.189 228.144L-17.9436 226.682L-19.1129 224.343L-21.7448 223.758L-25.2534 221.711L-29.6392 219.664L-33.7324 219.079L-42.5041 216.155L-46.0127 215.863L-48.06 214.693L-50.1066 212.353L-51.8605 209.722L-52.7378 204.458L-59.1702 202.119L-65.6034 200.657L-66.188 201.534L-65.8954 206.798L-66.188 209.429L-70.5739 211.184L-74.6671 211.476L-74.3751 210.599L-69.4039 201.242L-67.0653 195.393L-64.4334 184.574L-67.65 176.094L-68.5273 172L-69.9892 169.953L-78.761 165.859L-79.3456 164.397L-77.8836 158.841L-78.4683 156.502L-80.5149 153.87L-83.4388 148.899L-84.6088 144.512L-81.0995 139.542L-80.2229 135.74L-78.761 130.769L-77.591 127.845L-77.299 126.967L-79.6376 124.921L-80.2229 121.996L-79.6376 117.902L-80.8076 114.978L-84.0234 112.931L-86.0707 110.3L-86.9473 107.083L-86.3627 102.112L-84.0234 95.386L-89.2866 87.1985L-101.86 77.5485L-108 70.8231L-107.415 67.0215L-104.783 63.5126L-99.8129 60.2957L-96.0117 54.7401L-93.9651 48.0143V46.8445V42.1659L-99.5203 22.574L-100.398 17.6027L-100.982 11.7543L-101.275 9.99986L-90.1639 14.0938L-85.4854 16.4329L-86.0707 13.8014L-86.9473 11.4619L-86.3627 8.24541L-86.6554 3.27408L-96.889 0.642598L-103.614 -0.234801L-104.491 -3.74368L-103.906 -6.08318L-102.152 -4.62108L-95.719 -4.03639L-79.6376 -10.7618L-51.5685 -19.5344L-21.7448 -27.7222L-14.727 -28.5993L-7.70995 -30.3541L-5.07801 -33.5706L-2.44678 -35.6174L1.6464 -41.1734L10.7108 -49.6536L26.4996 -52.8702L32.3474 -56.9641L44.9203 -62.8125L73.282 -69.2456L85.2703 -70.7077L96.966 -71L107.2 -66.029L118.018 -59.596L120.065 -55.7944L114.217 -58.1339L105.738 -63.6895L102.521 -63.9822L109.831 -46.7295L113.925 -40.5887L122.112 -36.2025L128.836 -34.7404L149.889 -37.3718L157.491 -40.8811L159.537 -41.7581Z" fill="url(#paint0_linear_4001_29355)"/>
<g filter="url(#filter0_f_4001_29355)">
<path d="M213.242 146.53C217.374 146.17 220.805 145.39 224.028 145.39C227.251 145.39 228.375 142.941 228.375 141.945C228.375 140.949 225.762 140.142 222.538 140.142C219.315 140.142 209.111 146.89 213.242 146.53Z" fill="url(#paint1_radial_4001_29355)"/>
</g>
<g filter="url(#filter1_i_4001_29355)">
<path d="M223.819 100.005C231.978 100.005 238.593 106.625 238.593 114.792C238.593 128.256 223.863 140.107 223.819 140.142C223.819 140.142 209.045 128.275 209.045 114.792C209.045 106.625 215.66 100.005 223.819 100.005ZM223.819 107.751C219.934 107.751 216.784 110.903 216.784 114.792C216.784 118.681 219.934 121.834 223.819 121.834C227.705 121.834 230.854 118.681 230.854 114.792C230.854 110.903 227.704 107.751 223.819 107.751Z" fill="url(#paint2_radial_4001_29355)"/>
</g>
</g>
<defs>
<filter id="filter0_f_4001_29355" x="208.256" y="136.125" width="24.1357" height="14.436" filterUnits="userSpaceOnUse" color-interpolation-filters="sRGB">
<feFlood flood-opacity="0" result="BackgroundImageFix"/>
<feBlend mode="normal" in="SourceGraphic" in2="BackgroundImageFix" result="shape"/>
<feGaussianBlur stdDeviation="2.00841" result="effect1_foregroundBlur_4001_29355"/>
</filter>
<filter id="filter1_i_4001_29355" x="209.045" y="100.005" width="29.5479" height="40.1367" filterUnits="userSpaceOnUse" color-interpolation-filters="sRGB">
<feFlood flood-opacity="0" result="BackgroundImageFix"/>
<feBlend mode="normal" in="SourceGraphic" in2="BackgroundImageFix" result="shape"/>
<feColorMatrix in="SourceAlpha" type="matrix" values="0 0 0 0 0 0 0 0 0 0 0 0 0 0 0 0 0 0 127 0" result="hardAlpha"/>
<feOffset dx="0.589732" dy="-1.08118"/>
<feComposite in2="hardAlpha" operator="arithmetic" k2="-1" k3="1"/>
<feColorMatrix type="matrix" values="0 0 0 0 0.403922 0 0 0 0 0.2 0 0 0 0 0.0196078 0 0 0 0.29 0"/>
<feBlend mode="normal" in2="shape" result="effect1_innerShadow_4001_29355"/>
</filter>
<linearGradient id="paint0_linear_4001_29355" x1="158.759" y1="348.275" x2="158.759" y2="-82.8106" gradientUnits="userSpaceOnUse">
<stop stop-color="#E3E5EC" stop-opacity="0"/>
<stop offset="1" stop-color="#E3E5EC"/>
</linearGradient>
<radialGradient id="paint1_radial_4001_29355" cx="0" cy="0" r="1" gradientUnits="userSpaceOnUse" gradientTransform="translate(225.881 142.196) rotate(169.812) scale(10.0382 15.3196)">
<stop stop-color="#81898D" stop-opacity="0.48"/>
<stop offset="1" stop-color="#81898D" stop-opacity="0"/>
</radialGradient>
<radialGradient id="paint2_radial_4001_29355" cx="0" cy="0" r="1" gradientUnits="userSpaceOnUse" gradientTransform="translate(238.928 93.6195) rotate(109.025) scale(54.5171 96.3981)">
<stop stop-color="#FFAA00"/>
<stop offset="1" stop-color="#FF8800"/>
</radialGradient>
<clipPath id="clip0_4001_29355">
<rect width="410" height="450" fill="white"/>
</clipPath>
</defs>
</svg>
