<svg width="327" height="450" viewBox="0 0 327 450" fill="none" xmlns="http://www.w3.org/2000/svg">
<g clip-path="url(#clip0_4001_29490)">
<rect width="327" height="450" fill="white"/>
<path d="M121.23 -27.0069L122.868 -26.3053L133.862 -25.6033L144.855 -24.9017L162.633 -23.9659L181.112 -23.0301L200.292 -22.0943L221.111 -21.1585L243.099 -20.6908L244.502 -21.1585L246.841 -23.4979L249.648 -23.264L252.923 -21.8604L254.326 -20.9246L255.028 -19.755L255.496 -18.3514L257.367 -18.1175L260.642 -16.9479L265.086 -14.6085L268.595 -12.2692L271.87 -8.99401L273.039 -5.2511V-1.04016L272.805 1.76695L273.039 2.93662L277.484 22.5872L284.969 41.5359L287.776 50.6594L288.946 55.572L289.881 62.5901L290.115 67.5026V70.31L289.647 74.0529L287.542 76.3923L273.273 82.7084L270.7 84.58L266.49 89.4926L262.513 94.6393L261.577 96.2768L261.344 97.4464L262.279 99.0839L267.425 101.891L272.572 103.997L274.209 105.634L277.951 107.74L279.355 109.611L280.057 111.249V114.992L278.42 120.138L279.121 124.115L277.484 126.688L276.08 129.495L275.846 134.642L278.42 140.257L280.524 144L281.226 147.041L280.29 149.38L280.524 151.719L282.396 154.293L288.244 161.779L291.051 169.03L292.922 171.838L297.132 175.581L297.6 176.984L295.963 178.388L294.559 178.622L293.39 179.09L292.688 180.259L293.857 181.663L295.261 183.769L297.132 189.383L296.898 194.062L295.495 195.231L293.624 198.038L292.454 200.612L282.162 202.249L279.823 205.057L274.209 210.203L270.466 213.244L264.852 218.625L255.964 227.748L252.689 231.491L250.35 234.766L243.099 243.188L240.994 246.697L241.461 249.504L243.8 256.288L244.268 259.329L243.8 262.137L243.099 264.71L243.333 265.88L245.438 267.751L248.712 270.558L248.946 271.494L248.479 272.664L247.309 273.6L243.099 272.664L238.42 270.792L236.783 271.026L234.21 270.558L223.684 266.815L216.666 263.774L215.964 261.903L214.561 259.095L211.52 256.756L204.503 254.651L201.696 253.013L190.468 252.077H185.556L182.047 252.779H179.708L176.668 256.99L174.562 258.16L171.521 258.394L168.714 257.692L165.907 255.586L161.463 254.417L158.188 254.885L155.849 254.417L153.744 254.183L153.042 254.651H151.405L149.066 255.586L146.493 256.99L143.686 258.16L141.581 260.499L139.709 265.178L134.095 263.073L132.224 264.008L129.651 264.71L127.78 264.008L128.247 262.371L128.949 260.499V257.926L128.481 255.119L126.844 254.183L124.271 253.949L122.868 253.481L122.634 252.545L121.23 251.376L118.891 248.335L116.786 244.592L115.382 243.422L113.277 245.293L110.003 247.399L107.897 248.101L103.921 253.949L96.9033 254.183L96.4356 251.376L95.7338 248.802L91.5232 248.101L91.2897 246.463L90.3537 242.486L82.1667 234.766L81.2313 231.491L81.4649 230.322L80.9972 228.216L79.1258 227.046L72.5767 225.643L70.9388 226.578L69.5357 225.643L67.1966 223.771L62.986 222.368L62.5183 221.666L61.1146 220.262L60.1792 220.028L59.7115 220.73L58.5419 221.9L54.3314 223.304L52.6941 222.602L51.0563 221.432L49.1854 218.859L46.6122 216.519L44.5072 215.584L43.3376 214.414L43.1035 213.478L47.7817 211.607L48.7172 209.501L48.0159 205.758L47.314 205.29L45.4426 206.46L41.4662 207.63L37.9575 208.098H36.0861L25.7942 201.548L19.0104 199.442L15.034 198.74L14.5663 199.442L16.4377 203.185L19.4781 207.864L19.2445 209.033L15.5017 210.905L13.3967 211.607L10.8235 213.244L8.71849 215.35L6.84707 216.286L5.2098 216.051L3.57253 215.116L-0.638006 208.332L-6.0181 203.185L-6.71995 202.015L-8.35723 201.781L-10.6964 200.612L-11.3982 198.974L-10.2286 197.337L-8.59137 195.933L-5.78396 194.997L-4.84854 194.062L-4.38083 192.658L-3.21127 191.02L-3.44484 190.319L-5.55039 188.447L-8.59137 186.576L-17.0119 187.979L-19.351 188.915L-20.7547 187.745L-21.6901 185.874L-23.7957 185.406L-26.6025 183.769L-30.1112 182.131L-33.3857 181.663L-40.4031 179.324L-43.2099 179.09L-44.8478 178.154L-46.4851 176.282L-47.8882 174.177L-48.59 169.966L-53.736 168.095L-58.8825 166.925L-59.3502 167.627L-59.1161 171.838L-59.3502 173.943L-62.8589 175.347L-66.1335 175.581L-65.8999 174.879L-61.9229 167.393L-60.0521 162.714L-57.9465 154.059L-60.5198 147.275L-61.2216 144L-62.3912 142.362L-69.4086 139.087L-69.8763 137.917L-68.7067 133.472L-69.1744 131.601L-70.8117 129.495L-73.1508 125.519L-74.0868 122.01L-71.2794 118.033L-70.5781 114.992L-69.4086 111.015L-68.4726 108.675L-68.239 107.974L-70.1099 106.336L-70.5781 103.997L-70.1099 100.722L-71.0458 98.3822L-73.6185 96.7445L-75.2564 94.6393L-75.9577 92.0658L-75.4899 88.089L-73.6185 82.7084L-77.8291 76.1584L-87.8874 68.4384L-92.7998 63.0581L-92.3315 60.0168L-90.2265 57.2097L-86.2501 54.6362L-83.2092 50.1917L-81.5719 44.811V43.8753V40.1323L-86.016 24.4588L-86.7179 20.4817L-87.1856 15.803L-87.4197 14.3995L-78.5309 17.6746L-74.7881 19.546L-75.2564 17.4408L-75.9577 15.5692L-75.4899 12.9959L-75.7241 9.01888L-83.911 6.91369L-89.2911 6.21177L-89.9924 3.40466L-89.5247 1.53307L-88.1216 2.70275L-82.975 3.1705L-70.1099 -2.20983L-47.6546 -9.22788L-23.7957 -15.7782L-18.1814 -16.4798L-12.5678 -17.8837L-10.4622 -20.4569L-8.35723 -22.0943L-5.08268 -26.5391L2.16883 -33.3233L14.7999 -35.8965L19.4781 -39.1717L29.5365 -43.8504L52.2258 -48.9968L61.8165 -50.1665L71.173 -50.4004L79.3599 -46.4236L88.0145 -41.2772L89.6518 -38.2359L84.9736 -40.1075L78.1903 -44.552L75.6171 -44.7862L81.4649 -30.984L84.74 -26.0714L91.2897 -22.5624L96.6692 -21.3927L113.511 -23.4979L119.593 -26.3053L121.23 -27.0069Z" fill="url(#paint0_linear_4001_29490)"/>
<g filter="url(#filter0_f_4001_29490)">
<path d="M164.194 123.623C167.499 123.335 170.244 122.711 172.822 122.711C175.401 122.711 176.3 120.752 176.3 119.955C176.3 119.159 174.209 118.513 171.631 118.513C169.052 118.513 160.889 123.911 164.194 123.623Z" fill="url(#paint1_radial_4001_29490)"/>
</g>
<g filter="url(#filter1_i_4001_29490)">
<path d="M172.655 86.4033C179.183 86.4033 184.474 91.6992 184.475 98.2324C184.475 108.992 172.715 118.464 172.655 118.512C172.596 118.464 160.836 108.992 160.836 98.2324C160.836 91.6992 166.128 86.4033 172.655 86.4033ZM172.655 92.5996C169.547 92.5997 167.027 95.1223 167.027 98.2334C167.028 101.344 169.547 103.866 172.655 103.866C175.763 103.866 178.283 101.344 178.283 98.2334C178.283 95.1223 175.764 92.5996 172.655 92.5996Z" fill="url(#paint2_radial_4001_29490)"/>
</g>
</g>
<defs>
<filter id="filter0_f_4001_29490" x="160.205" y="115.299" width="19.3088" height="11.548" filterUnits="userSpaceOnUse" color-interpolation-filters="sRGB">
<feFlood flood-opacity="0" result="BackgroundImageFix"/>
<feBlend mode="normal" in="SourceGraphic" in2="BackgroundImageFix" result="shape"/>
<feGaussianBlur stdDeviation="1.60673" result="effect1_foregroundBlur_4001_29490"/>
</filter>
<filter id="filter1_i_4001_29490" x="160.836" y="86.4033" width="23.6387" height="32.1084" filterUnits="userSpaceOnUse" color-interpolation-filters="sRGB">
<feFlood flood-opacity="0" result="BackgroundImageFix"/>
<feBlend mode="normal" in="SourceGraphic" in2="BackgroundImageFix" result="shape"/>
<feColorMatrix in="SourceAlpha" type="matrix" values="0 0 0 0 0 0 0 0 0 0 0 0 0 0 0 0 0 0 127 0" result="hardAlpha"/>
<feOffset dx="0.471786" dy="-0.86494"/>
<feComposite in2="hardAlpha" operator="arithmetic" k2="-1" k3="1"/>
<feColorMatrix type="matrix" values="0 0 0 0 0.403922 0 0 0 0 0.2 0 0 0 0 0.0196078 0 0 0 0.29 0"/>
<feBlend mode="normal" in2="shape" result="effect1_innerShadow_4001_29490"/>
</filter>
<linearGradient id="paint0_linear_4001_29490" x1="120.608" y1="285.02" x2="120.608" y2="-59.8489" gradientUnits="userSpaceOnUse">
<stop stop-color="#E3E5EC" stop-opacity="0"/>
<stop offset="1" stop-color="#E3E5EC"/>
</linearGradient>
<radialGradient id="paint1_radial_4001_29490" cx="0" cy="0" r="1" gradientUnits="userSpaceOnUse" gradientTransform="translate(174.305 120.156) rotate(169.812) scale(8.03052 12.2557)">
<stop stop-color="#81898D" stop-opacity="0.48"/>
<stop offset="1" stop-color="#81898D" stop-opacity="0"/>
</radialGradient>
<radialGradient id="paint2_radial_4001_29490" cx="0" cy="0" r="1" gradientUnits="userSpaceOnUse" gradientTransform="translate(184.743 81.2952) rotate(109.026) scale(43.6126 77.1194)">
<stop stop-color="#FFAA00"/>
<stop offset="1" stop-color="#FF8800"/>
</radialGradient>
<clipPath id="clip0_4001_29490">
<rect width="327" height="450" fill="white"/>
</clipPath>
</defs>
</svg>
