<svg width="327" height="450" viewBox="0 0 327 450" fill="none" xmlns="http://www.w3.org/2000/svg">
<g clip-path="url(#clip0_4001_29474)">
<rect width="327" height="450" fill="white"/>
<path d="M74.613 -0.544271C74.9958 -1.20235 75.4549 -1.87568 75.8377 -2.54906C70.6932 -2.12054 70.4634 -6.49754 71.9333 -10.1552C74.2452 -16.0473 78.3947 -14.5016 82.1152 -18.4348C89.3114 -26.1786 104.745 -22.5821 114.651 -26.9897C106.613 -26.6377 111.803 -28.918 114.651 -30.6015C112.952 -29.974 111.237 -29.4691 109.43 -28.9946C108.297 -34.2439 125.904 -47.6962 125.904 -38.9882C128.553 -40.6104 131.248 -42.202 133.881 -43.8242C134.524 -37.9321 157.767 -40.6104 157.874 -30.6015C164.978 -39.738 185.679 -32.6216 195.493 -34.198C203.899 -35.5141 206.073 -36.0345 214.907 -33.8919C224.339 -31.6575 233.862 -29.5609 243.417 -27.9386C256.492 -25.7502 268.434 -26.9439 280.392 -29.8517C287.925 -31.6728 296.867 -29.9587 303.512 -25.949C312.576 -20.5314 311.214 -28.061 319.589 -27.4488C326.969 -26.9285 334.18 -24.0054 341.407 -22.5821C345.77 -21.7251 359.857 -26.4235 361.755 -23.378C363.807 -20.0264 376.928 -24.082 374.57 -16.0779C374.08 -14.3792 372.044 -12.3284 373.483 -10.6755C376.882 -6.81888 375.841 -11.0888 379.439 -10.9664C390.877 -10.3695 405.943 0.358676 410.628 2.21047C412.863 3.08281 415.543 0.833164 417.855 1.67489C420.871 2.79209 422.876 7.13844 425.724 6.5875C433.64 4.96526 443.531 5.34783 453.054 7.91892C451.784 4.4755 453.162 2.0116 455.045 -0.482972C459.898 -0.375843 463.374 -0.00856983 471.933 5.30196C479.022 5.50091 485.621 7.87306 483.875 19.5195C493.552 17.9585 492.97 10.995 493.613 15.8158C495.451 16.8565 505.112 22.7333 507.424 21.9681C510.103 21.0957 512.66 19.091 515.799 20.3459C521.709 22.7028 528.078 25.0289 532.932 21.0652C536.668 18.035 540.22 18.4481 549.192 19.4429C552.591 19.8102 549.805 25.335 554 24.7381C553.939 28.9927 551.336 27.6918 548.886 29.666C545.288 32.5279 548.886 39.6444 548.687 43.348C548.228 53.6323 525.705 61.0854 518.142 64.1922C512.461 66.5643 510.93 71.9207 506.214 74.1857C500.519 76.8793 492.603 76.818 486.494 78.3331C471.627 82.0673 462.624 88.5256 450.666 96.8052C459.96 104.243 451.11 105.682 444.787 109.309C435.478 114.65 433.655 127.505 424.545 133.305C408.989 143.238 403.462 171.78 416.293 185.401C424.101 193.696 430.379 196.236 417.533 204.225C410.092 208.893 404.442 210.851 398.394 217.478C394.781 221.411 391.535 227.411 389.055 233.119C387.462 236.7 385.686 240.756 385.625 244.719C385.564 248.071 391.045 252.555 387.707 244.582C392.821 252.984 372.105 253.626 368.079 254.116C358.417 255.233 344.974 264.033 342.662 273.552C340.672 281.755 333.859 296.386 325.07 289.27C319.681 284.893 315.654 290.754 311.229 292.621C304.783 295.269 297.786 291.29 290.972 292.376C276.733 294.733 262.54 293.08 247.964 293.402C240.201 293.539 238.502 294.993 232.837 300.273C226.391 306.303 217.908 303.839 210.452 307.543C206.747 309.425 203.072 321.913 199.749 321.561C195.6 321.179 196.703 328.004 190.272 327.821C185.097 327.714 181.147 318.807 176.232 319.358C170.812 319.97 166.754 308.66 165.407 304.62C172.603 303.38 163.662 298.207 161.534 296.631C156.481 292.728 162.513 286.025 167.412 284.633C164.35 283.668 162.819 285.291 162.636 288.229C159.972 285.444 138.659 271.012 143.344 266.604C135.979 265.778 143.206 269.711 135.321 269.879C131.769 269.986 127.344 271.287 123.868 270.017C118.938 268.196 119.061 255.509 119.75 251.407C120.362 247.78 123.179 245.117 125.583 242.653C128.523 239.623 128.921 234.818 131.493 232.262C137.434 226.385 139.929 230.93 143.803 221.794C136.117 224.35 129.977 214.157 129.778 207.775C129.457 197.797 141.016 192.945 143.849 184.115C145.38 179.34 136.316 172.974 134.172 168.75C132.35 165.184 134.172 163.103 131.524 160.088C129.304 157.501 126.333 154.777 124.894 151.64C129.993 153.017 135.321 152.022 140.45 152.022C145.809 152.022 144.37 148.885 146.223 145.564C148.55 141.401 153.189 140.881 148.09 128.301C146.59 124.567 153.434 122.623 154.138 122.302C157.706 120.572 156.435 115.507 156.312 112.369C156.144 109.967 157.43 86.3065 154.322 87.087C159.895 85.7097 162.482 79.6492 167.887 76.2364C170.98 74.3234 184.301 62.876 182.723 59.6775C180.794 55.7443 170.536 56.54 170.169 54.122C169.541 50.3572 172.281 39.9963 168.285 43.4397C165.56 45.7966 146.758 40.5626 146.299 43.8377C145.395 50.6174 134.433 48.1076 130.636 46.5312C124.557 44.0367 118.326 46.9138 112.63 48.9951C100.856 53.1731 108.021 41.037 112.477 37.8232C109.017 38.267 107.547 36.354 108.113 33.0024C104.668 36.308 99.983 36.3846 95.6193 37.1651C90.1074 38.1905 86.9076 42.6439 82.054 45.0007C77.6444 33.5533 90.3832 32.3137 93.2158 23.3761C91.1488 27.294 86.9532 28.5182 82.804 28.5947C83.7073 24.0188 88.025 22.1824 91.6538 20.1928C88.025 21.7998 82.5284 22.1824 82.804 16.5658C83.0336 12.5561 89.3421 11.041 90.0464 6.97012C86.5096 10.2911 80.8751 9.95435 78.8234 14.9741C74.8272 9.18914 81.1966 4.52142 85.2234 1.30756C81.365 4.68977 76.2053 5.56207 74.613 -0.544271Z" fill="url(#paint0_linear_4001_29474)"/>
<g filter="url(#filter0_f_4001_29474)">
<path d="M270.785 138.352C267.41 138.059 264.607 137.423 261.973 137.423C259.34 137.423 258.422 135.427 258.422 134.615C258.422 133.804 260.557 133.146 263.19 133.146C265.823 133.146 274.16 138.645 270.785 138.352Z" fill="url(#paint1_radial_4001_29474)"/>
</g>
<g filter="url(#filter1_i_4001_29474)">
<path d="M262.143 100.434C255.477 100.434 250.074 105.829 250.074 112.485C250.074 123.444 262.077 133.092 262.143 133.146C262.143 133.146 274.213 123.475 274.213 112.485C274.213 105.829 268.809 100.434 262.143 100.434ZM262.143 106.746C265.317 106.746 267.891 109.316 267.891 112.485C267.891 115.655 265.317 118.225 262.143 118.225C258.969 118.224 256.396 115.655 256.396 112.485C256.396 109.316 258.969 106.746 262.143 106.746Z" fill="url(#paint2_radial_4001_29474)"/>
</g>
</g>
<defs>
<filter id="filter0_f_4001_29474" x="255.148" y="129.872" width="19.7028" height="11.7653" filterUnits="userSpaceOnUse" color-interpolation-filters="sRGB">
<feFlood flood-opacity="0" result="BackgroundImageFix"/>
<feBlend mode="normal" in="SourceGraphic" in2="BackgroundImageFix" result="shape"/>
<feGaussianBlur stdDeviation="1.63689" result="effect1_foregroundBlur_4001_29474"/>
</filter>
<filter id="filter1_i_4001_29474" x="250.074" y="100.434" width="24.1396" height="32.7119" filterUnits="userSpaceOnUse" color-interpolation-filters="sRGB">
<feFlood flood-opacity="0" result="BackgroundImageFix"/>
<feBlend mode="normal" in="SourceGraphic" in2="BackgroundImageFix" result="shape"/>
<feColorMatrix in="SourceAlpha" type="matrix" values="0 0 0 0 0 0 0 0 0 0 0 0 0 0 0 0 0 0 127 0" result="hardAlpha"/>
<feOffset dx="0.480643" dy="-0.881179"/>
<feComposite in2="hardAlpha" operator="arithmetic" k2="-1" k3="1"/>
<feColorMatrix type="matrix" values="0 0 0 0 0.403922 0 0 0 0 0.2 0 0 0 0 0.0196078 0 0 0 0.29 0"/>
<feBlend mode="normal" in2="shape" result="effect1_innerShadow_4001_29474"/>
</filter>
<linearGradient id="paint0_linear_4001_29474" x1="335.094" y1="340.924" x2="335.094" y2="-54.6623" gradientUnits="userSpaceOnUse">
<stop stop-color="#E3E5EC" stop-opacity="0"/>
<stop offset="1" stop-color="#E3E5EC"/>
</linearGradient>
<radialGradient id="paint1_radial_4001_29474" cx="0" cy="0" r="1" gradientUnits="userSpaceOnUse" gradientTransform="translate(260.459 134.82) rotate(10.164) scale(8.20061 12.4867)">
<stop stop-color="#81898D" stop-opacity="0.48"/>
<stop offset="1" stop-color="#81898D" stop-opacity="0"/>
</radialGradient>
<radialGradient id="paint2_radial_4001_29474" cx="0" cy="0" r="1" gradientUnits="userSpaceOnUse" gradientTransform="translate(249.8 95.2294) rotate(70.9327) scale(44.4434 78.734)">
<stop stop-color="#FFAA00"/>
<stop offset="1" stop-color="#FF8800"/>
</radialGradient>
<clipPath id="clip0_4001_29474">
<rect width="327" height="450" fill="white"/>
</clipPath>
</defs>
</svg>
