<svg width="410" height="450" viewBox="0 0 410 450" fill="none" xmlns="http://www.w3.org/2000/svg">
<g clip-path="url(#clip0_4001_29313)">
<rect width="410" height="450" fill="white"/>
<path d="M65.3992 29.103C65.8689 28.2956 66.4322 27.4694 66.9018 26.6432C60.5897 27.169 60.3078 21.7985 62.1113 17.3107C64.948 10.0813 70.0392 11.9778 74.6042 7.15199C83.4336 -2.34948 102.37 2.06329 114.525 -3.34466C104.662 -2.91277 111.03 -5.71064 114.525 -7.77618C112.439 -7.00629 110.335 -6.38671 108.118 -5.80461C106.728 -12.2453 128.332 -28.7508 128.332 -18.0664C131.582 -20.0568 134.888 -22.0096 138.119 -24C138.908 -16.7706 167.426 -20.0567 167.558 -7.77618C176.274 -18.9864 201.673 -10.2548 213.715 -12.1889C224.028 -13.8038 226.696 -14.4423 237.536 -11.8134C249.108 -9.07191 260.793 -6.49937 272.515 -4.50895C288.559 -1.82375 303.211 -3.2884 317.883 -6.85615C327.126 -9.09068 338.097 -6.9875 346.25 -2.06777C357.372 4.57951 355.7 -4.65907 365.976 -3.90796C375.031 -3.26953 383.879 0.317013 392.746 2.06333C398.1 3.11488 415.383 -2.64989 417.713 1.08686C420.23 5.19915 436.329 0.223039 433.436 10.0437C432.835 12.128 430.337 14.6443 432.103 16.6723C436.273 21.4043 434.996 16.1652 439.411 16.3154C453.444 17.0478 471.929 30.2109 477.678 32.483C480.42 33.5533 483.708 30.7931 486.545 31.8258C490.246 33.1966 492.706 38.5294 496.2 37.8534C505.913 35.863 518.049 36.3324 529.734 39.487C528.174 35.2621 529.865 32.239 532.176 29.1782C538.131 29.3096 542.395 29.7603 552.897 36.2761C561.595 36.5202 569.692 39.4308 567.55 53.7205C579.423 51.8052 578.709 43.2613 579.498 49.1763C581.753 50.4531 593.606 57.6637 596.443 56.7249C599.73 55.6545 602.868 53.1948 606.719 54.7345C613.97 57.6263 621.785 60.4804 627.741 55.617C632.324 51.8991 636.682 52.406 647.691 53.6265C651.862 54.0772 648.443 60.8559 653.59 60.1236C653.515 65.3438 650.321 63.7477 647.316 66.17C642.901 69.6814 647.316 78.4131 647.071 82.9572C646.508 95.5758 618.874 104.72 609.593 108.532C602.624 111.443 600.745 118.015 594.959 120.794C587.971 124.099 578.258 124.024 570.763 125.883C552.522 130.465 541.475 138.389 526.803 148.547C538.206 157.673 527.348 159.438 519.59 163.889C508.168 170.442 505.932 186.215 494.754 193.332C475.667 205.519 468.886 240.539 484.628 257.251C494.209 267.429 501.911 270.546 486.15 280.347C477.02 286.075 470.088 288.478 462.667 296.609C458.234 301.435 454.251 308.796 451.208 315.8C449.254 320.194 447.075 325.17 447 330.033C446.925 334.145 453.65 339.647 449.555 329.864C455.829 340.173 430.412 340.962 425.471 341.562C413.617 342.933 397.123 353.73 394.286 365.41C391.844 375.475 383.485 393.426 372.701 384.695C366.089 379.324 361.148 386.516 355.718 388.807C347.81 392.056 339.224 387.173 330.865 388.506C313.394 391.398 295.979 389.37 278.095 389.765C268.57 389.934 266.485 391.718 259.534 398.196C251.625 405.594 241.217 402.571 232.069 407.115C227.522 409.425 223.014 424.747 218.937 424.315C213.846 423.846 215.199 432.221 207.309 431.996C200.959 431.864 196.112 420.935 190.082 421.611C183.432 422.362 178.454 408.486 176.8 403.529C185.63 402.008 174.659 395.661 172.048 393.727C165.848 388.938 173.249 380.714 179.261 379.005C175.504 377.822 173.626 379.812 173.4 383.418C170.131 380 143.981 362.293 149.729 356.885C140.693 355.871 149.561 360.697 139.886 360.903C135.527 361.035 130.098 362.631 125.834 361.072C119.784 358.838 119.935 343.271 120.78 338.239C121.532 333.788 124.988 330.521 127.938 327.498C131.545 323.78 132.033 317.884 135.189 314.748C142.478 307.537 145.54 313.114 150.293 301.904C140.862 305.04 133.33 292.534 133.085 284.704C132.691 272.461 146.874 266.508 150.349 255.674C152.228 249.815 141.107 242.003 138.477 236.821C136.241 232.446 138.477 229.892 135.227 226.193C132.503 223.019 128.858 219.677 127.093 215.828C133.348 217.518 139.886 216.297 146.179 216.297C152.754 216.297 150.988 212.448 153.262 208.373C156.117 203.265 161.809 202.627 155.553 187.192C153.712 182.61 162.11 180.225 162.974 179.831C167.351 177.709 165.792 171.494 165.642 167.644C165.435 164.696 167.013 135.666 163.199 136.624C170.037 134.934 173.212 127.498 179.843 123.31C183.638 120.963 199.982 106.917 198.047 102.993C195.68 98.1671 183.094 99.1434 182.643 96.1766C181.873 91.5573 185.235 78.8449 180.332 83.0698C176.988 85.9616 153.919 79.5397 153.355 83.5581C152.247 91.8766 138.796 88.7971 134.137 86.863C126.679 83.8022 119.033 87.3323 112.045 89.8861C97.5985 95.0124 106.39 80.1218 111.857 76.1785C107.611 76.7231 105.808 74.3758 106.503 70.2635C102.276 74.3195 96.5273 74.4134 91.1733 75.3711C84.4103 76.6292 80.4843 82.0934 74.5291 84.9851C69.1187 70.9395 84.7488 69.4186 88.2242 58.4525C85.6881 63.2595 80.5403 64.7617 75.4492 64.8555C76.5576 59.241 81.8553 56.9878 86.3076 54.5467C81.8553 56.5184 75.1111 56.9878 75.4492 50.0964C75.731 45.1767 83.4713 43.3177 84.3355 38.3229C79.9959 42.3976 73.0826 41.9844 70.5653 48.1435C65.6621 41.0455 73.4771 35.3184 78.4178 31.3751C73.6837 35.525 67.353 36.5953 65.3992 29.103Z" fill="url(#paint0_linear_4001_29313)"/>
<g filter="url(#filter0_f_4001_29313)">
<path d="M306.095 199.525C301.954 199.165 298.514 198.385 295.283 198.385C292.052 198.385 290.926 195.936 290.926 194.94C290.926 193.944 293.545 193.137 296.776 193.137C300.007 193.137 310.236 199.885 306.095 199.525Z" fill="url(#paint1_radial_4001_29313)"/>
</g>
<g filter="url(#filter1_i_4001_29313)">
<path d="M295.493 153C287.314 153 280.683 159.62 280.683 167.787C280.683 181.27 295.493 193.137 295.493 193.137C295.531 193.106 310.303 181.253 310.303 167.787C310.303 159.621 303.672 153 295.493 153ZM295.492 160.746C299.387 160.746 302.545 163.898 302.545 167.787C302.545 171.676 299.387 174.829 295.492 174.829C291.597 174.829 288.44 171.676 288.44 167.787C288.441 163.899 291.598 160.746 295.492 160.746Z" fill="url(#paint2_radial_4001_29313)"/>
</g>
</g>
<defs>
<filter id="filter0_f_4001_29313" x="286.909" y="189.12" width="24.1748" height="14.436" filterUnits="userSpaceOnUse" color-interpolation-filters="sRGB">
<feFlood flood-opacity="0" result="BackgroundImageFix"/>
<feBlend mode="normal" in="SourceGraphic" in2="BackgroundImageFix" result="shape"/>
<feGaussianBlur stdDeviation="2.00841" result="effect1_foregroundBlur_4001_29313"/>
</filter>
<filter id="filter1_i_4001_29313" x="280.683" y="153" width="29.6201" height="40.1367" filterUnits="userSpaceOnUse" color-interpolation-filters="sRGB">
<feFlood flood-opacity="0" result="BackgroundImageFix"/>
<feBlend mode="normal" in="SourceGraphic" in2="BackgroundImageFix" result="shape"/>
<feColorMatrix in="SourceAlpha" type="matrix" values="0 0 0 0 0 0 0 0 0 0 0 0 0 0 0 0 0 0 127 0" result="hardAlpha"/>
<feOffset dx="0.589732" dy="-1.08118"/>
<feComposite in2="hardAlpha" operator="arithmetic" k2="-1" k3="1"/>
<feColorMatrix type="matrix" values="0 0 0 0 0.403922 0 0 0 0 0.2 0 0 0 0 0.0196078 0 0 0 0.29 0"/>
<feBlend mode="normal" in2="shape" result="effect1_innerShadow_4001_29313"/>
</filter>
<linearGradient id="paint0_linear_4001_29313" x1="385" y1="448.073" x2="385" y2="-37.2979" gradientUnits="userSpaceOnUse">
<stop stop-color="#E3E5EC" stop-opacity="0"/>
<stop offset="1" stop-color="#E3E5EC"/>
</linearGradient>
<radialGradient id="paint1_radial_4001_29313" cx="0" cy="0" r="1" gradientUnits="userSpaceOnUse" gradientTransform="translate(293.426 195.191) rotate(10.164) scale(10.0619 15.3208)">
<stop stop-color="#81898D" stop-opacity="0.48"/>
<stop offset="1" stop-color="#81898D" stop-opacity="0"/>
</radialGradient>
<radialGradient id="paint2_radial_4001_29313" cx="0" cy="0" r="1" gradientUnits="userSpaceOnUse" gradientTransform="translate(280.346 146.615) rotate(70.932) scale(54.5312 96.6081)">
<stop stop-color="#FFAA00"/>
<stop offset="1" stop-color="#FF8800"/>
</radialGradient>
<clipPath id="clip0_4001_29313">
<rect width="410" height="450" fill="white"/>
</clipPath>
</defs>
</svg>
