<svg width="410" height="450" viewBox="0 0 410 450" fill="none" xmlns="http://www.w3.org/2000/svg">
<g clip-path="url(#clip0_4001_29406)">
<rect width="410" height="450" fill="white"/>
<path d="M842.921 319.702L841.098 320.309L823.48 319.398L808.899 320.916L798.57 331.236H792.495L783.99 333.967L778.218 337.307L771.231 344.591L765.764 341.252H759.08L752.702 343.073L745.107 347.93L740.854 348.841L732.349 347.626L722.325 350.358L700.757 366.142L693.467 377.676L690.733 379.801L687.088 382.532L683.138 384.05H681.012L691.341 375.855L694.378 372.82L694.986 370.695V367.052L691.948 362.499L683.442 373.73L678.582 375.248L672.507 378.587L672.203 385.871L672.811 391.335L675.241 398.316L681.012 409.547L693.163 425.634L698.935 431.401L703.187 433.829L708.351 434.133L718.072 429.276L722.325 428.366L731.438 430.187L734.779 426.848L739.64 425.027L745.715 424.723L752.702 426.241L760.296 428.669L757.258 434.436L753.916 438.989L752.702 443.846L750.879 449.309L742.677 451.738L733.868 451.434L724.451 452.952L721.109 450.827L718.983 449.006L714.731 447.185L709.263 445.97L704.402 447.185L698.631 454.773L688.303 459.933L684.961 465.7L674.937 464.486L666.128 465.396L653.673 470.86L644.257 482.394L633.625 489.375L625.423 491.5L617.525 490.893L612.361 488.768L602.033 481.18L602.64 478.448L604.159 477.234L605.982 473.288L610.234 459.022L609.627 454.469L607.196 447.185L598.995 441.417L592.312 442.632L588.667 441.114L574.998 431.401L567.707 430.794L559.505 432.615L556.467 431.097L554.341 427.759L570.441 415.921L586.237 405.904L593.224 404.994L602.64 400.441L612.664 393.46L611.146 387.996L609.019 384.05L604.159 385.264L600.514 386.478L592.008 382.229L588.97 378.89L575.909 382.229L568.618 381.622L552.518 384.657L544.924 381.622L530.04 373.123L524.572 371.302L519.712 371.605L516.978 368.873L520.015 367.356L523.66 367.052L527.609 366.142L528.825 364.624L528.521 361.892L520.623 359.768L513.333 359.161L508.776 356.732L505.434 354.001H513.637L521.838 356.125L534.596 357.036L546.14 359.161L549.177 356.429L555.86 351.572L557.075 350.055L545.836 353.393L534.292 351.269L530.04 348.234L526.395 343.984L524.876 339.128L525.787 334.575L524.572 326.379L520.927 319.095L519.712 315.149L515.763 311.506L519.712 319.702L521.231 325.165L523.66 330.022L523.053 343.377L521.534 347.93L516.674 349.144L510.599 348.537L504.219 347.019L505.738 339.735L502.397 342.163L497.537 349.144L493.284 350.055L483.867 349.144L466.553 353.697L465.337 358.857L462.603 365.838L460.173 369.784L459.262 372.213L451.972 382.532L451.06 383.443L437.086 397.709L435.264 398.62L426.151 401.958L420.683 404.994L416.734 406.208L409.747 404.69L407.014 406.815L405.799 409.243V414.403L409.444 418.046L412.178 430.49L410.963 435.65L408.229 432.311L403.976 428.669L395.775 425.634L386.661 426.544L376.637 431.705L369.954 433.526L366.309 432.311H364.182L363.575 433.829L363.879 435.043L365.094 435.954V436.561L363.575 436.864L347.779 433.222L341.096 429.883L335.628 423.509L338.362 421.384L340.792 420.474L348.994 419.867L350.513 419.26V417.742L351.121 415.921L350.817 413.189L349.905 410.154L353.55 405.601L359.018 401.958L362.056 398.316L362.663 392.852L368.131 390.121L372.992 385.568L374.207 380.711L376.03 377.676L372.992 370.391L372.385 365.535V361.589L373.903 359.464L378.46 357.036L383.32 355.215L385.446 355.518L386.054 356.732L386.357 364.928L387.269 365.231L388.788 364.321L391.218 359.464L393.04 360.982L395.775 361.589L397.901 360.375H399.116L400.634 361.589L403.976 363.41L407.014 364.017L409.444 362.803L411.57 360.678L414.001 361.285L418.253 366.749L420.379 366.142L430.404 364.928L431.923 363.41L433.138 361.892L422.81 354.304L423.417 348.841L423.721 342.466L422.506 338.52L420.379 335.485L412.482 331.843L406.406 328.201L405.191 326.683L404.888 324.558L404.583 321.219L402.153 318.487L401.85 316.059L403.369 312.417L403.672 308.471L403.065 306.953L401.546 305.739H398.812L395.167 303.311L392.737 300.276L386.054 295.723L383.927 295.116L382.712 292.991L382.105 290.259L383.624 286.92L385.446 281.76L386.661 276.904V274.172L385.75 267.191L382.105 261.727L380.586 261.12L377.852 262.638L374.511 263.852L372.08 262.638L369.043 259.602L364.486 251.407L355.677 249.89L352.032 249.586L348.691 253.532L347.475 252.318L346.564 249.89L344.741 248.979L342.311 250.193L341.704 248.979L342.615 245.64L339.881 243.819H333.198L329.553 242.605L329.249 239.873L327.123 238.052L323.478 237.141L319.833 235.016L316.188 231.678L310.72 229.553L303.733 228.642L303.125 228.339L302.518 227.732L297.961 230.16L295.227 231.981L291.886 230.767L286.418 234.713L275.179 235.016L269.711 234.713L266.977 233.802L256.649 239.873L255.434 242.301L253.004 243.212L246.321 244.426L239.334 246.247L237.815 252.318L235.689 255.657L232.043 260.513L219.285 262.031L208.046 264.459L196.503 265.977L181.618 271.744L176.758 276.904L171.898 278.422L167.645 278.725L164.911 275.993L155.494 268.405L151.849 264.763L146.988 263.852L141.824 264.459L136.66 266.28L131.497 266.584L125.421 264.155L124.814 264.459L122.384 264.763L107.498 261.727L105.98 261.12H105.372L103.246 260.817L92.0067 261.12L81.6782 254.746L78.3372 254.443L75.9069 256.871L74.084 259.602L66.7939 262.334L64.971 263.548L64.0603 262.638L63.4521 260.21L64.0603 258.085L62.8447 255.96L60.1111 253.532L59.5037 252.621L56.162 252.925L55.2506 253.228H54.9472L50.0866 251.407L47.049 246.551L42.1884 244.122L38.5433 243.212L36.7212 241.087L35.5056 238.355L34.2909 236.231V235.927L33.3794 232.892L32.1646 232.588H31.8606L27 233.195L27.6081 222.268L35.2023 214.377L37.0245 210.431L40.0622 201.932L42.1884 197.986L44.9227 194.647L47.049 191.308L47.6564 188.576L49.7826 188.273L55.8579 190.701L61.3259 191.915L62.8447 190.701L63.4521 189.183L63.1488 187.969L58.5923 184.327L55.8579 181.899L55.5546 180.381L56.4661 177.042L57.0735 173.4L56.4661 169.454L53.4284 160.651L52.8203 157.009L55.5546 152.456L64.971 141.529L68.0086 137.28L72.2618 132.423L83.8052 120.586L91.0953 113.604L95.9559 109.658L103.246 102.981L106.284 99.3384L119.649 96.91L121.168 93.5712L123.598 89.929L125.421 88.4113L125.725 82.3407L123.295 75.0559L121.472 72.324L119.953 70.5029L120.865 68.9853L122.384 68.378L124.206 68.0745L126.333 66.2534L125.725 64.4323L120.257 59.5759L117.827 55.9333L114.182 46.5239L106.588 36.8111L104.157 33.7758L103.853 30.7405L105.069 27.7052L103.853 23.7591L101.12 18.9027L101.423 18.2954L101.12 12.2248L102.942 11.011L105.98 10.1002L110.233 10.4037L113.878 11.3144L118.434 14.0463L119.953 13.7425L127.547 8.58258L135.446 0.690854L137.572 -3.86211L139.394 -5.98705L146.078 -7.20087L151.849 -7.80816H155.494L164.607 -8.71853L170.075 -9.62927L174.936 -11.1469L184.959 -11.7538L200.756 -10.8435H211.084L218.07 -10.2362L235.385 -5.98705L241.764 -5.07631L244.802 -2.95174L250.573 -2.041L260.901 0.0835698L270.014 1.29777L276.09 0.690854L279.431 1.29777L285.811 11.3144L287.026 12.5286L289.759 12.8321L294.924 11.9213L302.518 12.2248L307.074 14.3497L306.466 20.1169L307.682 21.0273L309.808 20.7238L312.238 17.385L314.365 14.0463L315.883 12.8321L323.478 15.2601L327.123 14.9567L330.464 12.2248L332.591 11.9213L338.059 13.7425L344.741 14.9567H350.209L353.55 16.4743L355.981 22.5449L358.107 23.7591L360.234 24.0626L363.272 18.5992L366.005 16.4743L369.954 14.9567L372.385 14.3497L374.207 12.5286L376.637 10.7071L378.763 10.4037L380.586 11.011L382.408 13.7425L385.143 19.8131L388.484 25.8837L390.914 28.0086L397.293 26.1875L401.546 24.366L409.444 24.0626L419.772 22.8484L427.67 21.0273L432.53 21.3307L435.568 23.1522L440.124 26.7944L441.34 31.9543L447.111 35.5969L451.972 36.2038L453.49 32.5616L456.224 29.8297L455.009 26.1875L454.402 21.6346L452.275 17.385L450.756 12.8321L453.49 6.15419L456.224 0.387397L457.743 -2.64791L462.299 -8.41507L466.856 -12.6646L473.843 -19.3421L478.703 -21.467L483.26 -20.5563L485.689 -19.6459L492.069 -23.5916L503.612 -23.8951L513.333 -23.2882H514.244L519.104 -21.1636L523.964 -19.3421H527.306L531.255 -19.6459L536.115 -22.074L539.457 -24.1989L543.405 -35.7328L544.924 -37.2505L547.051 -38.1612H550.696L557.683 -36.0363L565.884 -34.2152L570.744 -34.5186L583.503 -40.5893L590.489 -41.5L598.692 -39.9823H606.893L612.968 -40.8931L617.221 -38.7681L622.385 -34.2152L627.245 -27.2342L632.106 -14.4857L646.686 -0.219887L646.99 2.51196L645.776 4.33307L638.789 6.15419L632.713 7.06493L632.409 9.49332L633.928 12.2248L636.663 16.1708L636.966 21.0273V25.5802L638.181 29.5263L640.611 31.0439L640.915 33.1685L638.181 35.5969L637.573 37.1145L638.485 38.0249L651.547 38.6322L657.926 41.0602L662.786 43.1852L665.216 43.4886L670.684 41.971L676.76 41.0602H680.405L681.924 42.5779L683.138 46.8274L685.265 51.0769L687.392 52.2911L691.037 51.9876L693.163 52.2911L694.378 53.8087L693.163 56.2368L693.467 58.9686L694.986 62.3074L696.808 69.5922L698.631 71.7171L699.846 74.4486V77.7877L698.327 80.5192L697.416 82.6442L698.327 87.5006L702.276 92.9643L705.314 94.4819L707.744 99.3384L711.996 100.856L718.072 96.6065L722.932 94.4819L729.008 95.6958L734.476 96.6065L738.121 99.3384L740.854 103.284L743.892 105.409L746.93 104.195L753.613 105.409L756.651 108.444L759.688 110.265L763.637 107.837L766.675 104.802L778.218 101.463L785.509 100.553L787.635 99.9453L791.887 97.5172L796.444 95.9996L800.393 96.3031L804.342 101.159L808.595 104.498L809.81 109.962L814.974 117.247L827.428 127.263L832.289 130.298L835.63 129.691L837.453 128.781L838.364 127.87L838.971 123.014L840.49 121.192H842.921L852.641 127.263L857.805 127.87H862.665L869.348 132.727L876.639 136.976L882.106 137.28L886.663 135.762L889.7 134.851L891.523 136.369L893.346 140.012L896.384 142.743L899.725 143.654L904.586 143.957L912.787 149.117L920.685 154.581L925.545 154.884L929.798 153.367L933.443 153.063L935.874 154.277L936.481 156.706L934.658 159.741V164.294L938 168.543V172.793L937.089 176.435L935.266 179.774L930.406 184.63L926.153 189.183L919.47 191.005L915.825 192.826L916.736 196.165L919.167 199.2L924.634 201.628L931.013 203.449L931.621 205.574L930.709 206.485L926.761 207.395L920.989 206.485L919.167 208.306L916.432 211.037L914.61 216.198L913.395 221.054L919.47 222.268L923.115 224.089L924.33 228.035L925.545 232.285L925.849 236.231L923.723 238.052V239.873L924.634 240.784L927.368 241.087L929.494 241.998L929.798 244.122L925.849 248.675L922.204 257.478L920.381 262.031V267.191L918.255 269.923L914.306 270.226L900.636 270.833L888.79 270.53L883.625 269.923L875.728 269.619L871.778 270.833L866.615 279.028L862.665 282.064L855.983 284.796L848.692 285.706L844.439 289.045L842.921 294.205V298.758L842.313 301.186L840.794 303.311L840.187 304.829L840.49 306.346L842.313 306.953L844.439 307.56V308.775L843.528 310.292L841.402 311.81L840.49 314.238L840.794 316.97L842.921 319.702ZM528.521 377.069L535.508 380.104L528.521 379.194L512.725 376.158L505.738 373.426L503.915 370.391L503.005 366.142L506.953 370.695L509.687 372.516L528.521 377.069Z" fill="url(#paint0_linear_4001_29406)"/>
<g filter="url(#filter0_f_4001_29406)">
<path d="M162.178 146.156C158.046 145.796 154.615 145.016 151.392 145.016C148.169 145.016 147.045 142.567 147.045 141.571C147.045 140.575 149.658 139.768 152.881 139.768C156.105 139.768 166.309 146.516 162.178 146.156Z" fill="url(#paint1_radial_4001_29406)"/>
</g>
<g filter="url(#filter1_i_4001_29406)">
<path d="M151.601 99.6309C143.442 99.6311 136.827 106.251 136.827 114.418C136.827 127.881 151.557 139.733 151.601 139.768C151.601 139.768 166.375 127.901 166.375 114.418C166.375 106.251 159.76 99.6309 151.601 99.6309ZM151.601 107.377C155.486 107.377 158.635 110.529 158.636 114.418C158.636 118.307 155.486 121.46 151.601 121.46C147.715 121.46 144.565 118.307 144.565 114.418C144.566 110.529 147.715 107.377 151.601 107.377Z" fill="url(#paint2_radial_4001_29406)"/>
</g>
</g>
<defs>
<filter id="filter0_f_4001_29406" x="143.029" y="135.751" width="24.1357" height="14.436" filterUnits="userSpaceOnUse" color-interpolation-filters="sRGB">
<feFlood flood-opacity="0" result="BackgroundImageFix"/>
<feBlend mode="normal" in="SourceGraphic" in2="BackgroundImageFix" result="shape"/>
<feGaussianBlur stdDeviation="2.00841" result="effect1_foregroundBlur_4001_29406"/>
</filter>
<filter id="filter1_i_4001_29406" x="136.827" y="99.6309" width="29.5479" height="40.1367" filterUnits="userSpaceOnUse" color-interpolation-filters="sRGB">
<feFlood flood-opacity="0" result="BackgroundImageFix"/>
<feBlend mode="normal" in="SourceGraphic" in2="BackgroundImageFix" result="shape"/>
<feColorMatrix in="SourceAlpha" type="matrix" values="0 0 0 0 0 0 0 0 0 0 0 0 0 0 0 0 0 0 127 0" result="hardAlpha"/>
<feOffset dx="0.589732" dy="-1.08118"/>
<feComposite in2="hardAlpha" operator="arithmetic" k2="-1" k3="1"/>
<feColorMatrix type="matrix" values="0 0 0 0 0.403922 0 0 0 0 0.2 0 0 0 0 0.0196078 0 0 0 0.29 0"/>
<feBlend mode="normal" in2="shape" result="effect1_innerShadow_4001_29406"/>
</filter>
<linearGradient id="paint0_linear_4001_29406" x1="524.987" y1="510.287" x2="524.987" y2="-57.0434" gradientUnits="userSpaceOnUse">
<stop stop-color="#E3E5EC" stop-opacity="0"/>
<stop offset="1" stop-color="#E3E5EC"/>
</linearGradient>
<radialGradient id="paint1_radial_4001_29406" cx="0" cy="0" r="1" gradientUnits="userSpaceOnUse" gradientTransform="translate(149.539 141.822) rotate(10.1883) scale(10.0382 15.3196)">
<stop stop-color="#81898D" stop-opacity="0.48"/>
<stop offset="1" stop-color="#81898D" stop-opacity="0"/>
</radialGradient>
<radialGradient id="paint2_radial_4001_29406" cx="0" cy="0" r="1" gradientUnits="userSpaceOnUse" gradientTransform="translate(136.492 93.2455) rotate(70.9751) scale(54.5171 96.3981)">
<stop stop-color="#FFAA00"/>
<stop offset="1" stop-color="#FF8800"/>
</radialGradient>
<clipPath id="clip0_4001_29406">
<rect width="410" height="450" fill="white"/>
</clipPath>
</defs>
</svg>
