<svg width="327" height="450" viewBox="0 0 327 450" fill="none" xmlns="http://www.w3.org/2000/svg">
<g clip-path="url(#clip0_4001_29506)">
<rect width="327" height="450" fill="white"/>
<path d="M659.408 256.009L658.008 256.475L644.472 255.775L633.27 256.941L625.334 264.87H620.667L614.132 266.969L609.698 269.534L604.33 275.131L600.129 272.566H594.994L590.094 273.965L584.259 277.696L580.991 278.396L574.457 277.463L566.755 279.562L550.185 291.688L544.584 300.55L542.483 302.182L539.683 304.281L536.649 305.447H535.015L542.951 299.151L545.284 296.819L545.751 295.186V292.388L543.417 288.89L536.882 297.518L533.148 298.684L528.48 301.25L528.247 306.846L528.714 311.044L530.581 316.408L535.015 325.036L544.351 337.396L548.785 341.826L552.052 343.692L556.02 343.925L563.488 340.194L566.755 339.494L573.757 340.894L576.324 338.328L580.058 336.929L584.726 336.696L590.094 337.862L595.928 339.728L593.594 344.158L591.027 347.656L590.094 351.388L588.693 355.585L582.392 357.451L575.624 357.218L568.389 358.384L565.822 356.751L564.188 355.352L560.921 353.953L556.72 353.02L552.986 353.953L548.552 359.783L540.617 363.747L538.049 368.178L530.348 367.245L523.58 367.945L514.011 372.143L506.776 381.004L498.608 386.368L492.306 388L486.239 387.534L482.271 385.901L474.336 380.071L474.802 377.973L475.969 377.04L477.37 374.008L480.637 363.048L480.17 359.55L478.303 353.953L472.002 349.522L466.868 350.455L464.067 349.289L453.565 341.826L447.963 341.36L441.662 342.759L439.328 341.593L437.695 339.028L450.064 329.933L462.2 322.238L467.568 321.538L474.802 318.04L482.504 312.676L481.337 308.479L479.704 305.447L475.969 306.38L473.169 307.313L466.634 304.048L464.3 301.483L454.265 304.048L448.664 303.582L436.294 305.914L430.46 303.582L419.024 297.052L414.823 295.653L411.089 295.886L408.989 293.787L411.322 292.621L414.123 292.388L417.157 291.688L418.091 290.522L417.857 288.423L411.789 286.791L406.188 286.325L402.687 284.459L400.12 282.36H406.422L412.723 283.993L422.525 284.692L431.394 286.325L433.727 284.226L438.862 280.495L439.795 279.329L431.16 281.894L422.291 280.261L419.024 277.929L416.224 274.665L415.057 270.933L415.757 267.435L414.823 261.139L412.023 255.542L411.089 252.511L408.055 249.712L411.089 256.009L412.256 260.206L414.123 263.937L413.656 274.198L412.489 277.696L408.756 278.629L404.088 278.163L399.187 276.997L400.354 271.4L397.786 273.265L394.052 278.629L390.785 279.329L383.55 278.629L370.247 282.127L369.314 286.091L367.213 291.455L365.346 294.487L364.646 296.352L359.045 304.281L358.345 304.981L347.609 315.941L346.209 316.641L339.208 319.206L335.007 321.538L331.972 322.471L326.605 321.305L324.504 322.937L323.571 324.803V328.767L326.371 331.566L328.472 341.127L327.538 345.091L325.438 342.526L322.17 339.728L315.869 337.396L308.868 338.095L301.166 342.06L296.032 343.459L293.231 342.526H291.597L291.13 343.692L291.364 344.625L292.297 345.324V345.791L291.13 346.024L278.995 343.226L273.86 340.66L269.659 335.763L271.76 334.131L273.627 333.431L279.928 332.965L281.095 332.498V331.332L281.562 329.933L281.329 327.834L280.628 325.502L283.429 322.004L287.63 319.206L289.964 316.408L290.43 312.21L294.631 310.111L298.366 306.613L299.299 302.882L300.699 300.55L298.366 294.953L297.899 291.222V288.19L299.066 286.558L302.567 284.692L306.3 283.293L307.934 283.526L308.401 284.459L308.634 290.755L309.334 290.989L310.501 290.289L312.369 286.558L313.768 287.724L315.869 288.19L317.503 287.257H318.436L319.603 288.19L322.17 289.589L324.504 290.056L326.371 289.123L328.005 287.491L329.872 287.957L333.139 292.155L334.773 291.688L342.475 290.755L343.642 289.589L344.575 288.423L336.64 282.593L337.107 278.396L337.34 273.499L336.407 270.467L334.773 268.135L328.705 265.337L324.038 262.538L323.104 261.372L322.871 259.74L322.637 257.175L320.77 255.076L320.537 253.21L321.704 250.412L321.937 247.38L321.47 246.214L320.303 245.281H318.203L315.403 243.416L313.535 241.084L308.401 237.586L306.767 237.119L305.834 235.487L305.367 233.388L306.534 230.823L307.934 226.859L308.868 223.127V221.028L308.168 215.665L305.367 211.467L304.2 211.001L302.099 212.167L299.532 213.1L297.665 212.167L295.331 209.835L291.831 203.538L285.063 202.372L282.262 202.139L279.695 205.171L278.761 204.238L278.061 202.372L276.661 201.673L274.794 202.606L274.327 201.673L275.027 199.108L272.927 197.708H267.792L264.992 196.776L264.758 194.677L263.125 193.278L260.324 192.578L257.524 190.946L254.723 188.38L250.522 186.748L245.154 186.048L244.688 185.815L244.221 185.349L240.72 187.214L238.619 188.614L236.053 187.681L231.852 190.712L223.216 190.946L219.015 190.712L216.915 190.013L208.98 194.677L208.047 196.542L206.179 197.242L201.045 198.175L195.677 199.574L194.51 204.238L192.877 206.803L190.076 210.534L180.274 211.7L171.639 213.566L162.77 214.732L151.335 219.163L147.6 223.127L143.866 224.293L140.599 224.527L138.499 222.428L131.263 216.598L128.463 213.799L124.729 213.1L120.761 213.566L116.794 214.965L112.826 215.198L108.159 213.333L107.692 213.566L105.825 213.799L94.3889 211.467L93.2219 211.001H92.7553L91.1217 210.768L82.4867 211.001L74.5513 206.104L71.9845 205.87L70.1173 207.736L68.7168 209.835L63.1158 211.934L61.7153 212.866L61.0156 212.167L60.5484 210.301L61.0156 208.669L60.0817 207.036L57.9815 205.171L57.5149 204.471L54.9474 204.704L54.2472 204.938H54.0141L50.2798 203.538L47.946 199.807L44.2116 197.942L41.4111 197.242L40.0112 195.61L39.0773 193.511L38.144 191.878V191.645L37.4437 189.313L36.5104 189.08H36.2768L32.5425 189.546L33.0097 181.151L38.8443 175.088L40.2442 172.056L42.578 165.527L44.2116 162.495L46.3124 159.93L47.946 157.365L48.4126 155.266L50.0462 155.033L54.7138 156.898L58.9148 157.831L60.0817 156.898L60.5484 155.732L60.3153 154.8L56.8146 152.001L54.7138 150.135L54.4808 148.969L55.181 146.404L55.6477 143.606L55.181 140.574L52.8472 133.811L52.38 131.013L54.4808 127.515L61.7153 119.12L64.0491 115.855L67.3168 112.124L76.1855 103.029L81.7864 97.6654L85.5208 94.634L91.1217 89.5034L93.4556 86.7051L103.724 84.8394L104.891 82.2742L106.758 79.4759L108.159 78.3099L108.392 73.6459L106.525 68.049L105.125 65.9502L103.958 64.551L104.658 63.385L105.825 62.9185L107.225 62.6853L108.859 61.2862L108.392 59.887L104.191 56.1559L102.324 53.3573L99.5237 46.1281L93.6892 38.6658L91.822 36.3338L91.5884 34.0018L92.5223 31.6698L91.5884 28.6381L89.4882 24.907L89.7212 24.4404L89.4882 19.7764L90.8881 18.8438L93.2219 18.1441L96.4896 18.3772L99.2901 19.0769L102.791 21.1758L103.958 20.9424L109.792 16.9781L115.861 10.9149L117.494 7.41692L118.894 5.78434L124.029 4.85177L128.463 4.3852H131.263L138.265 3.68577L142.466 2.98605L146.2 1.82005L153.901 1.35376L166.038 2.05319H173.973L179.34 2.51976L192.643 5.78434L197.544 6.48406L199.878 8.11635L204.312 8.81606L212.247 10.4484L219.249 11.3812L223.916 10.9149L226.484 11.3812L231.385 19.0769L232.318 20.0098L234.418 20.2429L238.386 19.5432L244.221 19.7764L247.722 21.4089L247.254 25.8398L248.188 26.5392L249.822 26.3061L251.689 23.7409L253.323 21.1758L254.49 20.2429L260.324 22.1084L263.125 21.8752L265.692 19.7764L267.326 19.5432L271.527 20.9424L276.661 21.8752H280.862L283.429 23.0412L285.296 27.7052L286.929 28.6381L288.564 28.8712L290.897 24.6738L292.998 23.0412L296.032 21.8752L297.899 21.4089L299.299 20.0098L301.166 18.6104L302.8 18.3772L304.2 18.8438L305.6 20.9424L307.701 25.6064L310.268 30.2704L312.135 31.903L317.036 30.5038L320.303 29.1044L326.371 28.8712L334.306 27.9384L340.374 26.5392L344.108 26.7724L346.442 28.1718L349.943 30.9701L350.877 34.9344L355.311 37.733L359.045 38.1993L360.212 35.401L362.312 33.3021L361.379 30.5038L360.912 27.0058L359.278 23.7409L358.111 20.2429L360.212 15.1124L362.312 10.6818L363.479 8.34978L366.98 3.91891L370.481 0.654045L375.848 -4.47625L379.583 -6.10883L383.084 -5.40911L384.95 -4.70968L389.851 -7.74111L398.72 -7.97426L406.188 -7.50797H406.888L410.622 -5.87568L414.357 -4.47625H416.924L419.958 -4.70968L423.692 -6.57511L426.259 -8.20769L429.293 -17.0691L430.46 -18.2351L432.094 -18.9349H434.894L440.262 -17.3023L446.563 -15.9031L450.297 -16.1363L460.1 -20.8003L465.467 -21.5L471.769 -20.334H478.07L482.738 -21.0337L486.005 -19.4011L489.972 -15.9031L493.707 -10.5397L497.441 -0.7451L508.643 10.2152L508.877 12.3141L507.943 13.7132L502.575 15.1124L497.908 15.8121L497.674 17.6778L498.841 19.7764L500.942 22.8081L501.175 26.5392V30.0372L502.109 33.069L503.975 34.235L504.209 35.8673L502.109 37.733L501.641 38.899L502.342 39.5984L512.377 40.065L517.279 41.9304L521.012 43.563L522.879 43.7961L527.08 42.6301L531.748 41.9304H534.549L535.716 43.0964L536.649 46.3613L538.283 49.6261L539.917 50.559L542.717 50.3259L544.351 50.559L545.284 51.725L544.351 53.5904L544.584 55.6893L545.751 58.2544L547.151 63.8513L548.552 65.4839L549.485 67.5825V70.1479L548.318 72.2465L547.618 73.8791L548.318 77.6102L551.352 81.8079L553.686 82.9739L555.553 86.7051L558.82 87.8711L563.488 84.6062L567.222 82.9739L571.89 83.9065L576.091 84.6062L578.891 86.7051L580.991 89.7365L583.325 91.3691L585.659 90.4362L590.794 91.3691L593.128 93.7011L595.462 95.1002L598.495 93.2345L600.829 90.9025L609.698 88.3374L615.299 87.6379L616.933 87.1714L620.2 85.3059L623.701 84.1399L626.735 84.3731L629.769 88.1042L633.036 90.6694L633.97 94.8671L637.937 100.464L647.506 108.159L651.24 110.491L653.807 110.025L655.207 109.325L655.908 108.626L656.374 104.895L657.541 103.495H659.408L666.876 108.159L670.844 108.626H674.578L679.712 112.357L685.314 115.622L689.514 115.855L693.015 114.689L695.349 113.989L696.749 115.155L698.15 117.954L700.484 120.053L703.051 120.752L706.785 120.985L713.086 124.95L719.154 129.147L722.888 129.381L726.156 128.215L728.956 127.981L730.824 128.914L731.29 130.78L729.89 133.112V136.61L732.457 139.875V143.139L731.757 145.938L730.356 148.503L726.623 152.234L723.355 155.732L718.221 157.132L715.42 158.531L716.12 161.096L717.988 163.428L722.188 165.294L727.089 166.693L727.556 168.325L726.856 169.025L723.822 169.724L719.387 169.025L717.988 170.424L715.887 172.523L714.487 176.487L713.553 180.218L718.221 181.151L721.021 182.55L721.955 185.582L722.888 188.847L723.122 191.878L721.488 193.278V194.677L722.188 195.376L724.289 195.61L725.922 196.309L726.156 197.942L723.122 201.44L720.321 208.202L718.921 211.7V215.665L717.287 217.764L714.253 217.997L703.751 218.463L694.649 218.23L690.681 217.764L684.614 217.53L681.58 218.463L677.612 224.76L674.578 227.092L669.444 229.191L663.842 229.89L660.575 232.455L659.408 236.42V239.918L658.942 241.783L657.775 243.416L657.308 244.582L657.541 245.748L658.942 246.214L660.575 246.681V247.613L659.875 248.779L658.241 249.945L657.541 251.811L657.775 253.91L659.408 256.009ZM417.857 300.084L423.225 302.416L417.857 301.716L405.722 299.384L400.354 297.285L398.953 294.953L398.253 291.688L401.287 295.186L403.388 296.586L417.857 300.084Z" fill="url(#paint0_linear_4001_29506)"/>
<g filter="url(#filter0_f_4001_29506)">
<path d="M136.398 122.674C133.224 122.398 130.588 121.799 128.112 121.799C125.636 121.799 124.772 119.917 124.772 119.152C124.772 118.387 126.78 117.767 129.256 117.767C131.733 117.767 139.572 122.951 136.398 122.674Z" fill="url(#paint1_radial_4001_29506)"/>
</g>
<g filter="url(#filter1_i_4001_29506)">
<path d="M128.273 86.9297C122.004 86.9297 116.922 92.0166 116.922 98.291C116.923 108.65 128.273 117.767 128.273 117.767C128.319 117.73 139.623 108.629 139.624 98.291C139.624 92.0167 134.541 86.9299 128.273 86.9297ZM128.272 92.8809C131.257 92.8809 133.677 95.3032 133.677 98.291C133.677 101.279 131.257 103.701 128.272 103.701C125.287 103.701 122.868 101.279 122.868 98.291C122.868 95.3034 125.287 92.8811 128.272 92.8809Z" fill="url(#paint2_radial_4001_29506)"/>
</g>
</g>
<defs>
<filter id="filter0_f_4001_29506" x="121.686" y="114.681" width="18.5433" height="11.0911" filterUnits="userSpaceOnUse" color-interpolation-filters="sRGB">
<feFlood flood-opacity="0" result="BackgroundImageFix"/>
<feBlend mode="normal" in="SourceGraphic" in2="BackgroundImageFix" result="shape"/>
<feGaussianBlur stdDeviation="1.54305" result="effect1_foregroundBlur_4001_29506"/>
</filter>
<filter id="filter1_i_4001_29506" x="116.922" y="86.9297" width="22.7012" height="30.8369" filterUnits="userSpaceOnUse" color-interpolation-filters="sRGB">
<feFlood flood-opacity="0" result="BackgroundImageFix"/>
<feBlend mode="normal" in="SourceGraphic" in2="BackgroundImageFix" result="shape"/>
<feColorMatrix in="SourceAlpha" type="matrix" values="0 0 0 0 0 0 0 0 0 0 0 0 0 0 0 0 0 0 127 0" result="hardAlpha"/>
<feOffset dx="0.453087" dy="-0.830659"/>
<feComposite in2="hardAlpha" operator="arithmetic" k2="-1" k3="1"/>
<feColorMatrix type="matrix" values="0 0 0 0 0.403922 0 0 0 0 0.2 0 0 0 0 0.0196078 0 0 0 0.29 0"/>
<feBlend mode="normal" in2="shape" result="effect1_innerShadow_4001_29506"/>
</filter>
<linearGradient id="paint0_linear_4001_29506" x1="415.142" y1="402.434" x2="415.142" y2="-33.4419" gradientUnits="userSpaceOnUse">
<stop stop-color="#E3E5EC" stop-opacity="0"/>
<stop offset="1" stop-color="#E3E5EC"/>
</linearGradient>
<radialGradient id="paint1_radial_4001_29506" cx="0" cy="0" r="1" gradientUnits="userSpaceOnUse" gradientTransform="translate(126.688 119.345) rotate(10.1883) scale(7.71224 11.7699)">
<stop stop-color="#81898D" stop-opacity="0.48"/>
<stop offset="1" stop-color="#81898D" stop-opacity="0"/>
</radialGradient>
<radialGradient id="paint2_radial_4001_29506" cx="0" cy="0" r="1" gradientUnits="userSpaceOnUse" gradientTransform="translate(116.664 82.0238) rotate(70.9751) scale(41.8851 74.0619)">
<stop stop-color="#FFAA00"/>
<stop offset="1" stop-color="#FF8800"/>
</radialGradient>
<clipPath id="clip0_4001_29506">
<rect width="327" height="450" fill="white"/>
</clipPath>
</defs>
</svg>
