<svg width="438" height="456" viewBox="0 0 438 456" fill="none" xmlns="http://www.w3.org/2000/svg">
<g clip-path="url(#clip0_516_27519)">
<path d="M368.965 80.7079C368.965 232.274 313.201 301.491 245.06 353.131C237.702 358.671 227.457 358.671 220.1 353.131C219.068 352.31 217.968 351.489 216.937 350.668C215.906 349.848 214.805 349.027 213.774 348.206C212.743 347.385 211.642 346.565 210.611 345.744C209.923 345.197 209.305 344.718 208.617 344.171C207.861 343.555 207.104 342.94 206.348 342.324C205.454 341.572 204.56 340.819 203.666 340.067C200.778 337.673 198.028 335.279 195.209 332.817C194.177 331.928 193.215 331.039 192.183 330.15C191.221 329.26 190.189 328.303 189.227 327.414C188.264 326.525 187.233 325.567 186.27 324.609C185.376 323.789 184.482 322.899 183.657 322.079C182.626 321.053 181.526 320.027 180.494 318.933C179.6 318.043 178.638 317.086 177.744 316.128C176.025 314.35 174.306 312.572 172.656 310.725C172.106 310.109 171.555 309.494 171.005 308.878C170.387 308.194 169.836 307.579 169.218 306.895C168.324 305.869 167.43 304.911 166.536 303.885C165.78 302.996 165.023 302.175 164.336 301.286C163.098 299.782 161.86 298.277 160.623 296.772C159.316 295.131 158.01 293.489 156.703 291.779C156.635 291.711 156.566 291.642 156.497 291.574C155.878 290.822 155.328 290.001 154.709 289.248C154.503 288.906 154.228 288.633 154.022 288.291C153.609 287.744 153.128 287.128 152.715 286.513C151.959 285.487 151.271 284.529 150.515 283.503C150.034 282.819 149.484 282.067 149.002 281.383C148.727 281.041 148.521 280.631 148.246 280.289C147.49 279.194 146.802 278.168 146.046 277.074C144.533 274.748 143.02 272.423 141.507 270.029C140.751 268.866 140.063 267.635 139.307 266.472C138.826 265.652 138.344 264.899 137.932 264.079C136.969 262.437 136.007 260.796 135.113 259.154C134.425 257.923 133.738 256.692 133.05 255.392C132.431 254.161 131.812 252.998 131.125 251.767C130.506 250.605 129.887 249.373 129.337 248.142C129.337 248.074 129.337 248.074 129.268 248.005C128.649 246.774 128.031 245.475 127.48 244.244C127.412 244.175 127.412 244.038 127.343 243.97C126.793 242.807 126.243 241.645 125.693 240.413C125.143 239.114 124.524 237.814 123.974 236.515C123.424 235.215 122.805 233.916 122.255 232.548C121.705 231.317 121.223 230.017 120.673 228.718C120.673 228.649 120.604 228.581 120.604 228.512C120.054 227.213 119.573 225.845 119.023 224.477C118.473 223.041 117.923 221.673 117.442 220.237C117.098 219.211 116.685 218.253 116.341 217.227C115.791 215.654 115.241 214.081 114.691 212.508C114.485 211.892 114.279 211.345 114.141 210.729C113.728 209.498 113.316 208.199 112.903 206.899C112.491 205.6 112.078 204.232 111.666 202.932C111.253 201.633 110.909 200.265 110.497 198.965C110.015 197.187 109.465 195.409 108.984 193.63C108.571 192.194 108.228 190.689 107.884 189.185C107.128 186.038 106.371 182.892 105.615 179.677C103.965 172.222 102.521 164.493 101.283 156.491C101.008 154.781 100.733 153.071 100.527 151.361C100.183 149.173 99.9078 147.052 99.6327 144.795C99.4264 143.085 99.2202 141.307 99.0139 139.597C99.0139 139.529 99.0139 139.46 99.0139 139.392C98.8076 137.408 98.5326 135.357 98.3951 133.305C98.12 130.774 97.9137 128.243 97.7075 125.644C97.6387 125.029 97.5699 124.413 97.5699 123.798C97.4324 122.293 97.2949 120.72 97.2261 119.147C97.0198 116.753 96.8823 114.359 96.7448 111.965C96.676 111.281 96.6761 110.597 96.6073 109.913C96.4698 107.109 96.3322 104.236 96.1947 101.364C95.7134 88.847 95.7134 75.7149 96.0572 61.9672C96.2635 57.9319 98.9451 54.6488 102.796 53.7597C142.745 43.9106 182.351 26.6747 221.613 3.21475C228.282 -0.752246 236.533 -0.752246 243.203 3.21475C282.396 26.6063 321.864 43.8422 361.676 53.6913C365.596 54.6488 368.415 58.0003 368.552 62.0356C368.965 68.4649 368.965 74.7574 368.965 80.7079Z" fill="#F9B21E"/>
<path d="M364.354 84.1944C364.354 235.761 308.59 304.978 240.517 356.617C233.16 362.157 222.915 362.157 215.558 356.617C144.735 302.994 87.1143 230.152 91.6524 65.5906C91.8587 61.5552 94.5403 58.2722 98.3909 57.3146C138.34 47.4655 177.877 30.2296 217.208 6.76968C223.878 2.80269 232.197 2.80269 238.798 6.76968C277.991 30.1612 317.46 47.3971 357.272 57.2462C361.191 58.2038 364.01 61.5552 364.148 65.5906C364.354 71.9515 364.354 78.2439 364.354 84.1944Z" fill="#F9B21E"/>
<path d="M368.965 80.7079C368.965 232.274 313.201 301.491 245.06 353.131C237.702 358.671 227.457 358.671 220.1 353.131C219.068 352.31 217.968 351.489 216.937 350.668C215.906 349.848 214.805 349.027 213.774 348.206C212.743 347.385 211.642 346.565 210.611 345.744C209.923 345.197 209.305 344.718 208.617 344.171C207.861 343.555 207.104 342.94 206.348 342.324C205.454 341.572 204.56 340.819 203.666 340.067C200.778 337.673 198.028 335.279 195.209 332.817C194.177 331.928 193.215 331.039 192.183 330.15C191.221 329.26 190.189 328.303 189.227 327.414C188.264 326.525 187.233 325.567 186.27 324.609C185.376 323.789 184.482 322.899 183.657 322.079C182.626 321.053 181.526 320.027 180.494 318.933C179.6 318.043 178.638 317.086 177.744 316.128C176.025 314.35 174.306 312.572 172.656 310.725C172.106 310.109 171.555 309.494 171.005 308.878C170.387 308.194 169.836 307.579 169.218 306.895C168.324 305.869 167.43 304.911 166.536 303.885C165.78 302.996 165.023 302.175 164.336 301.286C163.098 299.782 161.86 298.277 160.623 296.772C159.316 295.131 158.01 293.489 156.703 291.779C156.635 291.711 156.566 291.642 156.497 291.574C155.878 290.822 155.328 290.001 154.709 289.248C154.503 288.906 154.228 288.633 154.022 288.291C153.609 287.744 153.128 287.128 152.715 286.513C151.959 285.487 151.271 284.529 150.515 283.503C150.034 282.819 149.484 282.067 149.002 281.383C148.727 281.041 148.521 280.631 148.246 280.289C147.49 279.194 146.802 278.168 146.046 277.074C144.533 274.748 143.02 272.423 141.507 270.029C140.751 268.866 140.063 267.635 139.307 266.472C138.826 265.652 138.344 264.899 137.932 264.079C136.969 262.437 136.007 260.796 135.113 259.154C134.425 257.923 133.738 256.692 133.05 255.392C132.431 254.161 131.812 252.998 131.125 251.767C130.506 250.605 129.887 249.373 129.337 248.142C129.337 248.074 129.337 248.074 129.268 248.005C128.649 246.774 128.031 245.475 127.48 244.244C127.412 244.175 127.412 244.038 127.343 243.97C126.793 242.807 126.243 241.645 125.693 240.413C125.143 239.114 124.524 237.814 123.974 236.515C123.424 235.215 122.805 233.916 122.255 232.548C121.705 231.317 121.223 230.017 120.673 228.718C120.673 228.649 120.604 228.581 120.604 228.512C120.054 227.213 119.573 225.845 119.023 224.477C118.473 223.041 117.923 221.673 117.442 220.237C117.098 219.211 116.685 218.253 116.341 217.227C115.791 215.654 115.241 214.081 114.691 212.508C114.485 211.892 114.279 211.345 114.141 210.729C113.728 209.498 113.316 208.199 112.903 206.899C112.491 205.6 112.078 204.232 111.666 202.932C111.253 201.633 110.909 200.265 110.497 198.965C110.015 197.187 109.465 195.409 108.984 193.63C108.571 192.194 108.228 190.689 107.884 189.185C107.128 186.038 106.371 182.892 105.615 179.677C103.965 172.222 102.521 164.493 101.283 156.491C101.008 154.781 100.733 153.071 100.527 151.361C100.183 149.173 99.9078 147.052 99.6327 144.795C99.4264 143.085 99.2202 141.307 99.0139 139.597C99.0139 139.529 99.0139 139.46 99.0139 139.392C98.8076 137.408 98.5326 135.357 98.3951 133.305C98.12 130.774 97.9137 128.243 97.7075 125.644C97.6387 125.029 97.5699 124.413 97.5699 123.798C97.4324 122.293 97.2949 120.72 97.2261 119.147C97.0198 116.753 96.8823 114.359 96.7448 111.965C96.676 111.281 96.6761 110.597 96.6073 109.913C96.4698 107.109 96.3322 104.236 96.1947 101.364C95.7134 88.847 95.7134 75.7149 96.0572 61.9672C96.2635 57.9319 98.9451 54.6488 102.796 53.7597C142.745 43.9106 182.351 26.6747 221.613 3.21475C228.282 -0.752246 236.533 -0.752246 243.203 3.21475C282.396 26.6063 321.864 43.8422 361.676 53.6913C365.596 54.6488 368.415 58.0003 368.552 62.0356C368.965 68.4649 368.965 74.7574 368.965 80.7079Z" fill="#FFD488"/>
<path d="M254.617 320.506C250.698 323.447 245.128 320.575 245.128 315.718V176.874C245.128 174.89 245.472 172.975 246.228 171.197L270.775 108.135C271.119 107.315 270.432 106.425 269.469 106.425H247.947C247.328 106.425 246.985 106.425 246.847 106.904C246.641 107.383 245.884 107.246 245.884 106.699L245.197 39.1234C245.197 35.0196 249.735 32.4205 253.242 34.5408L253.31 34.6092C285.421 53.7602 317.738 67.8499 350.331 75.9207C353.494 76.7414 355.694 79.3405 355.831 82.6235C359.544 217.159 312.513 276.664 254.617 320.506Z" fill="#F9B21E"/>
<path d="M370.138 239.387L369.381 241.165C370.069 241.713 370.619 242.533 370.757 243.491C370.825 243.696 370.825 243.901 370.825 244.106C370.825 245.953 369.519 247.526 367.662 247.868L366.287 248.142L364.981 251.083L362.643 256.486L352.191 280.151L342.978 281.451L343.115 255.118L331.632 245.885C331.632 245.885 299.521 249.373 286.044 247.184L284.738 255.46C284.738 255.46 281.231 257.854 279.581 256.965L270.917 245.064C270.917 245.064 260.741 245.953 266.173 239.934L247.195 222.562C247.195 222.562 248.914 215.927 272.499 229.606L271.399 215.654C271.399 215.654 274.768 214.764 276.899 215.312C279.031 215.79 293.883 231.043 293.883 231.043C293.883 231.043 315.13 226.597 315.611 226.665L304.885 216.201L257.715 187.406C257.509 187.269 257.44 186.995 257.647 186.79C258.678 185.559 262.46 181.729 266.31 183.234C268.786 184.191 296.152 194.451 320.837 203.616L330.394 201.974C332.526 201.632 334.52 203 334.864 205.121C334.933 205.326 334.933 205.531 334.933 205.736C334.933 206.762 334.52 207.788 333.832 208.472C335.758 209.156 337.614 209.908 339.402 210.524L348.478 208.951C350.679 208.54 352.81 210.045 353.223 212.302C353.292 212.507 353.291 212.713 353.291 212.986C353.291 213.875 353.016 214.764 352.535 215.448C357.692 217.363 360.855 218.526 360.855 218.526L390.078 212.507C390.078 212.507 401.836 206.488 411.119 211.55C411.119 211.55 430.784 214.149 421.226 223.656C421.226 223.451 409.056 234.873 370.138 239.387Z" fill="#8B244F"/>
<path d="M365.455 252.863C365.455 254.573 364.286 256.078 362.567 256.42L364.905 251.016C365.111 251.358 365.249 251.769 365.317 252.248C365.455 252.453 365.455 252.658 365.455 252.863Z" fill="#8B244F"/>
<path d="M94.2697 166.887C78.1112 177.762 48.6133 192.809 49.2321 214.901C48.4758 212.097 48.407 209.019 48.8883 206.078C52.6701 186.722 77.2173 173.248 94.2697 166.887Z" fill="#8B244F"/>
<path d="M236.394 208.747C200.571 224.82 126.929 250.195 88.8358 240.825L86.4292 240.073L84.0914 239.183L81.8223 238.089C84.9165 239.389 88.1482 240.073 91.4487 240.483C98.806 241.441 106.301 241.03 113.658 240.346C122.734 239.457 131.673 237.952 140.612 236.106C172.929 229.403 204.971 218.938 236.394 208.747Z" fill="#8B244F"/>
<path d="M77.3539 197.734C65.5959 213.192 42.974 243.423 53.7692 263.053C66.8336 285.282 115.172 281.041 137.588 278.305C170.523 274.133 202.772 265.72 234.539 255.94C193.145 272.081 149.483 284.256 104.652 284.871C86.6365 284.598 60.2327 282.272 50.5375 264.831C39.3297 242.808 63.0518 213.465 77.3539 197.734Z" fill="#8B244F"/>
<path d="M307.7 274.064C252.348 294.788 132.019 327.619 77.2858 303.133C69.9285 299.713 62.9838 294.31 59.8208 286.649C62.2962 291.437 66.2842 295.199 70.8224 298.003C119.161 326.046 253.38 288.906 307.7 274.064Z" fill="#8B244F"/>
<path d="M165.368 134.605C165.024 134.605 164.749 134.81 164.612 135.083L160.005 145.958L159.042 148.216L150.516 172.086C150.241 172.77 149.278 172.838 149.003 172.086L123.081 105.81C122.943 105.399 122.531 105.126 122.049 105.126H108.641C107.885 105.126 107.335 105.947 107.61 106.631L147.353 205.121C147.491 205.463 147.766 205.6 148.109 205.6H150.929C151.272 205.6 151.547 205.395 151.685 205.053L179.189 135.562C179.395 135.015 178.983 134.468 178.433 134.468H165.368V134.605Z" fill="#EF990F"/>
<path d="M250.153 110.121L228.356 168.532C228.081 169.284 227.049 169.216 226.774 168.463L207.659 108.411C207.59 108.138 207.315 107.932 206.972 107.932H203.809L183.456 168.532C183.181 169.284 182.149 169.284 181.943 168.532L176.442 153.416C176.167 152.732 175.204 152.664 174.929 153.348L168.466 168.6C168.397 168.805 168.397 169.01 168.466 169.216L180.705 202.319C180.843 202.661 181.118 202.867 181.462 202.867H184.006C184.35 202.867 184.625 202.661 184.762 202.319L204.909 148.013C205.184 147.26 206.215 147.329 206.421 148.013L224.918 202.319C225.055 202.661 225.33 202.867 225.674 202.867H228.356C228.7 202.867 228.975 202.661 229.112 202.319L263.836 110.873C264.111 110.121 263.561 109.369 262.804 109.369H251.115C250.772 109.437 250.359 109.711 250.153 110.121ZM169.704 134.607L169.566 134.675H164.891L160.077 145.619C160.009 145.824 160.009 146.029 160.077 146.234L166.266 163.197C166.541 163.881 167.503 163.949 167.778 163.265L174.242 147.944C174.311 147.739 174.311 147.534 174.242 147.329L169.704 134.607ZM159.871 109.437H148.182C147.426 109.437 146.875 110.19 147.15 110.942L158.083 141.241C158.358 141.925 159.321 141.994 159.596 141.31L161.59 136.591L163.172 132.897L163.584 131.94V131.803H167.366C167.916 131.803 168.329 131.256 168.122 130.708L160.971 110.258C160.765 109.711 160.352 109.437 159.871 109.437Z" fill="#EF990F"/>
<path d="M76.3706 428.902H71.5801L64.543 398.246H69.5028L74.4625 422.872L74.5897 424.305L75.0559 422.914L86.0781 398.246H90.8686L76.3706 428.902ZM99.304 398.246L95.5312 428.902H91.0377L94.8106 398.246H99.304ZM103.892 410.263L104.274 407.101H119.408L119.196 408.956L107.792 423.588C107.566 423.842 107.368 424.095 107.199 424.348C107.029 424.601 106.846 424.839 106.648 425.064L105.927 425.781L106.859 425.655H117.331L116.949 428.902H100.289L100.501 427.047L113.134 410.854L113.854 410.137L112.964 410.263H103.892ZM137.508 410.517C136.887 410.348 136.307 410.235 135.77 410.179C135.233 410.095 134.696 410.053 134.159 410.053C132.096 410.053 130.358 410.784 128.945 412.246C127.56 413.679 126.712 415.703 126.402 418.318C126.261 419.358 126.232 420.342 126.317 421.269C126.402 422.197 126.6 422.998 126.91 423.673C127.249 424.348 127.716 424.868 128.31 425.233C128.931 425.599 129.694 425.711 130.599 425.571C131.87 425.402 132.958 425.992 133.863 427.341C133.099 427.848 132.322 428.255 131.531 428.564C130.74 428.873 130.019 429.057 129.369 429.113C128.097 429.281 126.939 429.113 125.893 428.607C124.848 428.073 123.971 427.313 123.265 426.33C122.586 425.346 122.092 424.165 121.781 422.788C121.47 421.382 121.414 419.892 121.611 418.318C121.809 416.603 122.275 415.043 123.01 413.637C123.745 412.203 124.678 410.967 125.808 409.926C126.939 408.886 128.239 408.085 129.708 407.523C131.206 406.933 132.817 406.637 134.541 406.637C135.728 406.637 136.9 406.736 138.059 406.933C139.247 407.129 140.631 407.48 142.214 407.987L140.518 421.269C140.321 422.872 140.193 424.264 140.136 425.444C140.08 426.625 140.123 427.707 140.264 428.691L136.915 428.902C136.604 428.62 136.293 428.101 135.983 427.341C135.7 426.555 135.629 425.627 135.77 424.558L137.508 410.517ZM175.385 398.668H180.388L183.567 422.45L183.737 424.601L184.33 422.534L193.444 398.246H197.938L185.772 428.902H180.685L177.335 405.414L177.166 403.643L176.615 405.33L167.543 428.902H162.287L157.666 398.246H162.244L165.381 422.45L165.466 424.601L166.187 422.45L175.385 398.668ZM201.334 417.981C201.192 419.161 201.192 420.243 201.334 421.227C201.475 422.183 201.743 423.013 202.139 423.715C202.563 424.418 203.1 424.966 203.75 425.36C204.428 425.753 205.22 425.95 206.124 425.95C207.085 425.95 207.947 425.74 208.71 425.318C209.501 424.896 210.179 424.32 210.744 423.588C211.31 422.858 211.762 422.015 212.101 421.059C212.44 420.103 212.681 419.077 212.822 417.981C213.132 415.394 212.822 413.426 211.889 412.077C210.985 410.727 209.713 410.053 208.074 410.053C207.254 410.053 206.477 410.222 205.742 410.559C205.008 410.896 204.329 411.402 203.708 412.077C203.114 412.752 202.605 413.581 202.182 414.565C201.786 415.548 201.503 416.687 201.334 417.981ZM196.543 417.981C196.798 416.041 197.32 414.368 198.112 412.962C198.931 411.529 199.892 410.348 200.994 409.42C202.125 408.465 203.34 407.762 204.64 407.312C205.968 406.862 207.254 406.637 208.498 406.637C210.137 406.637 211.564 406.933 212.78 407.523C214.023 408.085 215.041 408.872 215.832 409.884C216.623 410.896 217.174 412.105 217.485 413.51C217.796 414.888 217.852 416.378 217.655 417.981C217.429 419.808 216.933 421.424 216.171 422.83C215.436 424.235 214.517 425.43 213.415 426.414C212.313 427.369 211.098 428.101 209.769 428.607C208.442 429.113 207.085 429.366 205.7 429.366C204.258 429.366 202.931 429.127 201.715 428.649C200.5 428.143 199.468 427.412 198.621 426.456C197.773 425.472 197.151 424.277 196.755 422.872C196.388 421.438 196.317 419.808 196.543 417.981ZM223.253 407.312L226.687 407.101C227.026 407.495 227.252 407.972 227.366 408.535C227.507 409.097 227.606 409.716 227.662 410.39L227.577 411.233L228.044 410.39C228.751 409.322 229.64 408.45 230.714 407.776C231.788 407.101 232.862 406.764 233.936 406.764C234.614 406.764 235.363 406.89 236.183 407.143L235.166 410.854C234.29 410.657 233.583 410.559 233.046 410.559C232.368 410.559 231.689 410.714 231.011 411.023C230.361 411.304 229.754 411.739 229.189 412.33C228.652 412.92 228.171 413.666 227.747 414.565C227.351 415.436 227.083 416.477 226.941 417.685L225.585 428.902H221.303L223.041 414.565C223.183 413.356 223.282 412.119 223.338 410.854C223.423 409.589 223.395 408.409 223.253 407.312ZM259.032 407.396L251.359 414.733L257.93 428.902H252.843L248.985 419.582L248.223 417.685L244.662 421.227C244.492 420.215 244.563 419.119 244.873 417.938C245.212 416.758 245.82 415.675 246.696 414.691C247.007 414.326 247.318 413.988 247.629 413.679C247.94 413.342 248.251 413.005 248.562 412.667L254.03 407.101L259.032 407.396ZM245.509 397.234L241.609 428.902H237.116L241.058 396.939L245.509 397.234ZM283.427 398.246H287.962L295.296 428.902H290.379L285.037 404.74L284.911 403.433L284.402 404.782L278.425 417.559L277.831 418.402L278.339 418.318H283.342C283.879 418.318 284.331 418.416 284.698 418.613C285.094 418.81 285.419 419.077 285.673 419.414C285.956 419.723 286.182 420.089 286.352 420.511C286.521 420.904 286.648 421.312 286.734 421.734H276.475L273.168 428.902H268.589L283.427 398.246ZM298.382 418.318C298.58 416.603 299.046 415.043 299.781 413.637C300.516 412.203 301.448 410.967 302.579 409.926C303.71 408.886 305.009 408.085 306.479 407.523C307.949 406.933 309.545 406.637 311.269 406.637C312.456 406.637 313.643 406.736 314.83 406.933C316.017 407.129 317.402 407.48 318.985 407.987L316.441 428.902C316.215 430.589 315.763 432.079 315.085 433.372C314.434 434.693 313.586 435.803 312.541 436.703C311.524 437.602 310.351 438.277 309.023 438.727C307.694 439.205 306.253 439.444 304.698 439.444C303.596 439.444 302.395 439.331 301.095 439.106C299.795 438.881 298.453 438.404 297.068 437.673L298.637 434.51C299.852 435.072 300.954 435.466 301.943 435.691C302.932 435.944 303.879 436.07 304.783 436.07C305.66 436.07 306.493 435.93 307.285 435.649C308.104 435.396 308.825 434.988 309.446 434.426C310.096 433.864 310.633 433.161 311.057 432.317C311.51 431.502 311.806 430.518 311.948 429.366L314.279 410.517C313.657 410.348 313.078 410.235 312.541 410.179C312.004 410.095 311.467 410.053 310.93 410.053C308.867 410.053 307.129 410.784 305.716 412.246C304.331 413.679 303.484 415.703 303.173 418.318C303.031 419.358 303.003 420.356 303.087 421.312C303.173 422.239 303.385 423.054 303.723 423.757C304.062 424.432 304.529 424.952 305.123 425.318C305.744 425.655 306.508 425.753 307.412 425.613C308.09 425.556 308.683 425.683 309.192 425.992C309.729 426.302 310.223 426.779 310.676 427.426C309.913 427.904 309.136 428.298 308.344 428.607C307.553 428.916 306.832 429.113 306.182 429.197C304.91 429.338 303.752 429.155 302.706 428.649C301.661 428.115 300.785 427.356 300.078 426.372C299.371 425.36 298.863 424.165 298.552 422.788C298.241 421.382 298.184 419.892 298.382 418.318ZM332.395 415.535H337.312C337.51 414.776 337.553 414.059 337.439 413.384C337.355 412.709 337.157 412.119 336.846 411.613C336.535 411.107 336.111 410.714 335.574 410.432C335.066 410.123 334.472 409.969 333.794 409.969C332.974 409.969 332.197 410.137 331.462 410.475C330.728 410.812 330.063 411.304 329.47 411.95C328.876 412.597 328.368 413.412 327.943 414.396C327.548 415.352 327.265 416.462 327.096 417.728C326.955 418.964 326.983 420.089 327.18 421.101C327.378 422.113 327.717 422.985 328.198 423.715C328.707 424.418 329.328 424.966 330.063 425.36C330.826 425.753 331.674 425.95 332.607 425.95C333.595 425.95 334.542 425.852 335.447 425.655C336.351 425.43 337.467 425.022 338.796 424.432L339.601 427.51C338.075 428.241 336.648 428.733 335.32 428.986C333.992 429.239 332.776 429.366 331.674 429.366C330.007 429.366 328.551 429.057 327.307 428.438C326.092 427.819 325.103 426.991 324.34 425.95C323.577 424.882 323.04 423.645 322.729 422.239C322.447 420.833 322.404 419.344 322.602 417.769C322.8 416.055 323.238 414.509 323.916 413.131C324.595 411.754 325.456 410.587 326.502 409.631C327.548 408.675 328.749 407.944 330.105 407.439C331.49 406.905 332.974 406.637 334.557 406.637C336.026 406.637 337.312 406.961 338.414 407.607C339.516 408.254 340.35 409.125 340.916 410.222C341.509 411.289 341.805 412.54 341.805 413.975C341.805 415.408 341.453 416.926 340.746 418.528H328.537C328.933 417.685 329.442 416.982 330.063 416.42C330.685 415.83 331.462 415.535 332.395 415.535ZM358.821 428.902L360.729 413.173C360.87 412.274 360.771 411.542 360.432 410.98C360.093 410.39 359.514 410.095 358.694 410.095C358.412 410.095 358.129 410.123 357.846 410.179C357.564 410.235 357.267 410.292 356.956 410.348C356.673 410.404 356.377 410.446 356.066 410.475C355.784 410.503 355.501 410.489 355.218 410.432C354.794 410.376 354.413 410.194 354.074 409.884C353.763 409.575 353.466 409.209 353.183 408.787C354.766 407.944 356.08 407.382 357.126 407.101C358.2 406.792 359.147 406.637 359.966 406.637C360.757 406.637 361.506 406.764 362.213 407.017C362.948 407.242 363.569 407.621 364.078 408.155C364.587 408.661 364.954 409.35 365.18 410.222C365.435 411.093 365.491 412.162 365.349 413.426L363.442 428.902H358.821ZM346.951 407.312L350.597 407.101C351.191 407.86 351.544 408.619 351.657 409.378C351.77 410.109 351.77 410.896 351.657 411.739L349.58 428.902H345.001L346.994 412.625C347.164 410.995 347.149 409.224 346.951 407.312ZM378.621 429.366C377.18 429.366 375.852 429.127 374.637 428.649C373.422 428.171 372.39 427.454 371.542 426.498C370.694 425.543 370.073 424.362 369.677 422.956C369.309 421.522 369.239 419.864 369.465 417.981C369.691 416.125 370.172 414.494 370.907 413.089C371.669 411.683 372.588 410.503 373.662 409.547C374.764 408.591 375.979 407.874 377.307 407.396C378.636 406.89 380.006 406.637 381.419 406.637C382.183 406.637 383.002 406.708 383.878 406.848C384.782 406.989 385.645 407.214 386.464 407.523L384.98 410.643C384.245 410.418 383.539 410.263 382.861 410.179C382.183 410.095 381.561 410.053 380.996 410.053C380.204 410.053 379.441 410.222 378.707 410.559C377.972 410.896 377.294 411.402 376.671 412.077C376.078 412.724 375.569 413.539 375.146 414.523C374.721 415.507 374.425 416.659 374.255 417.981C373.944 420.651 374.255 422.647 375.188 423.968C376.149 425.289 377.435 425.95 379.046 425.95C379.639 425.95 380.317 425.866 381.08 425.697C381.844 425.5 382.734 425.191 383.751 424.77L384.514 427.89C383.299 428.452 382.183 428.832 381.165 429.028C380.148 429.253 379.3 429.366 378.621 429.366ZM389.523 435.902C390.315 435.902 391.007 435.691 391.601 435.269C392.223 434.847 392.788 434.257 393.297 433.498C393.833 432.739 394.342 431.84 394.823 430.8C395.332 429.759 395.882 428.607 396.476 427.341L405.463 407.101L409.999 407.396L399.74 428.438C398.949 430.012 398.2 431.46 397.493 432.781C396.787 434.102 396.038 435.241 395.247 436.197C394.456 437.181 393.565 437.94 392.576 438.474C391.615 439.036 390.456 439.318 389.1 439.318C387.885 439.261 386.684 439.022 385.497 438.6L386.98 435.522C387.856 435.775 388.704 435.902 389.523 435.902ZM393.339 407.101C393.791 409.406 394.257 411.726 394.738 414.059C395.247 416.392 395.642 418.697 395.925 420.974C396.009 421.677 396.009 422.394 395.925 423.125C395.84 423.856 395.699 424.558 395.501 425.233C395.303 425.88 395.049 426.484 394.738 427.047C394.456 427.609 394.145 428.073 393.805 428.438L388.548 407.101H393.339Z" fill="#8B244F"/>
<path opacity="0.5" d="M0 446.424C61.1962 450.528 448.933 478.775 436.556 389.586C433.324 371.119 418.197 356.277 404.995 343.898C418.472 356.141 433.806 370.914 437.312 389.45C450.033 481.238 62.8465 452.374 0 446.424Z" fill="#8B244F"/>
</g>
<defs>
<clipPath id="clip0_516_27519">
<rect width="438" height="455.52" fill="white" transform="translate(0 0.23999)"/>
</clipPath>
</defs>
</svg>
