<svg width="32" height="32" viewBox="0 0 32 32" fill="none" xmlns="http://www.w3.org/2000/svg">
<path fill-rule="evenodd" clip-rule="evenodd" d="M22.6696 28.0045H9.33067C6.38393 28.0045 3.99512 25.6157 3.99512 22.669V11.9979C3.99512 10.5245 5.18952 9.33008 6.66289 9.33008H25.3373C26.8107 9.33008 28.0051 10.5245 28.0051 11.9979V22.669C28.0051 25.6157 25.6163 28.0045 22.6696 28.0045Z" stroke="#21711A" stroke-width="2.6773" stroke-linecap="round" stroke-linejoin="round"/>
<path d="M10.6641 9.33067V6.66289C10.6641 5.18952 11.8585 3.99512 13.3318 3.99512H18.6674C20.1408 3.99512 21.3352 5.18952 21.3352 6.66289V9.33067" stroke="#21711A" stroke-width="2.6773" stroke-linecap="round" stroke-linejoin="round"/>
<rect x="13.332" y="14.666" width="5.33556" height="4.00167" rx="0.535461" stroke="#21711A" stroke-width="2.6773" stroke-linecap="round" stroke-linejoin="round"/>
<path d="M18.668 16.6667H23.3366C25.915 16.6667 28.0052 14.5764 28.0052 11.998V11.998" stroke="#21711A" stroke-width="2.6773" stroke-linecap="round" stroke-linejoin="round"/>
<path d="M13.3323 16.6667H8.66373C6.08533 16.6667 3.99512 14.5764 3.99512 11.998V11.998" stroke="#21711A" stroke-width="2.6773" stroke-linecap="round" stroke-linejoin="round"/>
</svg>
