<svg width="32" height="32" viewBox="0 0 32 32" fill="none" xmlns="http://www.w3.org/2000/svg">
<path d="M21.3337 24.2747V18.667" stroke="#FF9807" stroke-width="2.6773" stroke-linecap="round" stroke-linejoin="round"/>
<path d="M10.6667 24.2747V18.667" stroke="#FF9807" stroke-width="2.6773" stroke-linecap="round" stroke-linejoin="round"/>
<path d="M15.9997 20V27.6666" stroke="#FF9807" stroke-width="2.6773" stroke-linecap="round" stroke-linejoin="round"/>
<path fill-rule="evenodd" clip-rule="evenodd" d="M16.9783 11.2887L14.1595 11.9799C13.9331 12.0355 13.6941 11.9687 13.5293 11.8039C13.3644 11.639 13.2977 11.4001 13.3532 11.1737L14.0445 8.35476C14.1628 7.87236 14.5395 7.49572 15.0219 7.37743L17.8407 6.68619C18.0671 6.63067 18.3061 6.69744 18.4709 6.86227C18.6357 7.0271 18.7025 7.26606 18.647 7.49246L17.9557 10.3114C17.8374 10.7938 17.4607 11.1704 16.9783 11.2887Z" stroke="#FF9807" stroke-width="2.6773" stroke-linecap="round" stroke-linejoin="round"/>
<circle cx="15.9997" cy="9.33366" r="6.66667" stroke="#FF9807" stroke-width="2.6773" stroke-linecap="round" stroke-linejoin="round"/>
<path d="M5.66667 11L4.64737 11.6116C4.24575 11.8525 4.00001 12.2865 4 12.7549V25.645C3.99998 26.1254 4.25835 26.5686 4.67636 26.8053C5.09437 27.042 5.60738 27.0356 6.01929 26.7884L9.89787 24.4613C10.3627 24.1824 10.9502 24.2127 11.3839 24.538L15.2 27.4C15.6741 27.7556 16.3259 27.7556 16.8 27.4L20.6162 24.5379C21.0498 24.2126 21.6373 24.1823 22.1022 24.4613L25.9807 26.7884C26.3926 27.0355 26.9057 27.042 27.3236 26.8053C27.7416 26.5686 28 26.1254 28 25.645V12.7549C28 12.2865 27.7542 11.8525 27.3526 11.6116L26.3333 11" stroke="#FF9807" stroke-width="2.6773" stroke-linecap="round" stroke-linejoin="round"/>
</svg>
