<svg width="32" height="33" viewBox="0 0 32 33" fill="none" xmlns="http://www.w3.org/2000/svg">
<path d="M18.0007 11.7493V9.33045C18.0007 8.40959 17.2542 7.66309 16.3333 7.66309H15.6664C14.7455 7.66309 13.999 8.40959 13.999 9.33045V11.6648" stroke="#2563FF" stroke-width="2.6773" stroke-linecap="round" stroke-linejoin="round"/>
<path d="M16 4.99512V7.66289" stroke="#2563FF" stroke-width="2.6773" stroke-linecap="round" stroke-linejoin="round"/>
<path d="M14.8688 7.86583L13.332 6.3291" stroke="#2563FF" stroke-width="2.6773" stroke-linecap="round" stroke-linejoin="round"/>
<path d="M17.1318 7.86506L18.6678 6.3291" stroke="#2563FF" stroke-width="2.6773" stroke-linecap="round" stroke-linejoin="round"/>
<path d="M29.339 29.0058H3.99512" stroke="#2563FF" stroke-width="2.6773" stroke-linecap="round" stroke-linejoin="round"/>
<path d="M20.026 20.9877L26.2802 14.7335C26.8011 14.2126 26.8011 13.368 26.2802 12.8471L24.1548 10.7217C23.6379 10.2048 22.8012 10.2003 22.2787 10.7116L19.75 13.1859" stroke="#2563FF" stroke-width="2.6773" stroke-linecap="round" stroke-linejoin="round"/>
<path fill-rule="evenodd" clip-rule="evenodd" d="M5.9148 3.74242L7.3296 2.32762L8.74441 3.74242C9.52578 4.5238 9.52578 5.79066 8.74441 6.57203V6.57203C7.96303 7.3534 6.69618 7.3534 5.9148 6.57203V6.57203C5.13343 5.79066 5.13343 4.5238 5.9148 3.74242V3.74242Z" stroke="#2563FF" stroke-width="2.6773" stroke-linecap="round" stroke-linejoin="round"/>
<path d="M10.6641 29.0047V26.3369L20.0013 16.4541" stroke="#2563FF" stroke-width="2.6773" stroke-linecap="round" stroke-linejoin="round"/>
<path d="M20.002 23.6694H22.6697C23.4064 23.6694 24.0036 23.0722 24.0036 22.3356V17" stroke="#2563FF" stroke-width="2.6773" stroke-linecap="round" stroke-linejoin="round"/>
<path d="M11.9986 24.9258V17.0003L6.66309 11.6648V7.66309H7.99697L11.9986 11.6648H17.3342C18.8076 11.6648 20.002 12.8592 20.002 14.3325V29.0053" stroke="#2563FF" stroke-width="2.6773" stroke-linecap="round" stroke-linejoin="round"/>
</svg>
