<svg width="32" height="32" viewBox="0 0 32 32" fill="none" xmlns="http://www.w3.org/2000/svg">
<path d="M15.9997 22.7734V28.0006" stroke="#B5220F" stroke-width="2.6773" stroke-linecap="round" stroke-linejoin="round"/>
<path d="M4 28.0007V26.0387C4 24.1319 5.34584 22.4903 7.21553 22.1163L11.0102 21.3574C11.3238 21.2947 11.6496 21.3591 11.9157 21.5365V21.5365C14.389 23.1854 17.6111 23.1854 20.0844 21.5365V21.5365C20.3505 21.3591 20.6763 21.2947 20.9899 21.3574L24.7846 22.1163C26.6542 22.4903 28 24.132 28 26.0387V28.0007" stroke="#B5220F" stroke-width="2.6773" stroke-linecap="round" stroke-linejoin="round"/>
<path d="M21.3337 9.86523V13.3341C21.3337 16.2796 18.9458 18.6674 16.0003 18.6674V18.6674C13.0548 18.6674 10.667 16.2796 10.667 13.3341V9.86523" stroke="#B5220F" stroke-width="2.6773" stroke-linecap="round" stroke-linejoin="round"/>
<path d="M18.8021 17.875L19.7676 21.737" stroke="#B5220F" stroke-width="2.6773" stroke-linecap="round" stroke-linejoin="round"/>
<path d="M13.2021 17.875L12.2367 21.7368" stroke="#B5220F" stroke-width="2.6773" stroke-linecap="round" stroke-linejoin="round"/>
<path fill-rule="evenodd" clip-rule="evenodd" d="M8.12882 8.60856L14.0682 11.5489C15.2855 12.1508 16.7138 12.1508 17.9312 11.5489L23.8705 8.60856C24.3575 8.37047 24.6663 7.87574 24.6663 7.33366C24.6663 6.79157 24.3575 6.29684 23.8705 6.05875L17.9312 3.11844C16.7138 2.51651 15.2855 2.51651 14.0682 3.11844L8.12882 6.05875C7.64182 6.29684 7.33301 6.79157 7.33301 7.33366C7.33301 7.87574 7.64182 8.37047 8.12882 8.60856Z" stroke="#B5220F" stroke-width="2.6773" stroke-linecap="round" stroke-linejoin="round"/>
<path d="M24.6667 7.37988V10.8465" stroke="#B5220F" stroke-width="2.6773" stroke-linecap="round" stroke-linejoin="round"/>
</svg>
