<svg width="375" height="156" viewBox="0 0 375 156" fill="none" xmlns="http://www.w3.org/2000/svg">
<g opacity="0.2">
<path d="M21.3367 64.3718L-2 -0.377991H9.89806L28.5031 51.1906L47.1542 -0.377991H59.0063L35.6695 64.3718H21.3367Z" fill="url(#paint0_linear_416_18978)"/>
<path d="M59.7987 18.122H71.0077V64.3718H59.7987V18.122ZM65.4951 14.8383C63.8413 14.8383 62.4478 14.2987 61.3147 13.2196C60.1815 12.1096 59.615 10.7221 59.615 9.05707C59.615 7.42291 60.1815 6.05083 61.3147 4.94083C62.4478 3.83084 63.826 3.27584 65.4492 3.27584C67.0723 3.27584 68.4351 3.83084 69.5377 4.94083C70.6708 6.05083 71.2374 7.42291 71.2374 9.05707C71.2374 10.7221 70.6861 12.1096 69.5836 13.2196C68.4811 14.2987 67.1182 14.8383 65.4951 14.8383Z" fill="url(#paint1_linear_416_18978)"/>
<path d="M154.827 18.122H166.036V64.3718H154.827L154.322 58.6368C153.066 60.7026 151.397 62.383 149.315 63.678C147.263 64.9422 144.828 65.5743 142.011 65.5743C138.611 65.5743 135.426 64.9268 132.455 63.6318C129.485 62.3368 126.866 60.5485 124.6 58.2668C122.364 55.9851 120.603 53.3489 119.317 50.3581C118.061 47.3673 117.434 44.1606 117.434 40.7381C117.434 37.439 118.031 34.3402 119.225 31.4419C120.45 28.5436 122.15 25.9998 124.324 23.8107C126.499 21.6215 129.01 19.9103 131.858 18.6769C134.706 17.4436 137.769 16.827 141.046 16.827C144.078 16.827 146.788 17.5053 149.177 18.8619C151.596 20.2186 153.648 21.9453 155.333 24.0419L154.827 18.122ZM141.735 54.7056C144.124 54.7056 146.237 54.1043 148.074 52.9018C149.912 51.6993 151.351 50.0806 152.393 48.0456C153.434 45.9798 153.955 43.7135 153.955 41.2469C153.955 38.7494 153.434 36.4831 152.393 34.4481C151.351 32.3823 149.897 30.7481 148.029 29.5457C146.191 28.3432 144.093 27.7419 141.735 27.7419C139.377 27.7419 137.218 28.3586 135.258 29.5919C133.328 30.7944 131.782 32.4131 130.618 34.4481C129.485 36.4831 128.918 38.7494 128.918 41.2469C128.918 43.7444 129.5 46.0106 130.664 48.0456C131.828 50.0806 133.374 51.6993 135.304 52.9018C137.264 54.1043 139.407 54.7056 141.735 54.7056Z" fill="url(#paint2_linear_416_18978)"/>
<path d="M115.913 27.7419L90.3711 54.7518H115.913V64.3718H76.6815V54.7518L102.223 27.7419H76.6815V18.1219H115.913V27.7419Z" fill="url(#paint3_linear_416_18978)"/>
<path d="M196.472 64.3748L180.026 -0.375017H191.602L202.811 43.8861L214.02 -0.375017H224.264L235.473 43.8861L246.636 -0.375017H258.213L241.859 64.3748H229.134L219.119 25.1549L209.243 64.3748H196.472Z" fill="url(#paint4_linear_416_18978)"/>
<path d="M276.145 65.5772C271.919 65.5772 268.06 64.4827 264.569 62.2935C261.108 60.1044 258.337 57.1752 256.254 53.506C254.202 49.8061 253.176 45.7207 253.176 41.2498C253.176 37.8582 253.773 34.6978 254.968 31.7686C256.162 28.8086 257.801 26.2186 259.883 23.9987C261.996 21.7478 264.446 19.9903 267.233 18.7262C270.02 17.462 272.991 16.8299 276.145 16.8299C280.372 16.8299 284.215 17.9245 287.676 20.1137C291.167 22.3028 293.939 25.2474 295.991 28.9474C298.073 32.6474 299.115 36.7482 299.115 41.2498C299.115 44.6107 298.517 47.7557 297.323 50.6848C296.129 53.614 294.475 56.204 292.362 58.4548C290.279 60.6748 287.844 62.4169 285.058 63.681C282.301 64.9452 279.331 65.5772 276.145 65.5772ZM276.145 54.2923C278.381 54.2923 280.387 53.691 282.163 52.4885C283.94 51.286 285.333 49.6981 286.344 47.7248C287.385 45.7515 287.906 43.5932 287.906 41.2498C287.906 38.8448 287.37 36.6557 286.298 34.6824C285.257 32.6782 283.832 31.0903 282.026 29.9186C280.249 28.7161 278.289 28.1149 276.145 28.1149C273.94 28.1149 271.95 28.7161 270.173 29.9186C268.397 31.1211 266.988 32.7244 265.947 34.7286C264.906 36.7328 264.385 38.9065 264.385 41.2498C264.385 43.6857 264.921 45.8902 265.993 47.8636C267.065 49.8369 268.489 51.4094 270.265 52.581C272.072 53.7219 274.032 54.2923 276.145 54.2923Z" fill="url(#paint5_linear_416_18978)"/>
<path d="M302.638 64.3748L302.592 18.1249H313.801L313.847 22.2412C315.409 20.5762 317.277 19.2657 319.452 18.3099C321.626 17.3233 323.969 16.8299 326.48 16.8299C328.165 16.8299 329.849 17.0766 331.534 17.5699L327.124 28.9474C325.96 28.4849 324.796 28.2536 323.632 28.2536C321.825 28.2536 320.172 28.7007 318.671 29.5949C317.201 30.4582 316.022 31.6453 315.134 33.1561C314.276 34.6361 313.847 36.2857 313.847 38.1049V64.3748H302.638Z" fill="url(#paint6_linear_416_18978)"/>
<path d="M374.954 64.3748H362.045L351.571 46.1986L345.14 53.9223V64.3748H333.931V-5H345.14V36.3936L360.346 18.1249H375L359.243 37.0411L374.954 64.3748Z" fill="url(#paint7_linear_416_18978)"/>
<path d="M21.9701 68.125H34.8788L58.2615 132.875H46.3634L42.2289 121.405H14.6659L10.5314 132.875H-1.36664L21.9701 68.125ZM18.7544 110.12H38.0945L28.4015 83.4337L18.7544 110.12Z" fill="url(#paint8_linear_416_18978)"/>
<path d="M93.2401 86.6249H104.449V133.754C104.449 137.084 103.775 140.105 102.428 142.819C101.08 145.563 99.2426 147.906 96.9151 149.848C94.5876 151.822 91.9231 153.333 88.9218 154.381C85.9205 155.46 82.7661 156 79.4585 156C76.2428 156 73.1496 155.337 70.1789 154.011C67.2082 152.685 64.5744 150.866 62.2775 148.553C60.0112 146.272 58.2809 143.666 57.0865 140.737L67.3307 136.066C67.9433 137.762 68.862 139.242 70.087 140.506C71.3427 141.801 72.7821 142.803 74.4053 143.512C76.0285 144.252 77.7128 144.622 79.4585 144.622C81.2348 144.622 82.9345 144.376 84.5576 143.882C86.2114 143.389 87.6968 142.664 89.0137 141.708C90.3306 140.783 91.3565 139.643 92.0916 138.286C92.8572 136.96 93.2401 135.449 93.2401 133.754V127.232C91.8006 129.267 89.9937 130.917 87.8193 132.181C85.6449 133.445 83.1336 134.077 80.2854 134.077C76.9778 134.077 73.8846 133.445 71.0058 132.181C68.127 130.917 65.5851 129.175 63.3801 126.955C61.2056 124.704 59.4906 122.114 58.2349 119.185C57.0099 116.256 56.3974 113.111 56.3974 109.75C56.3974 106.389 57.0099 103.244 58.2349 100.315C59.4906 97.3857 61.2056 94.8112 63.3801 92.5912C65.5851 90.3403 68.127 88.5828 71.0058 87.3187C73.8846 86.0545 76.9778 85.4225 80.2854 85.4225C83.1336 85.4225 85.6449 86.0545 87.8193 87.3187C89.9937 88.552 91.8006 90.1862 93.2401 92.2212V86.6249ZM80.4232 123.209C82.7814 123.209 84.8639 122.607 86.6708 121.405C88.5083 120.171 89.9478 118.537 90.9891 116.502C92.0303 114.437 92.5509 112.186 92.5509 109.75C92.5509 107.283 92.015 105.032 90.9431 102.997C89.9018 100.962 88.4624 99.3282 86.6249 98.0949C84.8179 96.8615 82.7508 96.2449 80.4232 96.2449C78.1263 96.2449 76.0284 96.8615 74.1296 98.0949C72.2309 99.2974 70.7149 100.916 69.5817 102.951C68.4486 104.986 67.882 107.252 67.882 109.75C67.882 112.247 68.4486 114.514 69.5817 116.549C70.7149 118.584 72.2309 120.202 74.1296 121.405C76.0284 122.607 78.1263 123.209 80.4232 123.209Z" fill="url(#paint9_linear_416_18978)"/>
<path d="M130.961 134.077C126.735 134.077 122.876 132.983 119.385 130.794C115.924 128.604 113.152 125.66 111.07 121.96C109.018 118.26 107.992 114.174 107.992 109.704C107.992 106.343 108.589 103.198 109.784 100.269C110.978 97.3086 112.616 94.7187 114.699 92.4987C116.812 90.2479 119.262 88.4903 122.049 87.2262C124.836 85.962 127.807 85.33 130.961 85.33C134.544 85.33 137.821 86.1008 140.792 87.6424C143.793 89.1533 146.335 91.2345 148.418 93.8862C150.5 96.5378 152.016 99.5595 152.966 102.951C153.915 106.343 154.13 109.889 153.609 113.589H120.028C120.457 115.315 121.161 116.872 122.141 118.26C123.121 119.617 124.361 120.711 125.862 121.544C127.363 122.345 129.062 122.761 130.961 122.792C132.921 122.823 134.698 122.361 136.29 121.405C137.913 120.418 139.261 119.092 140.333 117.427L151.771 120.11C149.903 124.211 147.116 127.571 143.411 130.192C139.705 132.782 135.555 134.077 130.961 134.077ZM119.66 105.125H142.262C141.925 103.275 141.206 101.61 140.103 100.13C139.031 98.6191 137.699 97.4166 136.106 96.5224C134.514 95.6282 132.799 95.1812 130.961 95.1812C129.124 95.1812 127.424 95.6282 125.862 96.5224C124.3 97.3857 122.968 98.5728 121.865 100.084C120.794 101.564 120.059 103.244 119.66 105.125Z" fill="url(#paint10_linear_416_18978)"/>
<path d="M199.488 103.645V132.875H188.279V106.605C188.279 104.786 187.835 103.136 186.947 101.656C186.058 100.145 184.864 98.9582 183.363 98.0949C181.893 97.2007 180.255 96.7536 178.448 96.7536C176.641 96.7536 174.987 97.2007 173.487 98.0949C172.017 98.9582 170.837 100.145 169.949 101.656C169.092 103.136 168.663 104.786 168.663 106.605V132.875H157.454L157.408 86.6249H168.617L168.663 90.7412C170.225 89.0762 172.093 87.7658 174.268 86.8099C176.442 85.8233 178.785 85.33 181.296 85.33C184.634 85.33 187.682 86.1624 190.438 87.8274C193.194 89.4616 195.384 91.6662 197.007 94.4412C198.661 97.1853 199.488 100.253 199.488 103.645Z" fill="url(#paint11_linear_416_18978)"/>
<path d="M234.387 118.954L244.494 124.457C242.381 127.356 239.732 129.684 236.547 131.441C233.361 133.199 229.885 134.077 226.118 134.077C221.892 134.077 218.033 132.983 214.542 130.794C211.081 128.604 208.31 125.675 206.227 122.006C204.175 118.306 203.149 114.221 203.149 109.75C203.149 106.358 203.746 103.198 204.941 100.269C206.135 97.3086 207.774 94.7187 209.856 92.4987C211.969 90.2479 214.419 88.4903 217.206 87.2262C219.993 85.962 222.964 85.33 226.118 85.33C229.885 85.33 233.361 86.2087 236.547 87.9662C239.732 89.7237 242.381 92.0824 244.494 95.0424L234.387 100.5C233.315 99.2666 232.044 98.3107 230.574 97.6324C229.135 96.9541 227.65 96.6149 226.118 96.6149C223.913 96.6149 221.923 97.2316 220.146 98.4649C218.37 99.6674 216.961 101.271 215.92 103.275C214.879 105.248 214.358 107.407 214.358 109.75C214.358 112.062 214.879 114.221 215.92 116.225C216.961 118.198 218.37 119.786 220.146 120.989C221.923 122.191 223.913 122.792 226.118 122.792C227.711 122.792 229.227 122.453 230.666 121.775C232.106 121.066 233.346 120.125 234.387 118.954Z" fill="url(#paint12_linear_416_18978)"/>
<path d="M277.081 86.6249H288.979L263.85 156H251.952L260.267 132.875L243.729 86.6249H255.995L265.872 117.427L277.081 86.6249Z" fill="url(#paint13_linear_416_18978)"/>
</g>
<defs>
<linearGradient id="paint0_linear_416_18978" x1="226.983" y1="-241.108" x2="226.983" y2="85.5" gradientUnits="userSpaceOnUse">
<stop stop-color="#301D00" stop-opacity="0.64"/>
<stop offset="1" stop-color="#301D00" stop-opacity="0"/>
</linearGradient>
<linearGradient id="paint1_linear_416_18978" x1="226.983" y1="-241.108" x2="226.983" y2="85.5" gradientUnits="userSpaceOnUse">
<stop stop-color="#301D00" stop-opacity="0.64"/>
<stop offset="1" stop-color="#301D00" stop-opacity="0"/>
</linearGradient>
<linearGradient id="paint2_linear_416_18978" x1="226.983" y1="-241.108" x2="226.983" y2="85.5" gradientUnits="userSpaceOnUse">
<stop stop-color="#301D00" stop-opacity="0.64"/>
<stop offset="1" stop-color="#301D00" stop-opacity="0"/>
</linearGradient>
<linearGradient id="paint3_linear_416_18978" x1="226.983" y1="-241.108" x2="226.983" y2="85.5" gradientUnits="userSpaceOnUse">
<stop stop-color="#301D00" stop-opacity="0.64"/>
<stop offset="1" stop-color="#301D00" stop-opacity="0"/>
</linearGradient>
<linearGradient id="paint4_linear_416_18978" x1="226.983" y1="-241.108" x2="226.983" y2="85.5" gradientUnits="userSpaceOnUse">
<stop stop-color="#301D00" stop-opacity="0.64"/>
<stop offset="1" stop-color="#301D00" stop-opacity="0"/>
</linearGradient>
<linearGradient id="paint5_linear_416_18978" x1="226.983" y1="-241.108" x2="226.983" y2="85.5" gradientUnits="userSpaceOnUse">
<stop stop-color="#301D00" stop-opacity="0.64"/>
<stop offset="1" stop-color="#301D00" stop-opacity="0"/>
</linearGradient>
<linearGradient id="paint6_linear_416_18978" x1="226.983" y1="-241.108" x2="226.983" y2="85.5" gradientUnits="userSpaceOnUse">
<stop stop-color="#301D00" stop-opacity="0.64"/>
<stop offset="1" stop-color="#301D00" stop-opacity="0"/>
</linearGradient>
<linearGradient id="paint7_linear_416_18978" x1="226.983" y1="-241.108" x2="226.983" y2="85.5" gradientUnits="userSpaceOnUse">
<stop stop-color="#301D00" stop-opacity="0.64"/>
<stop offset="1" stop-color="#301D00" stop-opacity="0"/>
</linearGradient>
<linearGradient id="paint8_linear_416_18978" x1="226.983" y1="-241.108" x2="226.983" y2="85.5" gradientUnits="userSpaceOnUse">
<stop stop-color="#301D00" stop-opacity="0.64"/>
<stop offset="1" stop-color="#301D00" stop-opacity="0"/>
</linearGradient>
<linearGradient id="paint9_linear_416_18978" x1="226.983" y1="-241.108" x2="226.983" y2="85.5" gradientUnits="userSpaceOnUse">
<stop stop-color="#301D00" stop-opacity="0.64"/>
<stop offset="1" stop-color="#301D00" stop-opacity="0"/>
</linearGradient>
<linearGradient id="paint10_linear_416_18978" x1="226.983" y1="-241.108" x2="226.983" y2="85.5" gradientUnits="userSpaceOnUse">
<stop stop-color="#301D00" stop-opacity="0.64"/>
<stop offset="1" stop-color="#301D00" stop-opacity="0"/>
</linearGradient>
<linearGradient id="paint11_linear_416_18978" x1="226.983" y1="-241.108" x2="226.983" y2="85.5" gradientUnits="userSpaceOnUse">
<stop stop-color="#301D00" stop-opacity="0.64"/>
<stop offset="1" stop-color="#301D00" stop-opacity="0"/>
</linearGradient>
<linearGradient id="paint12_linear_416_18978" x1="226.983" y1="-241.108" x2="226.983" y2="85.5" gradientUnits="userSpaceOnUse">
<stop stop-color="#301D00" stop-opacity="0.64"/>
<stop offset="1" stop-color="#301D00" stop-opacity="0"/>
</linearGradient>
<linearGradient id="paint13_linear_416_18978" x1="226.983" y1="-241.108" x2="226.983" y2="85.5" gradientUnits="userSpaceOnUse">
<stop stop-color="#301D00" stop-opacity="0.64"/>
<stop offset="1" stop-color="#301D00" stop-opacity="0"/>
</linearGradient>
</defs>
</svg>
