<svg width="768" height="97" viewBox="0 0 768 97" fill="none" xmlns="http://www.w3.org/2000/svg">
<g opacity="0.2">
<path d="M25.9061 70.9609L0 -0.439062H13.208L33.8615 56.4259L54.566 -0.439062H67.723L41.8169 70.9609H25.9061Z" fill="url(#paint0_linear_2009_10971)"/>
<path d="M68.6027 19.9609H81.0458V70.9609H68.6027V19.9609ZM74.9262 16.34C73.0904 16.34 71.5435 15.745 70.2856 14.555C69.0276 13.331 68.3987 11.801 68.3987 9.96504C68.3987 8.16304 69.0276 6.65004 70.2856 5.42604C71.5435 4.20204 73.0734 3.59004 74.8752 3.59004C76.6771 3.59004 78.19 4.20204 79.4139 5.42604C80.6718 6.65004 81.3007 8.16304 81.3007 9.96504C81.3007 11.801 80.6888 13.331 79.4649 14.555C78.241 15.745 76.7281 16.34 74.9262 16.34Z" fill="url(#paint1_linear_2009_10971)"/>
<path d="M174.094 19.9609H186.537V70.9609H174.094L173.533 64.6369C172.139 66.9149 170.286 68.7679 167.974 70.1959C165.697 71.5899 162.994 72.2869 159.866 72.2869C156.092 72.2869 152.557 71.5729 149.259 70.1449C145.961 68.7169 143.054 66.7449 140.538 64.2289C138.057 61.7129 136.102 58.8059 134.674 55.5079C133.28 52.2099 132.583 48.6739 132.583 44.8999C132.583 41.2619 133.246 37.8449 134.572 34.6489C135.932 31.4529 137.819 28.6479 140.232 26.2339C142.646 23.8199 145.434 21.9329 148.596 20.5729C151.758 19.2129 155.157 18.5329 158.795 18.5329C162.161 18.5329 165.17 19.2809 167.821 20.7769C170.507 22.2729 172.785 24.1769 174.655 26.4889L174.094 19.9609ZM159.56 60.3019C162.212 60.3019 164.558 59.6389 166.598 58.3129C168.637 56.9869 170.235 55.2019 171.391 52.9579C172.547 50.6799 173.125 48.1809 173.125 45.4609C173.125 42.7069 172.547 40.2079 171.391 37.9639C170.235 35.6859 168.62 33.8839 166.547 32.5579C164.507 31.2319 162.178 30.5689 159.56 30.5689C156.942 30.5689 154.545 31.2489 152.37 32.6089C150.228 33.9349 148.511 35.7199 147.219 37.9639C145.961 40.2079 145.332 42.7069 145.332 45.4609C145.332 48.2149 145.978 50.7139 147.27 52.9579C148.562 55.2019 150.279 56.9869 152.421 58.3129C154.596 59.6389 156.976 60.3019 159.56 60.3019Z" fill="url(#paint2_linear_2009_10971)"/>
<path d="M226.25 70.9609L207.993 -0.439062H220.844L233.287 48.3679L245.73 -0.439062H257.102L269.545 48.3679L281.937 -0.439062H294.789L276.634 70.9609H262.508L251.391 27.7129L240.427 70.9609H226.25Z" fill="url(#paint3_linear_2009_10971)"/>
<path d="M314.695 72.2869C310.004 72.2869 305.72 71.0799 301.844 68.6659C298.003 66.2519 294.926 63.0219 292.614 58.9759C290.336 54.8959 289.197 50.3909 289.197 45.4609C289.197 41.7209 289.86 38.2359 291.186 35.0059C292.512 31.7419 294.331 28.8859 296.643 26.4379C298.988 23.9559 301.708 22.0179 304.802 20.6239C307.896 19.2299 311.194 18.5329 314.695 18.5329C319.387 18.5329 323.654 19.7399 327.495 22.1539C331.371 24.5679 334.448 27.8149 336.726 31.8949C339.038 35.9749 340.193 40.4969 340.193 45.4609C340.193 49.1669 339.53 52.6349 338.205 55.8649C336.879 59.0949 335.043 61.9509 332.697 64.4329C330.385 66.8809 327.682 68.8019 324.589 70.1959C321.529 71.5899 318.231 72.2869 314.695 72.2869ZM314.695 59.8429C317.177 59.8429 319.404 59.1799 321.376 57.8539C323.348 56.5279 324.895 54.7769 326.017 52.6009C327.172 50.4249 327.75 48.0449 327.75 45.4609C327.75 42.8089 327.155 40.3949 325.966 38.2189C324.81 36.0089 323.229 34.2579 321.223 32.9659C319.251 31.6399 317.075 30.9769 314.695 30.9769C312.248 30.9769 310.038 31.6399 308.066 32.9659C306.094 34.2919 304.53 36.0599 303.374 38.2699C302.218 40.4799 301.64 42.8769 301.64 45.4609C301.64 48.1469 302.235 50.5779 303.425 52.7539C304.615 54.9299 306.196 56.6639 308.168 57.9559C310.174 59.2139 312.35 59.8429 314.695 59.8429Z" fill="url(#paint4_linear_2009_10971)"/>
<path d="M344.105 70.9609L344.054 19.9609H356.497L356.548 24.4999C358.282 22.6639 360.356 21.2189 362.77 20.1649C365.183 19.0769 367.784 18.5329 370.572 18.5329C372.442 18.5329 374.312 18.8049 376.182 19.3489L371.286 31.8949C369.994 31.3849 368.702 31.1299 367.41 31.1299C365.404 31.1299 363.569 31.6229 361.903 32.6089C360.271 33.5609 358.962 34.8699 357.976 36.5359C357.024 38.1679 356.548 39.9869 356.548 41.9929V70.9609H344.105Z" fill="url(#paint5_linear_2009_10971)"/>
<path d="M424.383 70.9609H410.053L398.426 50.9179L391.286 59.4349V70.9609H378.843V-5.53906H391.286V40.1059L408.166 19.9609H424.434L406.942 40.8199L424.383 70.9609Z" fill="url(#paint6_linear_2009_10971)"/>
<path d="M471.594 -0.439062H485.924L511.881 70.9609H498.673L494.083 58.3129H463.486L458.896 70.9609H445.688L471.594 -0.439062ZM468.024 45.8689H489.494L478.733 16.4419L468.024 45.8689Z" fill="url(#paint7_linear_2009_10971)"/>
<path d="M550.711 19.9609H563.154V71.9299C563.154 75.6019 562.406 78.9339 560.91 81.9259C559.414 84.9519 557.374 87.5359 554.79 89.6779C552.207 91.8539 549.249 93.5199 545.917 94.6759C542.585 95.8659 539.084 96.4609 535.412 96.4609C531.842 96.4609 528.408 95.7299 525.111 94.2679C521.813 92.8059 518.889 90.7999 516.339 88.2499C513.823 85.7339 511.903 82.8609 510.577 79.6309L521.949 74.4799C522.629 76.3499 523.649 77.9819 525.009 79.3759C526.403 80.8039 528 81.9089 529.802 82.6909C531.604 83.5069 533.474 83.9149 535.412 83.9149C537.384 83.9149 539.271 83.6429 541.072 83.0989C542.908 82.5549 544.557 81.7559 546.019 80.7019C547.481 79.6819 548.62 78.4239 549.436 76.9279C550.286 75.4659 550.711 73.7999 550.711 71.9299V64.7389C549.113 66.9829 547.107 68.8019 544.693 70.1959C542.279 71.5899 539.492 72.2869 536.33 72.2869C532.658 72.2869 529.224 71.5899 526.029 70.1959C522.833 68.8019 520.011 66.8809 517.563 64.4329C515.149 61.9509 513.245 59.0949 511.852 55.8649C510.492 52.6349 509.812 49.1669 509.812 45.4609C509.812 41.7549 510.492 38.2869 511.852 35.0569C513.245 31.8269 515.149 28.9879 517.563 26.5399C520.011 24.0579 522.833 22.1199 526.029 20.7259C529.224 19.3319 532.658 18.6349 536.33 18.6349C539.492 18.6349 542.279 19.3319 544.693 20.7259C547.107 22.0859 549.113 23.8879 550.711 26.1319V19.9609ZM536.483 60.3019C539.101 60.3019 541.412 59.6389 543.418 58.3129C545.458 56.9529 547.056 55.1509 548.212 52.9069C549.368 50.6289 549.946 48.1469 549.946 45.4609C549.946 42.7409 549.351 40.2589 548.161 38.0149C547.005 35.7709 545.407 33.9689 543.367 32.6089C541.361 31.2489 539.067 30.5689 536.483 30.5689C533.933 30.5689 531.604 31.2489 529.496 32.6089C527.388 33.9349 525.706 35.7199 524.448 37.9639C523.19 40.2079 522.561 42.7069 522.561 45.4609C522.561 48.2149 523.19 50.7139 524.448 52.9579C525.706 55.2019 527.388 56.9869 529.496 58.3129C531.604 59.6389 533.933 60.3019 536.483 60.3019Z" fill="url(#paint8_linear_2009_10971)"/>
<path d="M592.585 72.2869C587.893 72.2869 583.61 71.0799 579.734 68.6659C575.892 66.2519 572.815 63.0049 570.504 58.9249C568.226 54.8449 567.087 50.3399 567.087 45.4099C567.087 41.7039 567.75 38.2359 569.076 35.0059C570.402 31.7419 572.22 28.8859 574.532 26.4379C576.878 23.9559 579.598 22.0179 582.692 20.6239C585.785 19.2299 589.083 18.5329 592.585 18.5329C596.563 18.5329 600.2 19.3829 603.498 21.0829C606.83 22.7489 609.652 25.0439 611.964 27.9679C614.275 30.8919 615.958 34.2239 617.012 37.9639C618.066 41.7039 618.304 45.6139 617.726 49.6939H580.448C580.924 51.5979 581.706 53.3149 582.794 54.8449C583.882 56.3409 585.258 57.5479 586.924 58.4659C588.59 59.3499 590.477 59.8089 592.585 59.8429C594.761 59.8769 596.733 59.3669 598.501 58.3129C600.302 57.2249 601.798 55.7629 602.988 53.9269L615.686 56.8849C613.612 61.4069 610.519 65.1129 606.405 68.0029C602.291 70.8589 597.685 72.2869 592.585 72.2869ZM580.04 40.3609H605.13C604.756 38.3209 603.957 36.4849 602.733 34.8529C601.543 33.1869 600.064 31.8609 598.297 30.8749C596.529 29.8889 594.625 29.3959 592.585 29.3959C590.545 29.3959 588.658 29.8889 586.924 30.8749C585.19 31.8269 583.712 33.1359 582.488 34.8019C581.298 36.4339 580.482 38.2869 580.04 40.3609Z" fill="url(#paint9_linear_2009_10971)"/>
<path d="M668.656 38.7289V70.9609H656.213V41.9929C656.213 39.9869 655.72 38.1679 654.734 36.5359C653.748 34.8699 652.422 33.5609 650.757 32.6089C649.125 31.6229 647.306 31.1299 645.3 31.1299C643.294 31.1299 641.458 31.6229 639.792 32.6089C638.16 33.5609 636.852 34.8699 635.866 36.5359C634.914 38.1679 634.438 39.9869 634.438 41.9929V70.9609H621.995L621.944 19.9609H634.387L634.438 24.4999C636.172 22.6639 638.245 21.2189 640.659 20.1649C643.073 19.0769 645.674 18.5329 648.462 18.5329C652.167 18.5329 655.55 19.4509 658.61 21.2869C661.67 23.0889 664.101 25.5199 665.902 28.5799C667.738 31.6059 668.656 34.9889 668.656 38.7289Z" fill="url(#paint10_linear_2009_10971)"/>
<path d="M707.398 55.6099L718.617 61.6789C716.272 64.8749 713.331 67.4419 709.795 69.3799C706.259 71.3179 702.401 72.2869 698.219 72.2869C693.527 72.2869 689.244 71.0799 685.368 68.6659C681.526 66.2519 678.449 63.0219 676.138 58.9759C673.86 54.8959 672.721 50.3909 672.721 45.4609C672.721 41.7209 673.384 38.2359 674.71 35.0059C676.036 31.7419 677.854 28.8859 680.166 26.4379C682.512 23.9559 685.232 22.0179 688.326 20.6239C691.419 19.2299 694.717 18.5329 698.219 18.5329C702.401 18.5329 706.259 19.5019 709.795 21.4399C713.331 23.3779 716.272 25.9789 718.617 29.2429L707.398 35.2609C706.208 33.9009 704.797 32.8469 703.165 32.0989C701.568 31.3509 699.919 30.9769 698.219 30.9769C695.771 30.9769 693.561 31.6569 691.589 33.0169C689.617 34.3429 688.054 36.1109 686.898 38.3209C685.742 40.4969 685.164 42.8769 685.164 45.4609C685.164 48.0109 685.742 50.3909 686.898 52.6009C688.054 54.7769 689.617 56.5279 691.589 57.8539C693.561 59.1799 695.771 59.8429 698.219 59.8429C699.987 59.8429 701.67 59.4689 703.268 58.7209C704.865 57.9389 706.242 56.9019 707.398 55.6099Z" fill="url(#paint11_linear_2009_10971)"/>
<path d="M754.792 19.9609H768L740.105 96.4609H726.897L736.127 70.9609L717.769 19.9609H731.385L742.349 53.9269L754.792 19.9609Z" fill="url(#paint12_linear_2009_10971)"/>
<path d="M130.895 30.5689L102.541 60.3529H130.895V70.9609H87.3442V60.3529L115.698 30.5689H87.3442V19.9609H130.895V30.5689Z" fill="url(#paint13_linear_2009_10971)"/>
</g>
<defs>
<linearGradient id="paint0_linear_2009_10971" x1="384" y1="-109.999" x2="384" y2="71.501" gradientUnits="userSpaceOnUse">
<stop stop-color="#301D00"/>
<stop offset="1" stop-color="#301D00" stop-opacity="0"/>
</linearGradient>
<linearGradient id="paint1_linear_2009_10971" x1="384" y1="-109.999" x2="384" y2="71.501" gradientUnits="userSpaceOnUse">
<stop stop-color="#301D00"/>
<stop offset="1" stop-color="#301D00" stop-opacity="0"/>
</linearGradient>
<linearGradient id="paint2_linear_2009_10971" x1="384" y1="-109.999" x2="384" y2="71.501" gradientUnits="userSpaceOnUse">
<stop stop-color="#301D00"/>
<stop offset="1" stop-color="#301D00" stop-opacity="0"/>
</linearGradient>
<linearGradient id="paint3_linear_2009_10971" x1="384" y1="-109.999" x2="384" y2="71.501" gradientUnits="userSpaceOnUse">
<stop stop-color="#301D00"/>
<stop offset="1" stop-color="#301D00" stop-opacity="0"/>
</linearGradient>
<linearGradient id="paint4_linear_2009_10971" x1="384" y1="-109.999" x2="384" y2="71.501" gradientUnits="userSpaceOnUse">
<stop stop-color="#301D00"/>
<stop offset="1" stop-color="#301D00" stop-opacity="0"/>
</linearGradient>
<linearGradient id="paint5_linear_2009_10971" x1="384" y1="-109.999" x2="384" y2="71.501" gradientUnits="userSpaceOnUse">
<stop stop-color="#301D00"/>
<stop offset="1" stop-color="#301D00" stop-opacity="0"/>
</linearGradient>
<linearGradient id="paint6_linear_2009_10971" x1="384" y1="-109.999" x2="384" y2="71.501" gradientUnits="userSpaceOnUse">
<stop stop-color="#301D00"/>
<stop offset="1" stop-color="#301D00" stop-opacity="0"/>
</linearGradient>
<linearGradient id="paint7_linear_2009_10971" x1="384" y1="-109.999" x2="384" y2="71.501" gradientUnits="userSpaceOnUse">
<stop stop-color="#301D00"/>
<stop offset="1" stop-color="#301D00" stop-opacity="0"/>
</linearGradient>
<linearGradient id="paint8_linear_2009_10971" x1="384" y1="-109.999" x2="384" y2="71.501" gradientUnits="userSpaceOnUse">
<stop stop-color="#301D00"/>
<stop offset="1" stop-color="#301D00" stop-opacity="0"/>
</linearGradient>
<linearGradient id="paint9_linear_2009_10971" x1="384" y1="-109.999" x2="384" y2="71.501" gradientUnits="userSpaceOnUse">
<stop stop-color="#301D00"/>
<stop offset="1" stop-color="#301D00" stop-opacity="0"/>
</linearGradient>
<linearGradient id="paint10_linear_2009_10971" x1="384" y1="-109.999" x2="384" y2="71.501" gradientUnits="userSpaceOnUse">
<stop stop-color="#301D00"/>
<stop offset="1" stop-color="#301D00" stop-opacity="0"/>
</linearGradient>
<linearGradient id="paint11_linear_2009_10971" x1="384" y1="-109.999" x2="384" y2="71.501" gradientUnits="userSpaceOnUse">
<stop stop-color="#301D00"/>
<stop offset="1" stop-color="#301D00" stop-opacity="0"/>
</linearGradient>
<linearGradient id="paint12_linear_2009_10971" x1="384" y1="-109.999" x2="384" y2="71.501" gradientUnits="userSpaceOnUse">
<stop stop-color="#301D00"/>
<stop offset="1" stop-color="#301D00" stop-opacity="0"/>
</linearGradient>
<linearGradient id="paint13_linear_2009_10971" x1="384" y1="-109.999" x2="384" y2="71.501" gradientUnits="userSpaceOnUse">
<stop stop-color="#301D00"/>
<stop offset="1" stop-color="#301D00" stop-opacity="0"/>
</linearGradient>
</defs>
</svg>
