<svg width="182" height="24" viewBox="0 0 182 24" fill="none" xmlns="http://www.w3.org/2000/svg">
<path opacity="0.5" d="M0.96 18L3.128 6.8H4.16L7.184 14.752L10.2 6.8H11.232L13.408 18H12.04L10.464 9.872L7.624 17.392H6.736L3.896 9.872L2.328 18H0.96ZM21.2239 10H22.5679V18H21.2239L21.1679 16.648C20.9172 17.112 20.5705 17.488 20.1279 17.776C19.6905 18.064 19.1679 18.208 18.5599 18.208C17.9732 18.208 17.4239 18.0987 16.9119 17.88C16.3999 17.656 15.9465 17.3493 15.5519 16.96C15.1625 16.5653 14.8585 16.112 14.6399 15.6C14.4212 15.088 14.3119 14.536 14.3119 13.944C14.3119 13.3733 14.4185 12.8347 14.6319 12.328C14.8452 11.8213 15.1412 11.3787 15.5199 11C15.9039 10.616 16.3465 10.3173 16.8479 10.104C17.3492 9.88533 17.8879 9.776 18.4639 9.776C19.0932 9.776 19.6452 9.92533 20.1199 10.224C20.5945 10.5173 20.9785 10.8987 21.2719 11.368L21.2239 10ZM18.5359 16.904C19.0639 16.904 19.5199 16.776 19.9039 16.52C20.2932 16.2587 20.5919 15.9067 20.7999 15.464C21.0132 15.0213 21.1199 14.5333 21.1199 14C21.1199 13.456 21.0132 12.9653 20.7999 12.528C20.5865 12.0853 20.2852 11.736 19.8959 11.48C19.5119 11.2187 19.0585 11.088 18.5359 11.088C18.0079 11.088 17.5279 11.2187 17.0959 11.48C16.6639 11.7413 16.3199 12.0933 16.0639 12.536C15.8132 12.9733 15.6879 13.4613 15.6879 14C15.6879 14.5387 15.8185 15.0293 16.0799 15.472C16.3412 15.9093 16.6879 16.2587 17.1199 16.52C17.5519 16.776 18.0239 16.904 18.5359 16.904ZM30.6106 6H31.9546V18H30.6106V16.64C30.3386 17.1093 29.9733 17.488 29.5146 17.776C29.056 18.064 28.5173 18.208 27.8986 18.208C27.3173 18.208 26.7733 18.0987 26.2666 17.88C25.76 17.6613 25.312 17.36 24.9226 16.976C24.5386 16.5867 24.2373 16.1387 24.0186 15.632C23.8 15.1253 23.6906 14.5813 23.6906 14C23.6906 13.4187 23.8 12.8747 24.0186 12.368C24.2373 11.856 24.5386 11.408 24.9226 11.024C25.312 10.6347 25.76 10.3307 26.2666 10.112C26.7733 9.89333 27.3173 9.784 27.8986 9.784C28.5173 9.784 29.056 9.928 29.5146 10.216C29.9733 10.504 30.3386 10.8827 30.6106 11.352V6ZM27.9146 16.904C28.4426 16.904 28.8986 16.776 29.2826 16.52C29.672 16.2587 29.9706 15.9067 30.1786 15.464C30.392 15.0213 30.4986 14.5333 30.4986 14C30.4986 13.456 30.392 12.9653 30.1786 12.528C29.9653 12.0853 29.664 11.736 29.2746 11.48C28.8906 11.2187 28.4373 11.088 27.9146 11.088C27.3866 11.088 26.9066 11.2187 26.4746 11.48C26.048 11.7413 25.7066 12.0933 25.4506 12.536C25.1946 12.9733 25.0666 13.4613 25.0666 14C25.0666 14.5387 25.1973 15.0293 25.4586 15.472C25.72 15.9093 26.0666 16.2587 26.4986 16.52C26.9306 16.776 27.4026 16.904 27.9146 16.904ZM37.4756 18.208C36.7396 18.208 36.0676 18.0187 35.4596 17.64C34.857 17.2613 34.3743 16.7547 34.0116 16.12C33.6543 15.48 33.4756 14.7733 33.4756 14C33.4756 13.4133 33.5796 12.8667 33.7876 12.36C33.9956 11.848 34.281 11.4 34.6436 11.016C35.0116 10.6267 35.4383 10.3227 35.9236 10.104C36.409 9.88533 36.9263 9.776 37.4756 9.776C38.0783 9.776 38.6303 9.89867 39.1316 10.144C39.6383 10.384 40.0703 10.72 40.4276 11.152C40.7903 11.584 41.0596 12.0853 41.2356 12.656C41.417 13.2267 41.4836 13.8373 41.4356 14.488H34.9076C34.9716 14.9413 35.121 15.3467 35.3556 15.704C35.5903 16.056 35.889 16.336 36.2516 16.544C36.6196 16.752 37.0276 16.8587 37.4756 16.864C37.9556 16.864 38.3903 16.7413 38.7796 16.496C39.169 16.2453 39.4836 15.904 39.7236 15.472L41.0916 15.792C40.7716 16.5013 40.289 17.0827 39.6436 17.536C38.9983 17.984 38.2756 18.208 37.4756 18.208ZM34.8676 13.432H40.0836C40.041 12.984 39.897 12.576 39.6516 12.208C39.4063 11.8347 39.0943 11.536 38.7156 11.312C38.337 11.088 37.9236 10.976 37.4756 10.976C37.0276 10.976 36.617 11.0853 36.2436 11.304C35.8703 11.5227 35.561 11.8187 35.3156 12.192C35.0756 12.56 34.9263 12.9733 34.8676 13.432ZM51.1049 9.776C51.8835 9.776 52.5902 9.96533 53.2249 10.344C53.8649 10.7227 54.3742 11.232 54.7529 11.872C55.1315 12.5067 55.3209 13.2133 55.3209 13.992C55.3209 14.5733 55.2115 15.12 54.9929 15.632C54.7742 16.1387 54.4702 16.5867 54.0809 16.976C53.6969 17.36 53.2489 17.6613 52.7369 17.88C52.2302 18.0987 51.6862 18.208 51.1049 18.208C50.4862 18.208 49.9475 18.064 49.4889 17.776C49.0355 17.4827 48.6729 17.1013 48.4009 16.632V18H47.0569V6H48.4009V11.352C48.6729 10.8827 49.0355 10.504 49.4889 10.216C49.9475 9.92267 50.4862 9.776 51.1049 9.776ZM51.0889 16.896C51.6169 16.896 52.0969 16.7653 52.5289 16.504C52.9609 16.2427 53.3049 15.8933 53.5609 15.456C53.8169 15.0133 53.9449 14.5253 53.9449 13.992C53.9449 13.448 53.8142 12.9573 53.5529 12.52C53.2915 12.0773 52.9449 11.728 52.5129 11.472C52.0809 11.2107 51.6062 11.08 51.0889 11.08C50.5662 11.08 50.1102 11.2107 49.7209 11.472C49.3369 11.7333 49.0382 12.0853 48.8249 12.528C48.6169 12.9707 48.5129 13.4587 48.5129 13.992C48.5129 14.5307 48.6169 15.0213 48.8249 15.464C49.0382 15.9013 49.3395 16.2507 49.7289 16.512C50.1182 16.768 50.5715 16.896 51.0889 16.896ZM61.8687 10H63.2927L58.9167 22H57.4927L58.9407 18L56.0687 10H57.5407L59.6127 16.152L61.8687 10ZM76.1245 13.024V18H74.7805V13.32C74.7805 12.9147 74.6818 12.5467 74.4845 12.216C74.2872 11.8853 74.0232 11.624 73.6925 11.432C73.3618 11.2347 72.9938 11.136 72.5885 11.136C72.1885 11.136 71.8205 11.2347 71.4845 11.432C71.1538 11.624 70.8898 11.8853 70.6925 12.216C70.4952 12.5467 70.3965 12.9147 70.3965 13.32V18H69.0525V6H70.3965V11C70.6792 10.6267 71.0365 10.3307 71.4685 10.112C71.9005 9.888 72.3698 9.776 72.8765 9.776C73.4738 9.776 74.0178 9.92267 74.5085 10.216C75.0045 10.504 75.3965 10.8933 75.6845 11.384C75.9778 11.8747 76.1245 12.4213 76.1245 13.024ZM84.1601 10H85.5041V18H84.1601L84.1041 16.648C83.8535 17.112 83.5068 17.488 83.0641 17.776C82.6268 18.064 82.1041 18.208 81.4961 18.208C80.9095 18.208 80.3601 18.0987 79.8481 17.88C79.3361 17.656 78.8828 17.3493 78.4881 16.96C78.0988 16.5653 77.7948 16.112 77.5761 15.6C77.3575 15.088 77.2481 14.536 77.2481 13.944C77.2481 13.3733 77.3548 12.8347 77.5681 12.328C77.7815 11.8213 78.0775 11.3787 78.4561 11C78.8401 10.616 79.2828 10.3173 79.7841 10.104C80.2855 9.88533 80.8241 9.776 81.4001 9.776C82.0295 9.776 82.5815 9.92533 83.0561 10.224C83.5308 10.5173 83.9148 10.8987 84.2081 11.368L84.1601 10ZM81.4721 16.904C82.0001 16.904 82.4561 16.776 82.8401 16.52C83.2295 16.2587 83.5281 15.9067 83.7361 15.464C83.9495 15.0213 84.0561 14.5333 84.0561 14C84.0561 13.456 83.9495 12.9653 83.7361 12.528C83.5228 12.0853 83.2215 11.736 82.8321 11.48C82.4481 11.2187 81.9948 11.088 81.4721 11.088C80.9441 11.088 80.4641 11.2187 80.0321 11.48C79.6001 11.7413 79.2561 12.0933 79.0001 12.536C78.7495 12.9733 78.6241 13.4613 78.6241 14C78.6241 14.5387 78.7548 15.0293 79.0161 15.472C79.2775 15.9093 79.6241 16.2587 80.0561 16.52C80.4881 16.776 80.9601 16.904 81.4721 16.904ZM94.3351 13.024V18H92.9911V13.32C92.9911 12.9147 92.8925 12.5467 92.6951 12.216C92.4978 11.8853 92.2338 11.624 91.9031 11.432C91.5725 11.2347 91.2045 11.136 90.7991 11.136C90.3991 11.136 90.0311 11.2347 89.6951 11.432C89.3645 11.624 89.1005 11.8853 88.9031 12.216C88.7058 12.5467 88.6071 12.9147 88.6071 13.32V18H87.2631V10H88.6071V11C88.8898 10.6267 89.2471 10.3307 89.6791 10.112C90.1111 9.888 90.5805 9.776 91.0871 9.776C91.6845 9.776 92.2285 9.92267 92.7191 10.216C93.2151 10.504 93.6071 10.8933 93.8951 11.384C94.1885 11.8747 94.3351 12.4213 94.3351 13.024ZM102.379 6H103.723V18H102.379V16.64C102.107 17.1093 101.741 17.488 101.283 17.776C100.824 18.064 100.285 18.208 99.6668 18.208C99.0854 18.208 98.5414 18.0987 98.0348 17.88C97.5281 17.6613 97.0801 17.36 96.6908 16.976C96.3068 16.5867 96.0054 16.1387 95.7868 15.632C95.5681 15.1253 95.4588 14.5813 95.4588 14C95.4588 13.4187 95.5681 12.8747 95.7868 12.368C96.0054 11.856 96.3068 11.408 96.6908 11.024C97.0801 10.6347 97.5281 10.3307 98.0348 10.112C98.5414 9.89333 99.0854 9.784 99.6668 9.784C100.285 9.784 100.824 9.928 101.283 10.216C101.741 10.504 102.107 10.8827 102.379 11.352V6ZM99.6828 16.904C100.211 16.904 100.667 16.776 101.051 16.52C101.44 16.2587 101.739 15.9067 101.947 15.464C102.16 15.0213 102.267 14.5333 102.267 14C102.267 13.456 102.16 12.9653 101.947 12.528C101.733 12.0853 101.432 11.736 101.043 11.48C100.659 11.2187 100.205 11.088 99.6828 11.088C99.1548 11.088 98.6748 11.2187 98.2428 11.48C97.8161 11.7413 97.4748 12.0933 97.2188 12.536C96.9628 12.9733 96.8348 13.4613 96.8348 14C96.8348 14.5387 96.9654 15.0293 97.2268 15.472C97.4881 15.9093 97.8348 16.2587 98.2668 16.52C98.6988 16.776 99.1708 16.904 99.6828 16.904ZM116.238 10H117.582V18H116.238L116.182 16.648C115.931 17.112 115.584 17.488 115.142 17.776C114.704 18.064 114.182 18.208 113.574 18.208C112.987 18.208 112.438 18.0987 111.926 17.88C111.414 17.656 110.96 17.3493 110.566 16.96C110.176 16.5653 109.872 16.112 109.654 15.6C109.435 15.088 109.326 14.536 109.326 13.944C109.326 13.3733 109.432 12.8347 109.646 12.328C109.859 11.8213 110.155 11.3787 110.534 11C110.918 10.616 111.36 10.3173 111.862 10.104C112.363 9.88533 112.902 9.776 113.478 9.776C114.107 9.776 114.659 9.92533 115.134 10.224C115.608 10.5173 115.992 10.8987 116.286 11.368L116.238 10ZM113.55 16.904C114.078 16.904 114.534 16.776 114.918 16.52C115.307 16.2587 115.606 15.9067 115.814 15.464C116.027 15.0213 116.134 14.5333 116.134 14C116.134 13.456 116.027 12.9653 115.814 12.528C115.6 12.0853 115.299 11.736 114.91 11.48C114.526 11.2187 114.072 11.088 113.55 11.088C113.022 11.088 112.542 11.2187 112.11 11.48C111.678 11.7413 111.334 12.0933 111.078 12.536C110.827 12.9733 110.702 13.4613 110.702 14C110.702 14.5387 110.832 15.0293 111.094 15.472C111.355 15.9093 111.702 16.2587 112.134 16.52C112.566 16.776 113.038 16.904 113.55 16.904ZM123.485 11.344H121.669L121.661 18H120.317L120.325 11.344H118.949V10H120.325L120.317 7.488H121.661L121.669 10H123.485V11.344Z" fill="#655D4F"/>
<path d="M133.601 4.91811C134.018 4.93373 134.374 5.08998 134.668 5.38686C134.962 5.66811 135.117 6.01967 135.132 6.44155V17.9259C135.039 18.8634 134.529 19.3712 133.601 19.4494C133.168 19.4494 132.789 19.3087 132.464 19.0275C132.155 18.7306 132 18.3634 132 17.9259V6.44155C132.015 6.00405 132.178 5.64467 132.487 5.36342C132.797 5.06654 133.168 4.91811 133.601 4.91811ZM137.568 9.04311C138.604 8.33998 140.004 7.62905 141.768 6.9103L145.572 5.26967C145.743 5.19154 145.928 5.14467 146.129 5.12904C146.562 5.09779 146.934 5.23061 147.243 5.52748C147.552 5.80873 147.707 6.17592 147.707 6.62905C147.707 7.14467 147.599 7.52748 147.382 7.77748C147.181 8.01186 146.918 8.20717 146.593 8.36342L143.345 9.60561C142.711 9.85561 142.108 10.1056 141.536 10.3556C140.979 10.59 140.468 10.8634 140.004 11.1759C139.54 11.4572 139.293 11.7775 139.262 12.1369C139.293 12.4806 139.54 12.8009 140.004 13.0978C140.468 13.4103 140.979 13.6915 141.536 13.9415C142.108 14.1759 142.711 14.4181 143.345 14.6681L146.964 16.004C147.289 16.1603 147.552 16.3634 147.753 16.6134C147.97 16.8478 148.078 17.2228 148.078 17.7384C148.078 18.1915 147.923 18.5665 147.614 18.8634C147.305 19.1447 146.934 19.2697 146.5 19.2384C146.299 19.2228 146.114 19.1759 145.944 19.0978L141.768 17.3634C140.004 16.6447 138.597 15.9337 137.545 15.2306C136.509 14.5119 135.983 13.4806 135.967 12.1369C135.983 10.7931 136.516 9.76186 137.568 9.04311Z" fill="#655D4F"/>
<path d="M176.531 5.2697C177.32 5.28532 178.024 5.53532 178.642 6.0197C179.261 6.50407 179.633 7.0822 180.004 7.75407C180.391 8.42595 180.677 9.13688 180.862 9.88688C181.048 10.6369 181.141 11.4025 181.141 12.1838C181.141 13.215 180.978 14.2306 180.654 15.2306C180.344 16.215 179.949 17.09 179.222 17.8556C178.511 18.6213 177.614 19.0353 176.531 19.0978H168.434C167.351 19.0509 166.446 18.6447 165.719 17.8791C164.992 17.1134 164.474 16.2306 164.165 15.2306C163.871 14.2306 163.724 13.215 163.724 12.1838C163.724 11.1525 163.879 10.1447 164.188 9.16032C164.497 8.16032 165.008 7.27751 165.719 6.51188C166.446 5.73063 167.351 5.31657 168.434 5.2697H176.531ZM175.742 15.9572C176.33 15.9259 176.817 15.7072 177.204 15.3009C177.606 14.8791 177.892 14.3947 178.062 13.8478C178.232 13.3009 178.317 12.7463 178.317 12.1838C178.317 11.6213 178.225 11.0744 178.039 10.5431C177.869 9.99626 177.59 9.51188 177.204 9.09001C176.817 8.66813 176.33 8.44157 175.742 8.41032H169.153C168.565 8.44157 168.078 8.66813 167.691 9.09001C167.305 9.51188 167.019 9.99626 166.833 10.5431C166.663 11.0744 166.578 11.6213 166.578 12.1838C166.578 12.7463 166.663 13.3009 166.833 13.8478C167.003 14.3947 167.282 14.8791 167.668 15.3009C168.07 15.7072 168.565 15.9259 169.153 15.9572H175.742Z" fill="#655D4F"/>
<path d="M157.01 0.0386556C157.225 -0.0226666 157.469 -0.011035 157.694 0.0735942C157.918 0.158236 158.11 0.310077 158.233 0.498681C158.356 0.687102 158.399 0.896305 158.358 1.08224C158.292 1.38545 158.225 1.68925 158.156 1.99134C158.155 2.00813 158.154 2.02517 158.152 2.04179C158.142 2.16594 158.167 2.29412 158.192 2.42222C158.198 2.45161 158.204 2.48131 158.209 2.51067C158.249 2.73428 158.074 3.07031 157.979 3.25529C157.977 3.2587 157.976 3.26247 157.974 3.26588C157.951 3.3097 157.934 3.3525 157.913 3.4028C157.864 3.52313 157.798 3.68618 157.603 4.00372C157.569 4.10453 157.533 4.20489 157.496 4.30474C157.098 5.38361 156.611 6.42888 156.106 7.46737C156.101 7.48121 156.096 7.49594 156.091 7.51016C156.003 7.78491 155.893 8.12576 155.776 8.32173C155.627 8.57081 155.514 8.73516 155.418 8.86957C155.016 9.69406 154.622 10.5221 154.274 11.3671C154.165 11.6318 154.061 11.8987 153.962 12.1672C153.871 12.4144 153.783 12.6633 153.698 12.913C153.668 13.0659 153.646 13.2136 153.625 13.3503C153.595 13.5423 153.569 13.7132 153.531 13.8483C153.439 14.174 153.267 14.5181 153.139 14.7733C153.118 14.8149 153.098 14.854 153.08 14.8905C153.017 15.1076 152.955 15.3252 152.893 15.5428C152.879 15.5535 152.864 15.5647 152.85 15.5755C152.664 15.7111 152.583 15.9333 152.457 16.2833C152.401 16.4358 152.338 16.6128 152.252 16.8171C152.197 16.9486 152.125 16.9997 152.065 17.0413C152.048 17.0535 152.031 17.0647 152.017 17.0771C151.968 17.1198 151.979 17.1886 151.992 17.2697C152.008 17.3748 152.028 17.501 151.925 17.6187C151.595 17.9937 151.637 18.2301 151.67 18.4087C151.679 18.4611 151.688 18.5085 151.686 18.553C151.68 18.6975 151.571 18.8658 151.464 18.9836C151.379 19.0769 151.342 19.3137 151.336 19.5018C151.334 19.573 151.303 19.6592 151.266 19.76C151.228 19.8643 151.185 19.9852 151.161 20.1229C151.101 20.471 151.066 20.6549 151.038 20.8027C151.03 20.8448 151.022 20.8842 151.015 20.9234C150.992 21.0476 150.955 21.199 150.917 21.3519C150.873 21.5346 150.828 21.7202 150.805 21.8656C150.647 22.2059 150.482 22.5438 150.317 22.8815C150.232 23.0549 150.066 23.1896 149.849 23.2533C149.633 23.317 149.385 23.3051 149.155 23.2189C148.927 23.1326 148.732 22.9778 148.61 22.7866C148.487 22.5954 148.448 22.3839 148.496 22.1968C148.594 21.8199 148.691 21.4424 148.796 21.0682C148.924 20.6123 149.063 20.1605 149.227 19.718C149.341 19.4085 149.46 19.1008 149.584 18.795C149.597 18.7635 149.61 18.7322 149.623 18.7008C149.663 18.4195 149.707 18.1404 149.756 17.9506C149.797 17.7941 149.867 17.6954 149.928 17.6109C149.97 17.5528 150.006 17.5011 150.025 17.4421C150.035 17.4104 150.048 17.3663 150.063 17.3133C150.123 17.097 150.226 16.7295 150.401 16.4251C150.478 16.2902 150.588 16.1409 150.693 15.9984C150.843 15.7945 150.983 15.6043 151.004 15.4895C151.041 15.2879 151.149 15.0811 151.244 14.8988C151.335 14.7249 151.415 14.5726 151.411 14.4674C151.405 14.3416 151.458 14.2557 151.536 14.1284C151.59 14.0402 151.657 13.9318 151.725 13.7763C151.804 13.5966 151.883 13.4782 151.951 13.3778C152.047 13.2365 152.12 13.1297 152.131 12.9352C152.144 12.7192 152.181 12.5025 152.259 12.3499C152.294 12.2804 152.322 12.196 152.352 12.1087C152.391 11.9931 152.433 11.8719 152.495 11.7699C152.546 11.6859 152.617 11.6273 152.681 11.5758C152.701 11.5597 152.72 11.5443 152.738 11.529C152.764 11.4565 152.79 11.3839 152.815 11.3112C152.812 11.2968 152.809 11.2813 152.805 11.2654C152.788 11.1856 152.767 11.0877 152.778 10.9803C152.796 10.8102 152.871 10.6831 152.95 10.5494C153.012 10.4455 153.076 10.3373 153.117 10.2012C153.146 10.1083 153.166 9.99785 153.186 9.88844C153.215 9.72607 153.244 9.56571 153.3 9.46742C153.32 9.43066 153.36 9.40717 153.4 9.38434C153.403 9.38279 153.407 9.38089 153.41 9.37933C153.482 9.11663 153.553 8.85282 153.622 8.58883C153.623 8.56421 153.624 8.53941 153.625 8.51484C153.631 8.394 153.636 8.27626 153.615 8.19015C153.591 8.09675 153.631 7.89907 153.672 7.69095C153.699 7.55464 153.727 7.41329 153.738 7.29411C153.745 7.2246 153.796 7.1751 153.849 7.1244C153.898 7.07703 153.948 7.02861 153.965 6.96114C153.974 6.9273 153.975 6.88746 153.976 6.84519C153.977 6.80808 153.978 6.76885 153.984 6.72971C153.99 6.69324 154.033 6.62308 154.089 6.53372C154.123 6.47855 154.162 6.4156 154.2 6.34862C154.252 6.15328 154.305 5.95798 154.358 5.76337C154.347 5.71456 154.327 5.66845 154.295 5.62562C154.272 5.59491 154.242 5.56464 154.211 5.53383C154.17 5.49189 154.126 5.44854 154.097 5.4001C154.074 5.36228 154.073 5.32687 154.094 5.31149C154.104 5.30436 154.118 5.30149 154.131 5.29889C154.146 5.29593 154.16 5.2932 154.163 5.28494C154.164 5.27895 154.158 5.26944 154.15 5.25804C154.138 5.23957 154.122 5.21504 154.131 5.19067C154.161 5.10001 154.206 5.00046 154.249 4.90328C154.298 4.79527 154.344 4.6894 154.37 4.60065C154.398 4.50113 154.481 4.37523 154.564 4.24913C154.622 4.16123 154.68 4.07329 154.72 3.99396C154.759 3.91614 154.773 3.82449 154.786 3.7361C154.801 3.63006 154.816 3.52798 154.873 3.45829C154.885 3.44427 154.928 3.43691 154.98 3.42802C155.018 3.42173 155.06 3.41467 155.101 3.4035C155.139 3.30135 155.178 3.19949 155.219 3.09834C155.215 3.09296 155.211 3.08669 155.208 3.08112C155.128 2.95558 155.02 2.78389 155.169 2.6566C155.188 2.64032 155.211 2.62932 155.235 2.62168L155.369 2.59031C155.387 2.58385 155.402 2.57498 155.412 2.56127C155.432 2.53031 155.423 2.48142 155.414 2.4284C155.402 2.35381 155.388 2.27053 155.45 2.21553C155.455 2.21182 155.459 2.20774 155.464 2.20357C155.508 2.16351 155.574 2.10419 155.678 2.05994C155.779 1.84977 155.884 1.64078 155.991 1.43277C156.169 1.08612 156.353 0.741822 156.538 0.397521C156.628 0.230118 156.795 0.100075 157.01 0.0386556Z" fill="#655D4F"/>
<path d="M163.091 0.223815C163.308 0.164368 163.555 0.180096 163.783 0.269856C164.011 0.359712 164.203 0.517909 164.323 0.710462C164.442 0.902867 164.479 1.11411 164.428 1.29946C164.325 1.67287 164.223 2.0465 164.112 2.41705C163.978 2.8685 163.834 3.31615 163.664 3.75375C163.546 4.05981 163.422 4.36379 163.294 4.666C163.281 4.69704 163.267 4.72828 163.254 4.75929C163.21 5.0385 163.162 5.31545 163.111 5.50341C163.068 5.65836 162.996 5.75525 162.935 5.83828C162.892 5.89542 162.854 5.94624 162.835 6.00458C162.824 6.03589 162.811 6.07952 162.796 6.13183C162.733 6.34599 162.625 6.71019 162.447 7.01006C162.367 7.14313 162.255 7.29022 162.148 7.43039C161.995 7.63073 161.853 7.81743 161.83 7.93129C161.791 8.13126 161.68 8.3348 161.582 8.51458C161.489 8.68607 161.407 8.83623 161.411 8.94111C161.414 9.06632 161.36 9.15062 161.28 9.27593C161.225 9.36291 161.156 9.46991 161.086 9.6238C161.005 9.80136 160.924 9.91794 160.854 10.0166C160.757 10.1554 160.684 10.2599 160.669 10.4529C160.654 10.6678 160.613 10.8831 160.534 11.0337C160.497 11.1022 160.468 11.1853 160.437 11.2717C160.396 11.3861 160.353 11.5066 160.29 11.6071C160.238 11.6899 160.165 11.7464 160.101 11.7965C160.08 11.8122 160.061 11.8276 160.044 11.8426C160.017 11.9142 159.99 11.9859 159.963 12.0579C159.966 12.0722 159.97 12.0877 159.973 12.1036C159.989 12.1833 160.008 12.2811 159.996 12.3876C159.976 12.5566 159.9 12.6819 159.818 12.8136C159.755 12.916 159.689 13.0228 159.646 13.1576C159.616 13.2494 159.595 13.3588 159.574 13.4671C159.542 13.6283 159.511 13.7877 159.454 13.8846C159.433 13.9209 159.392 13.9432 159.351 13.9653C159.348 13.9668 159.345 13.9688 159.343 13.9703C159.267 14.2305 159.192 14.4917 159.12 14.7532C159.118 14.7778 159.117 14.8026 159.116 14.8271C159.108 14.9472 159.101 15.0638 159.122 15.1499C159.144 15.2432 159.102 15.4392 159.058 15.6456C159.029 15.7808 158.999 15.9212 158.986 16.0396C158.978 16.1088 158.926 16.1573 158.873 16.2069C158.824 16.2531 158.773 16.3004 158.755 16.3671C158.746 16.4005 158.744 16.4402 158.743 16.4821C158.741 16.5192 158.739 16.5585 158.733 16.5974C158.726 16.6336 158.682 16.7023 158.625 16.7902C158.59 16.8445 158.551 16.9063 158.512 16.9722C158.458 17.1658 158.403 17.3595 158.346 17.5523C158.356 17.6011 158.376 17.6481 158.407 17.6912C158.43 17.7222 158.459 17.7525 158.489 17.7837C158.53 17.8261 158.573 17.87 158.601 17.9187C158.624 17.9567 158.625 17.9923 158.604 18.0072C158.594 18.0141 158.58 18.0168 158.566 18.0191C158.551 18.0218 158.537 18.024 158.535 18.0323C158.533 18.0382 158.539 18.0476 158.547 18.0592C158.559 18.0777 158.574 18.1023 158.565 18.1264C158.534 18.216 158.488 18.3139 158.443 18.4098C158.393 18.5165 158.344 18.6211 158.318 18.709C158.288 18.8076 158.203 18.9316 158.119 19.0557C158.06 19.1423 158 19.2292 157.96 19.3076C157.92 19.3843 157.906 19.4753 157.891 19.563C157.875 19.6681 157.858 19.7692 157.8 19.8375C157.788 19.8513 157.745 19.8575 157.692 19.8655C157.655 19.8711 157.612 19.878 157.571 19.8885C157.531 19.9895 157.491 20.0903 157.449 20.1903C157.452 20.1957 157.456 20.2012 157.459 20.2067C157.537 20.3332 157.644 20.5065 157.493 20.6307C157.454 20.6621 157.402 20.6714 157.355 20.6794C157.309 20.6873 157.268 20.694 157.25 20.7208C157.229 20.7512 157.236 20.7999 157.245 20.8528C157.256 20.9272 157.269 21.011 157.207 21.0647C157.202 21.0684 157.197 21.0718 157.192 21.0759C157.148 21.115 157.081 21.1734 156.976 21.2157C156.872 21.423 156.764 21.6288 156.655 21.8339C156.472 22.1759 156.284 22.5159 156.095 22.8554C156.003 23.0204 155.833 23.1469 155.617 23.2042C155.402 23.2615 155.159 23.2451 154.935 23.1569C154.712 23.0687 154.523 22.9142 154.402 22.7243C154.282 22.5346 154.242 22.3259 154.285 22.1415C154.355 21.8409 154.426 21.5397 154.5 21.2402C154.501 21.2236 154.502 21.207 154.504 21.1906C154.516 21.0671 154.493 20.9386 154.47 20.8106C154.464 20.7814 154.459 20.7522 154.454 20.7231C154.417 20.4998 154.595 20.1677 154.694 19.9852C154.695 19.9819 154.697 19.9787 154.699 19.9754C154.722 19.9321 154.74 19.8892 154.761 19.8394C154.812 19.7205 154.88 19.5599 155.079 19.2473C155.115 19.1476 155.152 19.0483 155.19 18.9496C155.603 17.8827 156.104 16.8504 156.623 15.8256C156.628 15.812 156.633 15.7983 156.638 15.7843C156.73 15.5125 156.844 15.175 156.964 14.9819C157.116 14.7364 157.232 14.5743 157.329 14.4421C157.742 13.6285 158.146 12.8113 158.506 11.9764C158.618 11.7147 158.727 11.4511 158.829 11.1855C158.924 10.9409 159.015 10.695 159.103 10.448C159.135 10.2963 159.16 10.1498 159.183 10.0141C159.215 9.82345 159.244 9.65362 159.283 9.51976C159.379 9.19723 159.555 8.85792 159.687 8.60624C159.708 8.56519 159.729 8.52655 159.747 8.4906C159.813 8.27572 159.879 8.06042 159.944 7.845C159.958 7.83455 159.972 7.82366 159.987 7.81312C160.175 7.68143 160.258 7.46135 160.39 7.11503C160.447 6.96427 160.513 6.78964 160.601 6.58785C160.658 6.45781 160.732 6.4087 160.791 6.36834C160.809 6.35653 160.825 6.34529 160.84 6.33323C160.89 6.29162 160.88 6.22257 160.868 6.14169C160.853 6.03679 160.835 5.91063 160.94 5.79539C161.274 5.42822 161.235 5.19267 161.205 5.01435C161.196 4.96213 161.188 4.91452 161.19 4.87027C161.199 4.72657 161.31 4.5608 161.419 4.44546C161.505 4.35403 161.545 4.11875 161.553 3.93155C161.556 3.86082 161.589 3.77622 161.627 3.67663C161.666 3.57349 161.711 3.45379 161.737 3.31707C161.801 2.97139 161.839 2.78857 161.869 2.64181C161.877 2.60001 161.885 2.56096 161.893 2.522C161.918 2.39885 161.957 2.24922 161.997 2.09783C162.044 1.9167 162.092 1.73287 162.117 1.58844C162.28 1.25246 162.449 0.918927 162.618 0.585597C162.705 0.41445 162.874 0.283451 163.091 0.223815Z" fill="#655D4F"/>
</svg>
