<svg width="30" height="36" viewBox="0 0 30 36" fill="none" xmlns="http://www.w3.org/2000/svg">
<g class="icon">
<path d="M15.0002 1.45264C20.8845 1.45264 25.8438 4.15168 27.6916 5.30322C28.187 5.61197 28.466 6.17461 28.4582 6.7583C28.165 28.6466 17.6956 33.6481 15.4298 34.4751C15.3277 34.5124 15.2247 34.536 15.1213 34.5464C6.91426 28.5778 13.6729 22.8562 17.717 22.0327C17.9172 21.992 18.1146 22.1056 18.1984 22.2944L19.4045 25.0103C19.5136 25.2561 19.8077 25.3584 20.0412 25.2319L20.3302 25.0757C20.4923 24.9876 20.584 24.8086 20.5617 24.6235L20.2707 22.2056C20.2397 21.9462 20.4286 21.7151 20.6867 21.688C21.6123 21.591 23.5686 21.2994 23.5392 20.5679C23.5052 19.7282 20.3414 20.007 19.5636 20.0884C19.4529 20.0999 19.3417 20.072 19.2492 20.0083L15.633 17.5161C15.5472 17.457 15.4441 17.429 15.341 17.436L14.9709 17.4614C14.578 17.4884 14.4083 17.9697 14.6945 18.2456L16.5304 20.0132C16.8069 20.2794 16.6611 20.7501 16.2882 20.8208C11.3177 21.7605 6.70006 24.8413 7.18864 28.3335C4.30192 24.2272 1.68652 17.5424 1.54215 6.7583C1.53435 6.17461 1.81432 5.61196 2.30973 5.30322C4.15764 4.15166 9.11617 1.45278 15.0002 1.45264Z" fill="url(#paint0_linear_389_18103)"/>
<path d="M13.344 15.4286C13.1476 15.4286 12.9732 15.303 12.9109 15.1168L9.93963 6.23185C9.84071 5.93607 10.0608 5.63037 10.3727 5.63037H11.6563C11.8552 5.63037 12.0312 5.75916 12.0915 5.94876L13.851 11.4876C13.8781 11.5728 13.9988 11.5724 14.0253 11.487L15.7447 5.95156C15.804 5.76054 15.9808 5.63037 16.1808 5.63037H17.2834C17.4835 5.63037 17.6603 5.76068 17.7196 5.95184L19.4391 11.5002C19.4656 11.5856 19.5864 11.586 19.6134 11.5008L21.3731 5.94905C21.4332 5.7593 21.6093 5.63037 21.8084 5.63037H23.0772C23.3891 5.63037 23.6092 5.93607 23.5103 6.23185L20.539 15.1168C20.4767 15.303 20.3023 15.4286 20.1059 15.4286H18.995C18.7952 15.4286 18.6187 15.2988 18.5591 15.1081L16.8121 9.51773C16.7854 9.43228 16.6645 9.43228 16.6378 9.51773L14.8908 15.1081C14.8313 15.2988 14.6547 15.4286 14.455 15.4286H13.344Z" fill="#351B02"/>
<path d="M10.0633 15.4291C9.86885 15.4291 9.69572 15.3059 9.63194 15.1222L6.54711 6.23679C6.44411 5.94009 6.66443 5.63037 6.97851 5.63037H8.43779C8.63178 5.63037 8.80459 5.75293 8.86875 5.936L11.9825 14.8214C12.0865 15.1184 11.8662 15.4291 11.5515 15.4291H10.0633Z" fill="#351B02"/>
</g>
<defs>
<linearGradient id="paint0_linear_389_18103" x1="14.9096" y1="-2.52865" x2="14.9096" y2="34.4988" gradientUnits="userSpaceOnUse">
<stop stop-color="#FFD207"/>
<stop offset="1" stop-color="#FF9901"/>
</linearGradient>
</defs>
</svg>
