<svg width="150" height="50" viewBox="0 0 150 50" fill="none" xmlns="http://www.w3.org/2000/svg">
<g clip-path="url(#clip0_2_81)">
<path d="M91.5186 15.2275H101.384V16.0889H100.898C100.205 16.0889 99.6846 16.2373 99.3379 16.542C98.9913 16.8467 98.8184 17.2211 98.8184 17.665C98.8184 18.2657 99.0697 19.1012 99.5811 20.1719L104.73 30.8896L109.464 19.1445C109.724 18.5092 109.853 17.8826 109.854 17.2646C109.854 16.9862 109.802 16.777 109.689 16.6377C109.568 16.4636 109.377 16.333 109.108 16.2285C108.848 16.1241 108.38 16.0801 107.722 16.0801V15.2188H114.604V16.0801C114.032 16.141 113.599 16.2636 113.287 16.4551C112.975 16.6466 112.637 16.9863 112.272 17.5C112.134 17.7179 111.873 18.3096 111.483 19.2842L102.866 40.4932C102.034 42.5475 100.942 44.1058 99.5986 45.1592C98.2463 46.2126 96.9544 46.7353 95.7061 46.7354C94.7958 46.7354 94.0504 46.4735 93.4609 45.9424C92.8715 45.4113 92.585 44.8109 92.585 44.1318C92.585 43.4528 92.793 42.9562 93.2178 42.5645C93.6425 42.1728 94.2234 41.9727 94.96 41.9727C95.4714 41.9727 96.1654 42.1468 97.041 42.4863C97.6565 42.7214 98.0383 42.835 98.1943 42.835C98.6536 42.8348 99.1563 42.5909 99.7109 42.1123C100.257 41.6335 100.812 40.7018 101.367 39.3262L102.866 35.6348L95.2637 19.5977C95.0296 19.1188 94.6657 18.5176 94.1543 17.8125C93.7729 17.2728 93.4517 16.9074 93.209 16.7246C92.8536 16.4809 92.2818 16.2628 91.502 16.0713V15.21L91.5186 15.2275Z" fill="white"/>
<path fill-rule="evenodd" clip-rule="evenodd" d="M137.135 16.1064C136.086 16.1065 135.393 16.211 135.046 16.4199C134.699 16.6289 134.422 16.8906 134.223 17.1953C134.023 17.509 133.919 18.5098 133.919 20.2158V30.7246C133.919 32.9358 134.11 34.2939 134.482 34.7988C134.864 35.3037 135.739 35.5737 137.126 35.626V42.3818H136.251C136.19 41.1108 135.878 40.0047 135.314 39.0645C134.751 38.1245 133.971 37.4543 132.966 37.0713C131.96 36.6882 130.486 36.4883 128.526 36.4883H123.074C121.384 36.4883 120.057 36.6357 119.104 36.9404C118.15 37.2451 117.352 37.8724 116.711 38.8301C116.07 39.7877 115.68 40.9716 115.541 42.3818H114.683V35.626C115.948 35.5824 117.093 35.0777 118.124 34.1201C119.156 33.1625 120.066 31.2817 120.854 28.4785C121.643 25.6751 122.034 22.9235 122.034 20.2158C122.034 17.5082 120.837 16.1848 118.453 16.1064V15.2275H137.135V16.1064ZM123.568 18.0137C123.568 25.6139 122.198 31.2639 119.459 34.9814H127.313C128.726 34.9814 129.55 34.86 129.767 34.625C129.983 34.3812 130.087 33.5018 130.087 31.9697V16.7334H123.568V18.0137Z" fill="white"/>
<path d="M89.9668 14.9922H89.248C88.2945 11.7883 86.9333 9.48082 85.1562 8.0791C83.3878 6.66869 81.2547 5.96387 78.7754 5.96387C76.6949 5.96387 74.8137 6.49458 73.1406 7.55664C71.4588 8.6188 70.141 10.3082 69.1787 12.624C68.2164 14.9486 67.7314 17.8306 67.7314 21.2783C67.7315 24.1252 68.1816 26.5893 69.0918 28.6787C70.002 30.7681 71.372 32.37 73.1924 33.4844C75.0215 34.5988 77.1027 35.1562 79.4434 35.1562C81.4804 35.1562 83.2745 34.7201 84.8262 33.8408C86.3779 32.9702 88.0942 31.2292 89.958 28.6348L90.6777 29.0967C89.1087 31.8999 87.2708 33.946 85.1816 35.2432C83.0838 36.5403 80.5958 37.1934 77.7178 37.1934C72.525 37.1934 68.5026 35.2601 65.6592 31.3945C63.5354 28.5128 62.4688 25.1259 62.4688 21.2256C62.4688 18.0829 63.171 15.2013 64.5752 12.5723C65.9795 9.94303 67.9043 7.90519 70.3662 6.45996C72.8195 5.01473 75.5072 4.292 78.4199 4.29199C80.6825 4.29199 82.9192 4.84947 85.1211 5.96387C85.771 6.30326 86.2304 6.47739 86.5078 6.47754C86.9239 6.47754 87.2884 6.32922 87.5918 6.0332C87.9905 5.61531 88.2768 5.03194 88.4502 4.29199H89.248L89.9668 14.9922Z" fill="white"/>
<path d="M146.143 14.6006V31.6816C146.143 33.0137 146.238 33.9026 146.429 34.3379C146.619 34.7817 146.906 35.1037 147.287 35.3213C147.66 35.5388 148.353 35.6435 149.358 35.6436V36.4795H139.077V35.6436C140.108 35.6436 140.802 35.539 141.157 35.3389C141.513 35.1387 141.791 34.8079 141.999 34.3379C142.207 33.8765 142.311 32.9882 142.311 31.665V23.4717C142.311 21.1648 142.241 19.6761 142.103 18.9971C141.999 18.5008 141.825 18.1612 141.591 17.9609C141.357 17.7696 141.045 17.6739 140.646 17.6738C140.213 17.6738 139.693 17.7865 139.077 18.0215L138.757 17.1865L145.137 14.583H146.151L146.143 14.6006Z" fill="white"/>
<path fill-rule="evenodd" clip-rule="evenodd" d="M50.0371 15.2188C51.9183 15.2188 53.436 15.3661 54.5977 15.6621C55.7591 15.9581 56.7125 16.5329 57.458 17.4033C58.2035 18.2739 58.5762 19.3194 58.5762 20.5557C58.5761 22.9672 57.0764 24.5341 54.0684 25.2393L54.0859 25.248C57.9523 26.049 59.8857 27.8687 59.8857 30.6982C59.8857 32.631 59.0792 34.0765 57.4668 35.0342C55.8544 35.9918 53.6093 36.4707 50.7314 36.4707H40.2852V35.6084C41.6546 35.6084 42.5216 35.3475 42.8857 34.834C43.2498 34.3116 43.4316 33.1966 43.4316 31.4814V20.207C43.4316 18.536 43.3541 17.5522 43.1895 17.2559C43.0247 16.9598 42.7725 16.6989 42.4258 16.4551C42.079 16.2114 41.3685 16.0977 40.2852 16.0977V15.2188H50.0371ZM48.9102 26.249C48.3989 26.249 47.853 26.2669 47.2725 26.293V34.5986L47.2637 34.6074C48.0352 34.8512 48.9542 34.9814 50.0117 34.9814C51.8408 34.9814 53.2106 34.5811 54.1035 33.7715C54.9963 32.9705 55.4473 31.9341 55.4473 30.6631C55.4472 29.2441 54.8658 28.147 53.7129 27.3896C52.5599 26.6323 50.9559 26.249 48.9102 26.249ZM47.2637 24.7168C47.939 24.7342 48.3462 24.7431 48.4854 24.7432C50.5919 24.7432 52.1186 24.3341 53.0635 23.5244C53.9995 22.7148 54.4765 21.7222 54.4766 20.5645C54.4766 19.215 53.9994 18.2394 53.0459 17.6387C52.0923 17.038 50.5665 16.7334 48.4688 16.7334H47.2637V24.7168Z" fill="white"/>
<path d="M144.218 3.48242C144.868 3.48242 145.415 3.70849 145.874 4.16992C146.333 4.63131 146.559 5.18012 146.559 5.83301C146.559 6.4859 146.333 7.04348 145.874 7.50488C145.415 7.96631 144.868 8.20117 144.218 8.20117C143.568 8.20116 143.013 7.96616 142.554 7.50488C142.094 7.04345 141.859 6.48598 141.859 5.83301C141.859 5.18012 142.086 4.63131 142.545 4.16992C142.996 3.7174 143.559 3.48244 144.218 3.48242Z" fill="white"/>
<path fill-rule="evenodd" clip-rule="evenodd" d="M15.5087 7.55251C16.2889 7.21297 16.6618 7.40461 16.7138 8.17947C16.7311 8.41448 16.7138 8.65833 16.7138 8.89333V9.48513C17.2166 9.87401 17.6013 10.3907 17.8671 11.0349H22.6093C22.7825 11.209 22.7568 11.331 22.7568 11.4441C23.2767 12.1579 23.5886 12.9849 23.9872 13.7683C24.49 14.7608 24.9578 15.7799 25.4433 16.7898C25.5559 16.8072 25.6774 16.8164 25.79 16.8338C25.8677 18.5313 24.6197 19.924 22.912 20.0633C20.8836 20.2198 19.5144 19.0093 19.289 16.8416C19.4276 16.8242 19.5752 16.8072 19.7138 16.7898L19.6962 16.8338C20.5198 15.1448 21.352 13.4553 22.1669 11.7576C22.2016 11.6792 22.1933 11.5829 22.1933 11.4959H17.789C17.6503 12.1401 17.2513 12.5937 16.7138 12.9246V23.3894H25.3573C25.7122 23.6157 25.5479 23.8333 25.6259 24.0857H6.51946C6.38075 23.9029 6.39809 23.7112 6.51946 23.45H15.206C15.2838 23.3631 15.301 23.3452 15.3183 23.3191C15.3356 23.2931 15.3613 23.267 15.3613 23.241C15.3786 23.1801 15.3964 23.128 15.3964 23.0672V13.0027C14.8504 12.6371 14.3044 12.2278 14.2089 11.4793H9.79582C9.76135 11.836 10.0038 12.0798 10.1425 12.367C10.8447 13.8557 11.5646 15.3361 12.2841 16.8162C12.4228 16.851 12.5788 16.79 12.7001 16.9119C12.492 18.9228 11.2005 20.1506 9.33684 20.1072C7.57703 20.0637 6.29426 18.792 6.18157 16.9724C6.26825 16.8074 6.42385 16.8334 6.56243 16.8074C7.34264 15.2142 8.10546 13.6205 8.88567 12.0359C8.98098 11.827 9.01596 11.5748 9.24993 11.4529C9.25859 11.3398 9.26776 11.2266 9.28508 11.0613H14.1396C14.391 10.3996 14.6598 9.77293 15.3447 9.53787C15.518 8.85014 15.2748 8.17061 15.5087 7.55251ZM20.3984 17.8172C20.3204 17.6344 20.2248 17.3381 19.9042 17.5642C20.2163 18.6699 20.8233 19.2535 21.9589 19.5408H21.9501C22.4182 19.6627 22.895 19.8195 23.2851 19.3582C23.1117 19.0622 22.886 19.1668 22.6952 19.1668C22.3139 19.1494 21.9411 19.1494 21.5771 18.9666C21.0483 18.7141 20.6411 18.3656 20.3984 17.8172ZM6.88371 17.4431C6.81478 17.5297 6.77961 17.5556 6.77922 17.573C6.97861 18.8877 8.68689 19.9764 9.91789 19.576H9.92571C10.0904 19.5237 10.1601 19.4102 10.0907 19.2361C8.1665 18.975 8.55637 19.4015 6.88371 17.4431ZM9.44914 11.6707C9.20663 11.7752 9.18034 12.0015 9.09368 12.1756C8.46087 13.4727 7.82829 14.7613 7.21282 16.0672C7.12613 16.25 6.97894 16.4158 6.94426 16.6248C6.97023 16.6161 6.99641 16.5984 7.02239 16.5984C8.62603 16.5027 10.2215 16.5027 11.8251 16.5984C11.8509 16.607 11.8765 16.6162 11.9023 16.6248C11.8676 16.4507 11.7469 16.302 11.6689 16.1453C11.1661 15.0831 10.6538 14.021 10.1337 12.9676H10.1425C9.92585 12.5323 9.75248 12.0624 9.44914 11.6707ZM22.6435 11.6707C22.4617 11.6794 22.4359 11.7662 22.4013 11.8445V11.8533C21.6558 13.3943 20.9095 14.9265 20.164 16.4676C20.138 16.5111 20.121 16.5726 20.121 16.6248C20.1383 16.6161 20.1555 16.6072 20.1728 16.6072C21.7765 16.5114 23.3717 16.5114 24.9755 16.6072C24.9842 16.6072 25.002 16.616 25.0107 16.616C24.8806 16.0675 24.5339 15.6142 24.3085 15.1179C23.7711 13.9513 23.1896 12.8025 22.6435 11.6707ZM16.038 10.0427C15.4225 10.0166 14.8331 10.5995 14.8417 11.2263C14.8591 11.8444 15.3701 12.3404 15.9941 12.3406C16.6182 12.3406 17.1387 11.8445 17.1474 11.2263C17.156 10.6344 16.6274 10.069 16.038 10.0427Z" fill="#D41D17"/>
<path fill-rule="evenodd" clip-rule="evenodd" d="M10.7587 1.80642C16.116 0.0130595 21.1353 0.787445 25.6864 4.21755C29.0674 6.76848 31.0355 10.2169 31.7724 14.3523V14.3611C32.4398 18.1046 31.6675 21.6396 29.8124 24.9304C25.3393 32.8617 20.84 40.7755 16.3495 48.698C16.2542 48.8633 16.1421 49.0289 15.9863 49.281C15.7175 48.8545 15.5001 48.5149 15.3007 48.158C10.9663 40.4879 6.64076 32.8174 2.28899 25.156C0.771986 22.492 -0.060756 19.6453 -7.44592e-05 16.572C0.138639 9.8073 4.36099 3.93945 10.7587 1.80642ZM15.9599 2.7029C8.16645 2.8335 1.80316 8.93667 1.83782 16.9812C1.87249 24.5121 7.75017 31.0505 15.9423 31.0506V31.0418C24.2212 31.0505 30.1853 24.4687 30.1767 16.8943C30.168 9.1806 24.0827 2.80742 15.9599 2.7029Z" fill="#D41D17"/>
</g>
<defs>
<clipPath id="clip0_2_81">
<rect width="150" height="50" fill="white"/>
</clipPath>
</defs>
</svg>
