<svg width="213" height="36" viewBox="0 0 213 36" fill="none" xmlns="http://www.w3.org/2000/svg">
<g class="icon">
<path d="M15.0002 1.45264C20.8845 1.45264 25.8438 4.15168 27.6916 5.30322C28.187 5.61197 28.466 6.17461 28.4582 6.7583C28.165 28.6466 17.6956 33.6481 15.4298 34.4751C15.3277 34.5124 15.2247 34.536 15.1213 34.5464C6.91426 28.5778 13.6729 22.8562 17.717 22.0327C17.9172 21.992 18.1146 22.1056 18.1984 22.2944L19.4045 25.0103C19.5136 25.2561 19.8077 25.3584 20.0412 25.2319L20.3302 25.0757C20.4923 24.9876 20.584 24.8086 20.5617 24.6235L20.2707 22.2056C20.2397 21.9462 20.4286 21.7151 20.6867 21.688C21.6123 21.591 23.5686 21.2994 23.5392 20.5679C23.5052 19.7282 20.3414 20.007 19.5636 20.0884C19.4529 20.0999 19.3417 20.072 19.2492 20.0083L15.633 17.5161C15.5472 17.457 15.4441 17.429 15.341 17.436L14.9709 17.4614C14.578 17.4884 14.4083 17.9697 14.6945 18.2456L16.5304 20.0132C16.8069 20.2794 16.6611 20.7501 16.2882 20.8208C11.3177 21.7605 6.70006 24.8413 7.18864 28.3335C4.30192 24.2272 1.68652 17.5424 1.54215 6.7583C1.53435 6.17461 1.81432 5.61196 2.30973 5.30322C4.15764 4.15166 9.11617 1.45278 15.0002 1.45264Z" fill="url(#paint0_linear_389_18053)"/>
<path d="M13.344 15.4286C13.1476 15.4286 12.9732 15.303 12.9109 15.1168L9.93963 6.23185C9.84071 5.93607 10.0608 5.63037 10.3727 5.63037H11.6563C11.8552 5.63037 12.0312 5.75916 12.0915 5.94876L13.851 11.4876C13.8781 11.5728 13.9988 11.5724 14.0253 11.487L15.7447 5.95156C15.804 5.76054 15.9808 5.63037 16.1808 5.63037H17.2834C17.4835 5.63037 17.6603 5.76068 17.7196 5.95184L19.4391 11.5002C19.4656 11.5856 19.5864 11.586 19.6134 11.5008L21.3731 5.94905C21.4332 5.7593 21.6093 5.63037 21.8084 5.63037H23.0772C23.3891 5.63037 23.6092 5.93607 23.5103 6.23185L20.539 15.1168C20.4767 15.303 20.3023 15.4286 20.1059 15.4286H18.995C18.7952 15.4286 18.6187 15.2988 18.5591 15.1081L16.8121 9.51773C16.7854 9.43228 16.6645 9.43228 16.6378 9.51773L14.8908 15.1081C14.8313 15.2988 14.6547 15.4286 14.455 15.4286H13.344Z" fill="#351B02"/>
<path d="M10.0633 15.4291C9.86885 15.4291 9.69572 15.3059 9.63194 15.1222L6.54711 6.23679C6.44411 5.94009 6.66443 5.63037 6.97851 5.63037H8.43779C8.63178 5.63037 8.80459 5.75293 8.86875 5.936L11.9825 14.8214C12.0865 15.1184 11.8662 15.4291 11.5515 15.4291H10.0633Z" fill="#351B02"/>
</g>
<g class="text">
 <path d="M45.3176 25.6963L39.4756 9.59629H42.4541L47.1116 22.4188L51.7806 9.59629H54.7476L48.9056 25.6963H45.3176Z" fill="#000" />
<path d="M54.946 14.1963H57.752V25.6963H54.946V14.1963ZM56.372 13.3798C55.958 13.3798 55.6091 13.2456 55.3255 12.9773C55.0418 12.7013 54.9 12.3563 54.9 11.9423C54.9 11.536 55.0418 11.1948 55.3255 10.9188C55.6091 10.6428 55.9541 10.5048 56.3605 10.5048C56.7668 10.5048 57.108 10.6428 57.384 10.9188C57.6676 11.1948 57.8095 11.536 57.8095 11.9423C57.8095 12.3563 57.6715 12.7013 57.3955 12.9773C57.1195 13.2456 56.7783 13.3798 56.372 13.3798Z" fill="black" />
<path d="M78.735 14.1963H81.541V25.6963H78.735L78.6085 24.2703C78.2941 24.784 77.8763 25.2018 77.355 25.5238C76.8413 25.8381 76.2318 25.9953 75.5265 25.9953C74.6755 25.9953 73.8781 25.8343 73.1345 25.5123C72.3908 25.1903 71.7353 24.7456 71.168 24.1783C70.6083 23.611 70.1675 22.9555 69.8455 22.2118C69.5311 21.4681 69.374 20.6708 69.374 19.8198C69.374 18.9995 69.5235 18.229 69.8225 17.5083C70.1291 16.7876 70.5546 16.1551 71.099 15.6108C71.6433 15.0665 72.272 14.641 72.985 14.3343C73.698 14.0276 74.4646 13.8743 75.285 13.8743C76.044 13.8743 76.7225 14.043 77.3205 14.3803C77.9261 14.7176 78.4398 15.147 78.8615 15.6683L78.735 14.1963ZM75.4575 23.2928C76.0555 23.2928 76.5845 23.1433 77.0445 22.8443C77.5045 22.5453 77.8648 22.1428 78.1255 21.6368C78.3861 21.1231 78.5165 20.5596 78.5165 19.9463C78.5165 19.3253 78.3861 18.7618 78.1255 18.2558C77.8648 17.7421 77.5006 17.3358 77.033 17.0368C76.573 16.7378 76.0478 16.5883 75.4575 16.5883C74.8671 16.5883 74.3266 16.7416 73.836 17.0483C73.353 17.3473 72.9658 17.7498 72.6745 18.2558C72.3908 18.7618 72.249 19.3253 72.249 19.9463C72.249 20.5673 72.3946 21.1308 72.686 21.6368C72.9773 22.1428 73.3645 22.5453 73.8475 22.8443C74.3381 23.1433 74.8748 23.2928 75.4575 23.2928Z" fill="black" />
<path d="M90.4964 25.6963L86.3794 9.59629H89.2774L92.0834 20.6018L94.8894 9.59629H97.4539L100.26 20.6018L103.054 9.59629H105.952L101.858 25.6963H98.6729L96.1659 15.9443L93.6934 25.6963H90.4964Z" fill="black" />
<path d="M110.442 25.9953C109.384 25.9953 108.418 25.7231 107.544 25.1788C106.677 24.6345 105.983 23.9061 105.462 22.9938C104.948 22.0738 104.692 21.058 104.692 19.9463C104.692 19.103 104.841 18.3171 105.14 17.5888C105.439 16.8528 105.849 16.2088 106.371 15.6568C106.9 15.0971 107.513 14.6601 108.211 14.3458C108.908 14.0315 109.652 13.8743 110.442 13.8743C111.5 13.8743 112.462 14.1465 113.328 14.6908C114.202 15.2351 114.896 15.9673 115.41 16.8873C115.931 17.8073 116.192 18.827 116.192 19.9463C116.192 20.782 116.042 21.564 115.743 22.2923C115.444 23.0206 115.03 23.6646 114.501 24.2243C113.98 24.7763 113.37 25.2095 112.673 25.5238C111.983 25.8381 111.239 25.9953 110.442 25.9953ZM110.442 23.1893C111.001 23.1893 111.503 23.0398 111.948 22.7408C112.393 22.4418 112.742 22.047 112.995 21.5563C113.255 21.0656 113.386 20.529 113.386 19.9463C113.386 19.3483 113.251 18.804 112.983 18.3133C112.722 17.815 112.366 17.4201 111.914 17.1288C111.469 16.8298 110.978 16.6803 110.442 16.6803C109.89 16.6803 109.391 16.8298 108.947 17.1288C108.502 17.4278 108.149 17.8265 107.889 18.3248C107.628 18.8231 107.498 19.3636 107.498 19.9463C107.498 20.552 107.632 21.1001 107.9 21.5908C108.168 22.0815 108.525 22.4725 108.97 22.7638C109.422 23.0475 109.913 23.1893 110.442 23.1893Z" fill="black" />
<path d="M117.074 25.6963L117.062 14.1963H119.868L119.88 15.2198C120.271 14.8058 120.738 14.48 121.283 14.2423C121.827 13.997 122.413 13.8743 123.042 13.8743C123.464 13.8743 123.885 13.9356 124.307 14.0583L123.203 16.8873C122.912 16.7723 122.62 16.7148 122.329 16.7148C121.877 16.7148 121.463 16.826 121.087 17.0483C120.719 17.263 120.424 17.5581 120.202 17.9338C119.987 18.3018 119.88 18.712 119.88 19.1643V25.6963H117.074Z" fill="black" />
<path d="M135.177 25.6963H131.945L129.323 21.1768L127.713 23.0973V25.6963H124.907V8.44629H127.713V18.7388L131.52 14.1963H135.188L131.244 18.8998L135.177 25.6963Z" fill="black" />
<path d="M145.823 9.59629H149.055L154.908 25.6963H151.93L150.895 22.8443H143.995L142.96 25.6963H139.981L145.823 9.59629ZM145.018 20.0383H149.86L147.433 13.4028L145.018 20.0383Z" fill="black" />
<path d="M163.665 14.1963H166.471V25.9148C166.471 26.7428 166.302 27.4941 165.965 28.1688C165.627 28.8511 165.167 29.4338 164.585 29.9168C164.002 30.4075 163.335 30.7831 162.584 31.0438C161.832 31.3121 161.043 31.4463 160.215 31.4463C159.41 31.4463 158.635 31.2815 157.892 30.9518C157.148 30.6221 156.489 30.1698 155.914 29.5948C155.346 29.0275 154.913 28.3796 154.614 27.6513L157.179 26.4898C157.332 26.9115 157.562 27.2795 157.869 27.5938C158.183 27.9158 158.543 28.165 158.95 28.3413C159.356 28.5253 159.778 28.6173 160.215 28.6173C160.659 28.6173 161.085 28.556 161.491 28.4333C161.905 28.3106 162.277 28.1305 162.607 27.8928C162.936 27.6628 163.193 27.3791 163.377 27.0418C163.569 26.7121 163.665 26.3365 163.665 25.9148V24.2933C163.304 24.7993 162.852 25.2095 162.308 25.5238C161.763 25.8381 161.135 25.9953 160.422 25.9953C159.594 25.9953 158.819 25.8381 158.099 25.5238C157.378 25.2095 156.742 24.7763 156.19 24.2243C155.645 23.6646 155.216 23.0206 154.902 22.2923C154.595 21.564 154.442 20.782 154.442 19.9463C154.442 19.1106 154.595 18.3286 154.902 17.6003C155.216 16.872 155.645 16.2318 156.19 15.6798C156.742 15.1201 157.378 14.6831 158.099 14.3688C158.819 14.0545 159.594 13.8973 160.422 13.8973C161.135 13.8973 161.763 14.0545 162.308 14.3688C162.852 14.6755 163.304 15.0818 163.665 15.5878V14.1963ZM160.456 23.2928C161.046 23.2928 161.568 23.1433 162.02 22.8443C162.48 22.5376 162.84 22.1313 163.101 21.6253C163.362 21.1116 163.492 20.552 163.492 19.9463C163.492 19.333 163.358 18.7733 163.09 18.2673C162.829 17.7613 162.469 17.355 162.009 17.0483C161.556 16.7416 161.039 16.5883 160.456 16.5883C159.881 16.5883 159.356 16.7416 158.881 17.0483C158.405 17.3473 158.026 17.7498 157.742 18.2558C157.458 18.7618 157.317 19.3253 157.317 19.9463C157.317 20.5673 157.458 21.1308 157.742 21.6368C158.026 22.1428 158.405 22.5453 158.881 22.8443C159.356 23.1433 159.881 23.2928 160.456 23.2928Z" fill="black" />
<path d="M173.108 25.9953C172.05 25.9953 171.084 25.7231 170.21 25.1788C169.343 24.6345 168.649 23.9023 168.128 22.9823C167.614 22.0623 167.358 21.0465 167.358 19.9348C167.358 19.0991 167.507 18.3171 167.806 17.5888C168.105 16.8528 168.515 16.2088 169.037 15.6568C169.566 15.0971 170.179 14.6601 170.877 14.3458C171.574 14.0315 172.318 13.8743 173.108 13.8743C174.005 13.8743 174.825 14.066 175.569 14.4493C176.32 14.825 176.956 15.3425 177.478 16.0018C177.999 16.6611 178.378 17.4125 178.616 18.2558C178.854 19.0991 178.907 19.9808 178.777 20.9008H170.371C170.478 21.3301 170.654 21.7173 170.9 22.0623C171.145 22.3996 171.455 22.6718 171.831 22.8788C172.207 23.0781 172.632 23.1816 173.108 23.1893C173.598 23.197 174.043 23.082 174.442 22.8443C174.848 22.599 175.185 22.2693 175.454 21.8553L178.317 22.5223C177.849 23.542 177.152 24.3776 176.224 25.0293C175.296 25.6733 174.258 25.9953 173.108 25.9953ZM170.279 18.7963H175.937C175.852 18.3363 175.672 17.9223 175.396 17.5543C175.128 17.1786 174.794 16.8796 174.396 16.6573C173.997 16.435 173.568 16.3238 173.108 16.3238C172.648 16.3238 172.222 16.435 171.831 16.6573C171.44 16.872 171.107 17.1671 170.831 17.5428C170.562 17.9108 170.378 18.3286 170.279 18.7963Z" fill="black" />
<path d="M190.262 18.4283V25.6963H187.456V19.1643C187.456 18.712 187.345 18.3018 187.123 17.9338C186.9 17.5581 186.601 17.263 186.226 17.0483C185.858 16.826 185.447 16.7148 184.995 16.7148C184.543 16.7148 184.129 16.826 183.753 17.0483C183.385 17.263 183.09 17.5581 182.868 17.9338C182.653 18.3018 182.546 18.712 182.546 19.1643V25.6963H179.74L179.728 14.1963H182.534L182.546 15.2198C182.937 14.8058 183.404 14.48 183.949 14.2423C184.493 13.997 185.079 13.8743 185.708 13.8743C186.544 13.8743 187.307 14.0813 187.997 14.4953C188.687 14.9016 189.235 15.4498 189.641 16.1398C190.055 16.8221 190.262 17.585 190.262 18.4283Z" fill="black" />
<path d="M198.999 22.2348L201.529 23.6033C201 24.324 200.337 24.9028 199.539 25.3398C198.742 25.7768 197.872 25.9953 196.929 25.9953C195.871 25.9953 194.905 25.7231 194.031 25.1788C193.164 24.6345 192.471 23.9061 191.949 22.9938C191.436 22.0738 191.179 21.058 191.179 19.9463C191.179 19.103 191.328 18.3171 191.627 17.5888C191.926 16.8528 192.336 16.2088 192.858 15.6568C193.387 15.0971 194 14.6601 194.698 14.3458C195.395 14.0315 196.139 13.8743 196.929 13.8743C197.872 13.8743 198.742 14.0928 199.539 14.5298C200.337 14.9668 201 15.5533 201.529 16.2893L198.999 17.6463C198.73 17.3396 198.412 17.102 198.044 16.9333C197.684 16.7646 197.312 16.6803 196.929 16.6803C196.377 16.6803 195.878 16.8336 195.434 17.1403C194.989 17.4393 194.636 17.838 194.376 18.3363C194.115 18.827 193.985 19.3636 193.985 19.9463C193.985 20.5213 194.115 21.058 194.376 21.5563C194.636 22.047 194.989 22.4418 195.434 22.7408C195.878 23.0398 196.377 23.1893 196.929 23.1893C197.327 23.1893 197.707 23.105 198.067 22.9363C198.428 22.76 198.738 22.5261 198.999 22.2348Z" fill="black" />
<path d="M209.686 14.1963H212.665L206.374 31.4463H203.396L205.477 25.6963L201.337 14.1963H204.408L206.88 21.8553L209.686 14.1963Z" fill="black" />
<path d="M68.9933 16.5883L62.5993 23.3043H68.9933V25.6963H59.1723V23.3043L65.5663 16.5883H59.1723V14.1963H68.9933V16.5883Z" fill="black" />   
</g>
<defs>
<linearGradient id="paint0_linear_389_18053" x1="14.9096" y1="-2.52865" x2="14.9096" y2="34.4988" gradientUnits="userSpaceOnUse">
<stop stop-color="#FFD207"/>
<stop offset="1" stop-color="#FF9901"/>
</linearGradient>
</defs>
  
<style>
</style>
</svg>
