<svg width="804" height="660" viewBox="0 0 804 660" fill="none" xmlns="http://www.w3.org/2000/svg">
<path d="M402 0C179.989 0 0 179.98 0 402C0 624.02 179.989 804 402 804C624.02 804 804 624.02 804 402C804 179.98 624.02 0 402 0ZM672.519 672.528C600.266 744.781 504.188 784.579 401.991 784.579C299.803 784.579 203.725 744.781 131.472 672.528C59.2191 600.266 19.4211 504.188 19.4211 402C19.4211 299.812 59.2191 203.734 131.472 131.472C133.169 129.775 134.947 128.184 136.671 126.523C135.313 130.668 133.83 134.75 131.436 138.324C125.755 146.801 116.258 150.196 110.3 158.147C104.877 165.392 100.518 176.362 98.4989 184.5C96.3103 193.308 97.6413 204.002 94.5415 212.783C90.6108 223.941 83.4552 230.569 84.7863 243.505C100.33 248.114 93.5856 220.501 106.682 219.081C110.836 229.39 108.102 248.57 106.923 259.799C105.297 275.254 102.287 279.077 111.515 292.352C118.822 302.867 121.243 309.897 135.385 311.559C148.356 313.087 153.734 318.947 159.138 331.445C169.135 333.571 175.192 335.232 176.487 346.31C180.82 348.713 188.976 356.529 193.559 357.735C200.187 359.477 211.273 350.026 217.527 357.307C227.979 369.465 204.296 401.223 200.062 412.184C193.862 428.228 192.951 451.794 208.147 463.318C215.954 469.232 224.253 472.064 226.791 482.793C229.14 492.718 227.318 500.981 231.713 510.352C238.574 524.976 254.269 529.827 265.445 541.021C280.105 555.698 279.095 574.753 279.095 595.532C279.095 617.293 287.359 633.838 290.235 653.759C293.201 674.306 299.24 693.352 303.564 713.219C306.815 728.165 319.706 750.757 338.377 747.72C339.672 740.645 332.329 735.088 331.409 728.093C330.569 721.715 332.365 715.087 331.087 708.27C328.568 694.763 328.702 686.839 337.653 675.092C340.816 670.947 345.166 667.517 348.436 663.363C354.769 655.305 349.919 657.699 349.642 648.864C349.302 637.849 352.661 643.254 359.299 639.814C362.747 638.028 366.57 632.641 369.215 629.907C375.021 623.868 383.955 616.65 388.439 609.495C393.478 601.446 392.852 590.225 398.016 581.908C403.947 572.368 412.354 572.359 420.644 566.132C431.391 558.074 426.96 549.588 428.916 538.537C432.195 520.054 440.565 499.677 452.214 484.964C466.874 466.436 473.181 450.687 455.332 432.9C446.515 424.11 441.923 426.451 430.22 423.395C421.305 421.055 413.274 414.542 404.198 413.426C398.766 412.756 395.55 414.721 390.574 413.417C385.947 412.202 386.51 409.379 381.623 409.433C374.342 409.522 364.167 424.691 358.021 414.998C354.6 409.593 364.989 394.657 364.525 387.412C363.944 378.523 360.63 364.033 351.92 359.165C348.623 357.324 341.307 357.065 337.269 355.511C332.517 353.68 327.862 350.749 323.61 348.016C318.062 344.46 307.333 338.252 304.877 331.882C298.061 331.614 293.442 327.853 286.51 327.952C280.292 328.032 276.165 330.909 269.438 330.149C263.551 329.488 257.209 324.834 250.857 325.718C246.623 326.308 240.342 331.802 236.68 333.874C227.005 339.333 216.696 343.29 205.985 345.291C189.405 348.4 186.43 342.057 187.403 326.71L184.92 321.752C191.084 304.627 179.98 303.43 167.759 299.267C166.071 287.073 181.07 278.363 174.799 264.989C162.104 264.337 148.275 300.044 137.538 284.589C130.453 274.387 141.218 245.863 147.454 237.216C153.734 228.497 176.576 212.792 187.341 211.434C195.72 210.389 203.046 214.069 206.262 221.413C209.773 229.417 205.19 236.966 206.199 246.033C216.901 243.558 214.132 229.944 213.659 222.645C212.881 210.46 219.269 211.372 225.486 202.581C231.15 194.577 232.025 185.447 239.083 177.711C244.586 171.681 251.045 165.329 257.075 159.773C263.962 153.43 271.725 154.011 278.791 149.339C289.529 142.237 275.325 129.042 291.146 130.043C296.774 130.4 293.978 133.902 301.437 132.213C304.6 131.49 310.442 128.569 313.757 127.229C328.854 121.091 318.152 119.448 311.219 111.461C302.411 101.304 314.882 103.082 323.976 101.554C330.649 100.429 329.238 98.2577 335.098 102.179C340.262 105.637 337.224 110.237 344.728 109.978C359.031 109.496 349.124 95.1668 345.934 90.4053C340.485 82.2581 339.091 76.5944 327.576 76.2817C328.666 72.628 328.818 67.7951 327.201 64.2664C317.509 65.5439 315.829 58.4955 308.495 55.7172C296.14 51.0361 298.123 61.1576 293.067 68.0631C287.85 75.1829 277.916 73.9501 274.093 82.6333C270.117 91.6649 273.905 98.5704 259.379 96.1048C261.354 90.6644 260.675 83.6964 260.308 77.8897C256.092 77.3537 252.233 76.2817 248.32 75.0132C248.338 60.4876 264.427 59.2727 275.361 57.888C287.609 56.3425 291.611 43.8805 302.545 41.7812C312.756 39.8248 320.063 56.3515 332.651 46.766C339.833 41.2988 336.51 38.0917 333.883 32.83C333.178 31.4185 329.56 28.2561 328.595 26.9429C328.479 26.7911 328.443 26.6571 328.354 26.5052C338.109 24.6203 347.98 23.1641 357.923 22.0385C359.79 27.47 363.846 34.036 366.061 37.7969C367.678 40.5573 370.742 42.4065 372.038 45.4439C373.512 48.8921 370.037 53.1712 374.396 55.5028C381.132 59.1029 400.723 35.6797 405.43 31.8741C411.398 27.0501 415.132 24.4059 413.712 19.7337C445.202 20.6807 476.031 25.4064 505.689 33.7144C508.048 36.6713 510.469 39.7176 512.898 43.0855C518.115 50.3304 521.412 56.8607 530.828 60.0856C536.277 61.9527 553.679 61.6132 546.443 74.0573C539.761 85.5367 532.373 70.4929 529.005 66.8749C524.342 61.8723 510.54 56.3068 510.969 67.804C511.612 84.9024 550.15 82.1509 541.878 100.938C546.488 103.662 555.609 108.183 554.108 114.909C552.259 123.226 541.44 117.92 541.655 128.551C541.959 143.594 558.378 155.985 573.627 150.562C589.886 144.791 577.638 122.217 596.264 119.903C603.607 118.992 607.94 121.136 614.515 126.344C619.875 130.587 623.323 140.218 630.711 139.467C631.479 134.884 628.022 131.606 627.433 127.389C633.15 128.81 644.647 135.956 647.926 140.932C652.893 148.463 652.366 159.317 664.497 149.598C662.684 148.106 661.772 144.774 660.781 143.585C676.298 143.639 687.125 150.026 693.798 163.489C708.681 193.559 672.126 169.698 670.313 185.367C661.308 182.508 657.306 175.263 649.498 170.93C645.791 168.876 638.939 169.983 636.098 167.893C632.185 165.034 633.15 159.817 629.711 156.994C616.195 145.908 585.366 163.811 572.939 170.966C569.571 172.905 565.98 173.119 563.684 176.764C559.736 183.008 565.284 184.616 564.042 190.441C562.282 198.767 551.419 202.599 548.131 209.272C540.243 225.299 556.261 248.231 554.108 266.017C552.911 275.888 542.262 286.59 546.354 294.854C548.114 298.409 554.251 301.437 556.6 305.636C558.735 309.442 559.647 314.444 562.452 318.393C571.564 331.194 584.669 345.434 595.335 357.396C601.401 364.185 609.655 366.088 618.803 364.203C626.352 362.649 637.822 360.121 644.817 356.762C654.17 352.286 655.412 345.97 665.23 350.24C673.055 353.644 679.934 363.605 689.064 355.35C696.595 362.711 688.242 375.522 686.562 383.714C684.409 394.219 688.563 403.34 695.022 412.273C702.767 422.984 704.59 424.869 703 439.189C701.767 450.347 698.926 460.549 696.532 471.609C694.236 482.177 687.5 490.208 687.858 501.41C688.197 511.746 692.664 520.054 691.306 531.14C690.1 540.904 689.51 552.544 686.964 562.112C684.347 571.903 677.433 580.586 674.52 590.609C671.751 600.15 672.537 612.496 679.201 620.34C686.143 628.505 693.039 623.833 701.195 617.66C717.257 605.457 724.583 584.758 735.249 568.312C746.148 551.508 757.136 536.179 764.399 518.759C765.935 515.06 767.802 511.424 769.696 507.78C752.115 569.402 719.115 625.932 672.519 672.528Z" fill="url(#paint0_radial_450_19421)"/>
<g filter="url(#filter0_f_450_19421)">
<path d="M289.38 114.679C290.333 116.786 296.1 109.168 302.339 106.345C308.579 103.521 312.864 99.525 311.911 97.4185C310.958 95.3121 305.127 95.8932 298.888 98.7164C292.648 101.54 288.427 112.573 289.38 114.679Z" fill="url(#paint1_radial_450_19421)"/>
</g>
<g filter="url(#filter1_f_450_19421)">
<path d="M138.77 201.815C147.017 197.22 153.431 192.446 160.118 189.42C166.805 186.395 166.929 180.462 166.031 178.478C165.133 176.493 158.985 177.337 152.298 180.363C145.611 183.389 130.524 206.41 138.77 201.815Z" fill="url(#paint2_radial_450_19421)"/>
</g>
<g filter="url(#filter2_f_450_19421)">
<path d="M603.845 99.3052C603.14 101.35 594.292 93.7849 585.939 90.9051C577.586 88.0253 571.385 84.0334 572.09 81.9889C572.795 79.9445 580.138 80.6216 588.491 83.5014C596.845 86.3812 604.55 97.2607 603.845 99.3052Z" fill="url(#paint3_radial_450_19421)"/>
</g>
<g filter="url(#filter3_f_450_19421)">
<path d="M630.111 204.017C628.403 207.776 623.741 196.706 617.186 193.728C610.631 190.749 606.703 185.287 608.411 181.528C610.119 177.769 616.818 177.136 623.372 180.115C629.927 183.094 631.82 200.258 630.111 204.017Z" fill="url(#paint4_radial_450_19421)" fill-opacity="0.86"/>
</g>
<g filter="url(#filter4_i_450_19421)">
<path d="M583 29C593.987 29 602.894 37.9071 602.895 48.8945C602.895 67.0338 583.003 82.9976 583 83C582.995 82.9961 563.105 67.0329 563.105 48.8945C563.106 37.9071 572.013 29 583 29ZM583 39.4209C577.768 39.4209 573.526 43.6625 573.526 48.8945C573.526 54.1267 577.768 58.3682 583 58.3682C588.232 58.3682 592.474 54.1267 592.474 48.8945C592.474 43.6625 588.232 39.4209 583 39.4209Z" fill="url(#paint5_radial_450_19421)"/>
</g>
<g filter="url(#filter5_i_450_19421)">
<path d="M157.421 139C166.374 139 173.632 146.258 173.632 155.211C173.632 169.992 157.421 183 157.421 183C157.402 182.985 141.21 169.983 141.21 155.211C141.21 146.258 148.468 139 157.421 139ZM157.421 147.491C153.158 147.491 149.701 150.947 149.701 155.21C149.701 159.473 153.158 162.93 157.421 162.93C161.684 162.93 165.141 159.473 165.141 155.21C165.14 150.947 161.684 147.491 157.421 147.491Z" fill="url(#paint6_radial_450_19421)"/>
</g>
<g filter="url(#filter6_i_450_19421)">
<path d="M615.158 131C625.739 131 634.315 139.578 634.315 150.158C634.315 167.588 615.243 182.932 615.158 183C615.158 183 596 167.627 596 150.158C596 139.578 604.578 131 615.158 131ZM615.158 141.035C610.12 141.035 606.035 145.12 606.035 150.158C606.035 155.196 610.12 159.281 615.158 159.281C620.196 159.281 624.28 155.196 624.28 150.158C624.28 145.12 620.196 141.035 615.158 141.035Z" fill="url(#paint7_radial_450_19421)"/>
</g>
<g filter="url(#filter7_i_450_19421)">
<path d="M302.632 64C310.16 64 316.264 70.1033 316.264 77.6318C316.264 90.0545 302.647 100.988 302.632 101C302.632 101 289 90.0614 289 77.6318C289 70.1033 295.103 64 302.632 64ZM302.632 71.1406C299.047 71.1406 296.141 74.0468 296.141 77.6318C296.141 81.2168 299.047 84.123 302.632 84.123C306.217 84.123 309.123 81.2168 309.123 77.6318C309.123 74.0468 306.217 71.1406 302.632 71.1406Z" fill="url(#paint8_radial_450_19421)"/>
</g>
<defs>
<filter id="filter0_f_450_19421" x="282.445" y="89.3523" width="36.3985" height="32.4896" filterUnits="userSpaceOnUse" color-interpolation-filters="sRGB">
<feFlood flood-opacity="0" result="BackgroundImageFix"/>
<feBlend mode="normal" in="SourceGraphic" in2="BackgroundImageFix" result="shape"/>
<feGaussianBlur stdDeviation="3.4" result="effect1_foregroundBlur_450_19421"/>
</filter>
<filter id="filter1_f_450_19421" x="129.567" y="170.604" width="43.6594" height="38.6156" filterUnits="userSpaceOnUse" color-interpolation-filters="sRGB">
<feFlood flood-opacity="0" result="BackgroundImageFix"/>
<feBlend mode="normal" in="SourceGraphic" in2="BackgroundImageFix" result="shape"/>
<feGaussianBlur stdDeviation="3.4" result="effect1_foregroundBlur_450_19421"/>
</filter>
<filter id="filter2_f_450_19421" x="565.235" y="74.0076" width="45.4543" height="32.4438" filterUnits="userSpaceOnUse" color-interpolation-filters="sRGB">
<feFlood flood-opacity="0" result="BackgroundImageFix"/>
<feBlend mode="normal" in="SourceGraphic" in2="BackgroundImageFix" result="shape"/>
<feGaussianBlur stdDeviation="3.4" result="effect1_foregroundBlur_450_19421"/>
</filter>
<filter id="filter3_f_450_19421" x="601.212" y="171.437" width="36.294" height="40.1498" filterUnits="userSpaceOnUse" color-interpolation-filters="sRGB">
<feFlood flood-opacity="0" result="BackgroundImageFix"/>
<feBlend mode="normal" in="SourceGraphic" in2="BackgroundImageFix" result="shape"/>
<feGaussianBlur stdDeviation="3.4" result="effect1_foregroundBlur_450_19421"/>
</filter>
<filter id="filter4_i_450_19421" x="563.105" y="29" width="39.7891" height="54" filterUnits="userSpaceOnUse" color-interpolation-filters="sRGB">
<feFlood flood-opacity="0" result="BackgroundImageFix"/>
<feBlend mode="normal" in="SourceGraphic" in2="BackgroundImageFix" result="shape"/>
<feColorMatrix in="SourceAlpha" type="matrix" values="0 0 0 0 0 0 0 0 0 0 0 0 0 0 0 0 0 0 127 0" result="hardAlpha"/>
<feOffset dx="-0.7" dy="-1.5"/>
<feComposite in2="hardAlpha" operator="arithmetic" k2="-1" k3="1"/>
<feColorMatrix type="matrix" values="0 0 0 0 0.403922 0 0 0 0 0.2 0 0 0 0 0.0196078 0 0 0 0.29 0"/>
<feBlend mode="normal" in2="shape" result="effect1_innerShadow_450_19421"/>
</filter>
<filter id="filter5_i_450_19421" x="141.21" y="139" width="32.4219" height="44" filterUnits="userSpaceOnUse" color-interpolation-filters="sRGB">
<feFlood flood-opacity="0" result="BackgroundImageFix"/>
<feBlend mode="normal" in="SourceGraphic" in2="BackgroundImageFix" result="shape"/>
<feColorMatrix in="SourceAlpha" type="matrix" values="0 0 0 0 0 0 0 0 0 0 0 0 0 0 0 0 0 0 127 0" result="hardAlpha"/>
<feOffset dx="0.6" dy="-1.1"/>
<feComposite in2="hardAlpha" operator="arithmetic" k2="-1" k3="1"/>
<feColorMatrix type="matrix" values="0 0 0 0 0.403922 0 0 0 0 0.2 0 0 0 0 0.0196078 0 0 0 0.29 0"/>
<feBlend mode="normal" in2="shape" result="effect1_innerShadow_450_19421"/>
</filter>
<filter id="filter6_i_450_19421" x="596" y="131" width="38.3154" height="52" filterUnits="userSpaceOnUse" color-interpolation-filters="sRGB">
<feFlood flood-opacity="0" result="BackgroundImageFix"/>
<feBlend mode="normal" in="SourceGraphic" in2="BackgroundImageFix" result="shape"/>
<feColorMatrix in="SourceAlpha" type="matrix" values="0 0 0 0 0 0 0 0 0 0 0 0 0 0 0 0 0 0 127 0" result="hardAlpha"/>
<feOffset dx="-0.6" dy="-1.5"/>
<feComposite in2="hardAlpha" operator="arithmetic" k2="-1" k3="1"/>
<feColorMatrix type="matrix" values="0 0 0 0 0.403922 0 0 0 0 0.2 0 0 0 0 0.0196078 0 0 0 0.29 0"/>
<feBlend mode="normal" in2="shape" result="effect1_innerShadow_450_19421"/>
</filter>
<filter id="filter7_i_450_19421" x="289" y="64" width="27.2637" height="37" filterUnits="userSpaceOnUse" color-interpolation-filters="sRGB">
<feFlood flood-opacity="0" result="BackgroundImageFix"/>
<feBlend mode="normal" in="SourceGraphic" in2="BackgroundImageFix" result="shape"/>
<feColorMatrix in="SourceAlpha" type="matrix" values="0 0 0 0 0 0 0 0 0 0 0 0 0 0 0 0 0 0 127 0" result="hardAlpha"/>
<feOffset dx="0.4" dy="-1.1"/>
<feComposite in2="hardAlpha" operator="arithmetic" k2="-1" k3="1"/>
<feColorMatrix type="matrix" values="0 0 0 0 0.403922 0 0 0 0 0.2 0 0 0 0 0.0196078 0 0 0 0.29 0"/>
<feBlend mode="normal" in2="shape" result="effect1_innerShadow_450_19421"/>
</filter>
<radialGradient id="paint0_radial_450_19421" cx="0" cy="0" r="1" gradientUnits="userSpaceOnUse" gradientTransform="translate(402 -107.5) rotate(90) scale(734)">
<stop stop-color="#E3E5EC"/>
<stop offset="1" stop-color="#E3E5EC" stop-opacity="0"/>
</radialGradient>
<radialGradient id="paint1_radial_450_19421" cx="0" cy="0" r="1" gradientUnits="userSpaceOnUse" gradientTransform="translate(307.323 100.133) rotate(144.547) scale(21.3936 35.4528)">
<stop stop-color="#81898D" stop-opacity="0.48"/>
<stop offset="1" stop-color="#81898D" stop-opacity="0"/>
</radialGradient>
<radialGradient id="paint2_radial_450_19421" cx="0" cy="0" r="1" gradientUnits="userSpaceOnUse" gradientTransform="translate(161.083 181.318) rotate(145.863) scale(22.8299 33.5393)">
<stop stop-color="#81898D" stop-opacity="0.48"/>
<stop offset="1" stop-color="#81898D" stop-opacity="0"/>
</radialGradient>
<radialGradient id="paint3_radial_450_19421" cx="0" cy="0" r="1" gradientUnits="userSpaceOnUse" gradientTransform="translate(578.376 84.7313) rotate(27.1222) scale(27.3572 33.4566)">
<stop stop-color="#81898D" stop-opacity="0.48"/>
<stop offset="1" stop-color="#81898D" stop-opacity="0"/>
</radialGradient>
<radialGradient id="paint4_radial_450_19421" cx="0" cy="0" r="1" gradientUnits="userSpaceOnUse" gradientTransform="translate(613.053 184.778) rotate(42.8838) scale(23.264 61.2073)">
<stop stop-color="#81898D" stop-opacity="0.48"/>
<stop offset="1" stop-color="#81898D" stop-opacity="0"/>
</radialGradient>
<radialGradient id="paint5_radial_450_19421" cx="0" cy="0" r="1" gradientUnits="userSpaceOnUse" gradientTransform="translate(563.105 25.3654) rotate(58.8847) scale(67.32 58.8697)">
<stop offset="0.0693777" stop-color="#FFAA00"/>
<stop offset="1" stop-color="#FF8800"/>
</radialGradient>
<radialGradient id="paint6_radial_450_19421" cx="0" cy="0" r="1" gradientUnits="userSpaceOnUse" gradientTransform="translate(174 132) rotate(109.041) scale(59.7704 105.764)">
<stop stop-color="#FFAF22"/>
<stop offset="1" stop-color="#FF8800"/>
</radialGradient>
<radialGradient id="paint7_radial_450_19421" cx="0" cy="0" r="1" gradientUnits="userSpaceOnUse" gradientTransform="translate(596 127.5) rotate(58.8847) scale(64.8267 56.6894)">
<stop offset="0.0693777" stop-color="#FFAA00"/>
<stop offset="1" stop-color="#FF8800"/>
</radialGradient>
<radialGradient id="paint8_radial_450_19421" cx="0" cy="0" r="1" gradientUnits="userSpaceOnUse" gradientTransform="translate(313 59.5) rotate(111.251) scale(48.283 42.2232)">
<stop stop-color="#FFAA00"/>
<stop offset="1" stop-color="#FF8800"/>
</radialGradient>
</defs>
</svg>
