<svg width="174" height="24" viewBox="0 0 174 24" fill="none" xmlns="http://www.w3.org/2000/svg">
<path d="M6.31759 17.6963L0.475586 1.59629H3.45409L8.11159 14.4188L12.7806 1.59629H15.7476L9.90559 17.6963H6.31759Z" fill="black"/>
<path d="M15.946 6.19629H18.752V17.6963H15.946V6.19629ZM17.372 5.37981C16.958 5.37981 16.6091 5.24565 16.3255 4.97731C16.0418 4.70131 15.9 4.35631 15.9 3.94231C15.9 3.53598 16.0418 3.19481 16.3255 2.91881C16.6091 2.64281 16.9541 2.50481 17.3605 2.50481C17.7668 2.50481 18.108 2.64281 18.384 2.91881C18.6676 3.19481 18.8095 3.53598 18.8095 3.94231C18.8095 4.35631 18.6715 4.70131 18.3955 4.97731C18.1195 5.24565 17.7783 5.37981 17.372 5.37981Z" fill="black"/>
<path d="M39.735 6.19629H42.541V17.6963H39.735L39.6085 16.2703C39.2941 16.784 38.8763 17.2018 38.355 17.5238C37.8413 17.8381 37.2318 17.9953 36.5265 17.9953C35.6755 17.9953 34.8781 17.8343 34.1345 17.5123C33.3908 17.1903 32.7353 16.7456 32.168 16.1783C31.6083 15.611 31.1675 14.9555 30.8455 14.2118C30.5311 13.4681 30.374 12.6708 30.374 11.8198C30.374 10.9995 30.5235 10.229 30.8225 9.50829C31.1291 8.78762 31.5546 8.15512 32.099 7.61079C32.6433 7.06646 33.272 6.64096 33.985 6.33429C34.698 6.02762 35.4646 5.87429 36.285 5.87429C37.044 5.87429 37.7225 6.04296 38.3205 6.38029C38.9261 6.71762 39.4398 7.14696 39.8615 7.66829L39.735 6.19629ZM36.4575 15.2928C37.0555 15.2928 37.5845 15.1433 38.0445 14.8443C38.5045 14.5453 38.8648 14.1428 39.1255 13.6368C39.3861 13.1231 39.5165 12.5596 39.5165 11.9463C39.5165 11.3253 39.3861 10.7618 39.1255 10.2558C38.8648 9.74212 38.5006 9.33579 38.033 9.03679C37.573 8.73779 37.0478 8.58829 36.4575 8.58829C35.8671 8.58829 35.3266 8.74162 34.836 9.04829C34.353 9.34729 33.9658 9.74979 33.6745 10.2558C33.3908 10.7618 33.249 11.3253 33.249 11.9463C33.249 12.5673 33.3946 13.1308 33.686 13.6368C33.9773 14.1428 34.3645 14.5453 34.8475 14.8443C35.3381 15.1433 35.8748 15.2928 36.4575 15.2928Z" fill="black"/>
<path d="M51.4964 17.6963L47.3794 1.59629H50.2774L53.0834 12.6018L55.8894 1.59629H58.4539L61.2599 12.6018L64.0544 1.59629H66.9524L62.8584 17.6963H59.6729L57.1659 7.94429L54.6934 17.6963H51.4964Z" fill="black"/>
<path d="M71.4415 17.9953C70.3835 17.9953 69.4175 17.7231 68.5435 17.1788C67.6772 16.6345 66.9834 15.9061 66.462 14.9938C65.9484 14.0738 65.6915 13.058 65.6915 11.9463C65.6915 11.103 65.841 10.3171 66.14 9.58879C66.439 8.85279 66.8492 8.20879 67.3705 7.65679C67.8995 7.09712 68.5129 6.66012 69.2105 6.34579C69.9082 6.03146 70.6519 5.87429 71.4415 5.87429C72.4995 5.87429 73.4617 6.14646 74.328 6.69079C75.202 7.23512 75.8959 7.96729 76.4095 8.88729C76.9309 9.80729 77.1915 10.827 77.1915 11.9463C77.1915 12.782 77.042 13.564 76.743 14.2923C76.444 15.0206 76.03 15.6646 75.501 16.2243C74.9797 16.7763 74.3702 17.2095 73.6725 17.5238C72.9825 17.8381 72.2389 17.9953 71.4415 17.9953ZM71.4415 15.1893C72.0012 15.1893 72.5034 15.0398 72.948 14.7408C73.3927 14.4418 73.7415 14.047 73.9945 13.5563C74.2552 13.0656 74.3855 12.529 74.3855 11.9463C74.3855 11.3483 74.2514 10.804 73.983 10.3133C73.7224 9.81496 73.3659 9.42012 72.9135 9.12879C72.4689 8.82979 71.9782 8.68029 71.4415 8.68029C70.8895 8.68029 70.3912 8.82979 69.9465 9.12879C69.5019 9.42779 69.1492 9.82646 68.8885 10.3248C68.6279 10.8231 68.4975 11.3636 68.4975 11.9463C68.4975 12.552 68.6317 13.1001 68.9 13.5908C69.1684 14.0815 69.5249 14.4725 69.9695 14.7638C70.4219 15.0475 70.9125 15.1893 71.4415 15.1893Z" fill="black"/>
<path d="M78.0736 17.6963L78.0621 6.19629H80.8681L80.8796 7.21979C81.2706 6.80579 81.7383 6.47996 82.2826 6.24229C82.827 5.99696 83.4135 5.87429 84.0421 5.87429C84.4638 5.87429 84.8855 5.93562 85.3071 6.05829L84.2031 8.88729C83.9118 8.77229 83.6205 8.71479 83.3291 8.71479C82.8768 8.71479 82.4628 8.82596 82.0871 9.04829C81.7191 9.26296 81.424 9.55812 81.2016 9.93379C80.987 10.3018 80.8796 10.712 80.8796 11.1643V17.6963H78.0736Z" fill="black"/>
<path d="M96.1768 17.6963H92.9453L90.3233 13.1768L88.7133 15.0973V17.6963H85.9073V0.446289H88.7133V10.7388L92.5198 6.19629H96.1883L92.2438 10.8998L96.1768 17.6963Z" fill="black"/>
<path d="M106.823 1.59629H110.055L115.908 17.6963H112.93L111.895 14.8443H104.995L103.96 17.6963H100.981L106.823 1.59629ZM106.018 12.0383H110.86L108.433 5.40279L106.018 12.0383Z" fill="black"/>
<path d="M124.665 6.19629H127.471V17.9148C127.471 18.7428 127.302 19.4941 126.965 20.1688C126.627 20.8511 126.167 21.4338 125.585 21.9168C125.002 22.4075 124.335 22.7831 123.584 23.0438C122.832 23.3121 122.043 23.4463 121.215 23.4463C120.41 23.4463 119.635 23.2815 118.892 22.9518C118.148 22.6221 117.489 22.1698 116.914 21.5948C116.346 21.0275 115.913 20.3796 115.614 19.6513L118.179 18.4898C118.332 18.9115 118.562 19.2795 118.869 19.5938C119.183 19.9158 119.543 20.165 119.95 20.3413C120.356 20.5253 120.778 20.6173 121.215 20.6173C121.659 20.6173 122.085 20.556 122.491 20.4333C122.905 20.3106 123.277 20.1305 123.607 19.8928C123.936 19.6628 124.193 19.3791 124.377 19.0418C124.569 18.7121 124.665 18.3365 124.665 17.9148V16.2933C124.304 16.7993 123.852 17.2095 123.308 17.5238C122.763 17.8381 122.135 17.9953 121.422 17.9953C120.594 17.9953 119.819 17.8381 119.099 17.5238C118.378 17.2095 117.742 16.7763 117.19 16.2243C116.645 15.6646 116.216 15.0206 115.902 14.2923C115.595 13.564 115.442 12.782 115.442 11.9463C115.442 11.1106 115.595 10.3286 115.902 9.60029C116.216 8.87196 116.645 8.23179 117.19 7.67979C117.742 7.12012 118.378 6.68312 119.099 6.36879C119.819 6.05446 120.594 5.89729 121.422 5.89729C122.135 5.89729 122.763 6.05446 123.308 6.36879C123.852 6.67546 124.304 7.08179 124.665 7.58779V6.19629ZM121.456 15.2928C122.046 15.2928 122.568 15.1433 123.02 14.8443C123.48 14.5376 123.84 14.1313 124.101 13.6253C124.362 13.1116 124.492 12.552 124.492 11.9463C124.492 11.333 124.358 10.7733 124.09 10.2673C123.829 9.76129 123.469 9.35496 123.009 9.04829C122.556 8.74162 122.039 8.58829 121.456 8.58829C120.881 8.58829 120.356 8.74162 119.881 9.04829C119.405 9.34729 119.026 9.74979 118.742 10.2558C118.458 10.7618 118.317 11.3253 118.317 11.9463C118.317 12.5673 118.458 13.1308 118.742 13.6368C119.026 14.1428 119.405 14.5453 119.881 14.8443C120.356 15.1433 120.881 15.2928 121.456 15.2928Z" fill="black"/>
<path d="M134.108 17.9953C133.05 17.9953 132.084 17.7231 131.21 17.1788C130.343 16.6345 129.649 15.9023 129.128 14.9823C128.614 14.0623 128.358 13.0465 128.358 11.9348C128.358 11.0991 128.507 10.3171 128.806 9.58879C129.105 8.85279 129.515 8.20879 130.037 7.65679C130.566 7.09712 131.179 6.66012 131.877 6.34579C132.574 6.03146 133.318 5.87429 134.108 5.87429C135.005 5.87429 135.825 6.06596 136.569 6.44929C137.32 6.82496 137.956 7.34246 138.478 8.00179C138.999 8.66112 139.378 9.41246 139.616 10.2558C139.854 11.0991 139.907 11.9808 139.777 12.9008H131.371C131.478 13.3301 131.654 13.7173 131.9 14.0623C132.145 14.3996 132.455 14.6718 132.831 14.8788C133.207 15.0781 133.632 15.1816 134.108 15.1893C134.598 15.197 135.043 15.082 135.442 14.8443C135.848 14.599 136.185 14.2693 136.454 13.8553L139.317 14.5223C138.849 15.542 138.152 16.3776 137.224 17.0293C136.296 17.6733 135.258 17.9953 134.108 17.9953ZM131.279 10.7963H136.937C136.852 10.3363 136.672 9.92229 136.396 9.55429C136.128 9.17862 135.794 8.87962 135.396 8.65729C134.997 8.43496 134.568 8.32379 134.108 8.32379C133.648 8.32379 133.222 8.43496 132.831 8.65729C132.44 8.87196 132.107 9.16712 131.831 9.54279C131.562 9.91079 131.378 10.3286 131.279 10.7963Z" fill="black"/>
<path d="M151.262 10.4283V17.6963H148.456V11.1643C148.456 10.712 148.345 10.3018 148.123 9.93379C147.9 9.55812 147.601 9.26296 147.226 9.04829C146.858 8.82596 146.447 8.71479 145.995 8.71479C145.543 8.71479 145.129 8.82596 144.753 9.04829C144.385 9.26296 144.09 9.55812 143.868 9.93379C143.653 10.3018 143.546 10.712 143.546 11.1643V17.6963H140.74L140.728 6.19629H143.534L143.546 7.21979C143.937 6.80579 144.404 6.47996 144.949 6.24229C145.493 5.99696 146.079 5.87429 146.708 5.87429C147.544 5.87429 148.307 6.08129 148.997 6.49529C149.687 6.90162 150.235 7.44979 150.641 8.13979C151.055 8.82212 151.262 9.58496 151.262 10.4283Z" fill="black"/>
<path d="M159.999 14.2348L162.529 15.6033C162 16.324 161.337 16.9028 160.539 17.3398C159.742 17.7768 158.872 17.9953 157.929 17.9953C156.871 17.9953 155.905 17.7231 155.031 17.1788C154.164 16.6345 153.471 15.9061 152.949 14.9938C152.436 14.0738 152.179 13.058 152.179 11.9463C152.179 11.103 152.328 10.3171 152.627 9.58879C152.926 8.85279 153.336 8.20879 153.858 7.65679C154.387 7.09712 155 6.66012 155.698 6.34579C156.395 6.03146 157.139 5.87429 157.929 5.87429C158.872 5.87429 159.742 6.09279 160.539 6.52979C161.337 6.96679 162 7.55329 162.529 8.28929L159.999 9.64629C159.73 9.33962 159.412 9.10196 159.044 8.93329C158.684 8.76462 158.312 8.68029 157.929 8.68029C157.377 8.68029 156.878 8.83362 156.434 9.14029C155.989 9.43929 155.636 9.83796 155.376 10.3363C155.115 10.827 154.985 11.3636 154.985 11.9463C154.985 12.5213 155.115 13.058 155.376 13.5563C155.636 14.047 155.989 14.4418 156.434 14.7408C156.878 15.0398 157.377 15.1893 157.929 15.1893C158.327 15.1893 158.707 15.105 159.067 14.9363C159.428 14.76 159.738 14.5261 159.999 14.2348Z" fill="black"/>
<path d="M170.686 6.19629H173.665L167.374 23.4463H164.396L166.477 17.6963L162.337 6.19629H165.408L167.88 13.8553L170.686 6.19629Z" fill="black"/>
<path d="M29.9933 8.58829L23.5993 15.3043H29.9933V17.6963H20.1723V15.3043L26.5663 8.58829H20.1723V6.19629H29.9933V8.58829Z" fill="black"/>
</svg>
